<?xml version="1.0" standalone="no"?> <!DOCTYPE svg PUBLIC "-//W3C//DTD SVG 1.0//EN" "http://www.w3.org/TR/2001/REC-SVG-20010904/DTD/svg10.dtd" > <svg xmlns="http://www.w3.org/2000/svg" width="100%" height="100%">
<defs >
<font horiz-adv-x="580" ><font-face
    font-family=""
    units-per-em="1000"
    panose-1="0 0 0 9 0 0 0 0 0 0"
    ascent="781"
    descent="-219"
    alphabetic="0" />
<missing-glyph />
<glyph unicode=" " glyph-name="space" />
<glyph unicode="!" glyph-name="exclam" d="M288 628Q290 669 311 685T361 702Q384 702 402 687T421 643Q421 628 417 615L298 209H262L288 628ZM254 -6Q224 -6 203 14T182 64Q182 93 202 114T254 135Q285 135 306 114T327 64Q327 35 306 15T254 -6Z" />
<glyph unicode="&quot;" glyph-name="quotedbl" d="M384 625V628Q384 704 448 704Q475 704 490 690T506 653Q506 637 496 610L421 407H388L384 625ZM466 625V628Q466 704 530 704Q557 704 572 690T588 653Q588 637 578 610L503 407H470L466 625Z" />
<glyph unicode="#" glyph-name="numbersign" d="M334 270L394 426H275L216 270H334ZM134 196H16L41 270H163L222 426H105L130 500H252L327 693H379L305 500H423L498 693H551L476 500H595L570 426H447L387 270H506L481 196H358L282 0H229L305 196H186L111 0H58L134 196Z" />
<glyph unicode="$" glyph-name="dollar" d="M213 544Q213 509 230 483T293 426L334 656Q279 648 246 618T213 544ZM401 168Q401 201 383 227T316 285L271 32Q333 39 367 76T401 168ZM193 -140L216 -12Q130 -7 78 25T26 105Q26 134 41 152T86 171Q113 171 125 153T136
93Q134 64 153 49T223 32L273 311Q195 359 160 406T124 510Q124 550 141 583T188 641T257 681T341 700L356 784H404L389 700Q426 698 456 688T509 664T543 631T555 594Q555 565 540 549T498 532Q471 532 458 548T447 601Q448 628 435 642T382 658L337 398Q379 372
408 348T457 298T486 247T495 189Q495 147 475 111T423 49T349 7T264 -12L241 -140H193Z" />
<glyph unicode="%" glyph-name="percent" d="M68 497Q68 507 69 516T72 537Q79 577 96 608T137 660T186 692T237 703Q261 703 281 694T317 667T341 627T350 574Q350 552 346 533Q339 493 322 462T281 410T232 377T180 366Q133 366 101 402T68 497ZM577 694H636L21
-20H-38L577 694ZM184 401Q216 401 234 434T264 529Q269 556 271 577T274 616Q274 645 264 657T234 669Q203 669 184 635T154 540Q149 514 147 493T144 455Q144 426 154 414T184 401ZM259 117Q259 127 260 136T263 157Q270 197 287 228T328 280T377 312T428 323Q452
323 472 314T508 287T532 247T541 194Q541 172 537 153Q530 113 513 82T472 30T423 -3T371 -14Q324 -14 292 22T259 117ZM375 21Q407 21 426 54T456 149Q461 176 463 197T466 236Q466 265 456 277T425 289Q393 289 374 255T344 160Q339 134 337 113T334 75Q334
46 344 34T375 21Z" />
<glyph unicode="&amp;" glyph-name="ampersand" d="M283 422Q338 454 360 500T382 598Q382 627 370 643T334 660Q299 660 280 626T260 540Q260 510 266 480T283 422ZM213 36Q242 36 266 48T310 81Q278 151 251 222T200 361Q162 330 139 280T115 163Q115 98 140
67T213 36ZM11 152Q11 198 24 235T62 301T118 353T188 393Q180 419 174 445T168 507Q168 550 181 586T217 649T271 690T340 705Q396 705 427 673T458 586Q458 521 415 474T296 391Q314 338 338 278T387 157Q419 209 435 247T452 306Q452 329 426 336L403 342L408
372H576L571 342L547 334Q525 326 513 312T485 265Q471 238 452 202T406 120Q416 97 423 84T437 63T452 51T475 42L507 31L502 0H354Q341 20 329 49Q301 21 267 4T184 -13Q104 -13 58 32T11 152Z" />
<glyph unicode="&apos;" glyph-name="quotesingle" d="M296 625V628Q296 704 360 704Q387 704 402 690T418 653Q418 637 408 610L333 407H300L296 625Z" />
<glyph unicode="(" glyph-name="parenleft" d="M365 -141Q326 -105 290 -66T226 21T181 123T164 244Q164 335 197 411T282 550T397 661T521 745L547 717Q493 675 442 625T350 516T286 394T262 260Q262 196 270 145T294 50T334 -33T391 -113L365 -141V-141Z" />
<glyph unicode=")" glyph-name="parenright" d="M226 745Q265 709 301 670T365 583T410 481T427 360Q427 269 394 193T309 54T194 -57T70 -141L44 -113Q98 -71 149 -21T241 88T305 210T329 344Q329 408 321 459T297 554T257 637T200 717L226 745V745Z" />
<glyph unicode="*" glyph-name="asterisk" d="M191 408Q191 419 197 429T220 450L322 517L211 536Q171 543 171 575Q171 592 182 604T212 617Q223 617 230 614T246 605L329 540L320 639Q319 644 319 649T318 659Q319 682 331 693T362 705Q381 705 392 696T403
668Q401 657 397 644L353 540L445 586Q467 597 483 597Q502 597 511 586T521 560Q521 519 471 518L353 515L433 442Q450 426 450 406Q450 388 436 376T404 364Q388 364 378 372T362 400L337 502L275 401Q265 384 254 377T229 369Q213 369 202 380T191 408Z" />
<glyph unicode="+" glyph-name="plus" d="M267 310H101L111 366H277L310 555H375L342 366H508L498 310H332L298 121H233L267 310Z" />
<glyph unicode="," glyph-name="comma" d="M160 78Q160 113 185 134T243 155Q290 155 318 123T347 32Q347 -6 329 -42T276 -107T192 -157T83 -189L70 -155Q158 -123 209 -85T266 13Q262 9 253 5T232 1Q196 1 178 23T160 78Z" />
<glyph unicode="-" glyph-name="hyphen" d="M184 328H441L419 254H162L184 328Z" />
<glyph unicode="." glyph-name="period" d="M255 -11Q220 -11 196 12T171 71Q171 88 177 103T195 130T222 148T255 155Q291 155 316 131T341 71Q341 36 316 13T255 -11Z" />
<glyph unicode="/" glyph-name="slash" d="M481 734H545L91 -130H28L481 734Z" />
<glyph unicode="0" glyph-name="zero" d="M44 252Q44 353 71 436T144 579T246 672T361 705Q399 705 435 692T501 647T548 566T566 443Q566 342 539 259T466 115T364 22T249 -12Q211 -12 175 2T109 47T62 128T44 252ZM254 35Q302 35 339 77T402 186T441 340T455
514Q455 592 432 625T356 659Q308 659 271 618T208 509T169 355T155 181Q155 103 178 69T254 35Z" />
<glyph unicode="1" glyph-name="one" d="M77 31L159 42Q173 44 182 47T196 56T206 75T213 106L294 565H173L178 596Q217 603 248 612T306 633T355 662T400 701L426 695L323 106Q320 87 320 76T322 57T332 47T350 42L423 31L418 0H72L77 31Z" />
<glyph unicode="2" glyph-name="two" d="M11 53Q82 103 149 156T263 251Q298 282 329 313T383 378T419 448T433 528Q433 594 401 629T310 664Q290 664 277 661T257 650T246 632T240 605Q236 576 220 561T176 545Q151 545 136 560T121 599Q121 621 135 640T175
674T238 697T321 705Q372 705 413 692T483 653T528 593T544 514Q544 452 508 397T414 290T281 189T130 92V88H350Q371 88 384 90T409 100T432 123T462 166H490L445 0H2L11 53Z" />
<glyph unicode="3" glyph-name="three" d="M220 -12Q180 -12 145 -6T82 13T39 44T23 87Q23 110 37 128T80 146Q107 146 121 133T143 92Q148 71 153 59T168 41T190 32T225 30Q300 30 336 81T372 218Q372 272 345 304T249 337H197L206 383H252Q298 383 329 396T379
432T406 487T414 555Q414 602 387 633T305 664Q271 664 257 654T238 609Q233 578 217 564T175 549Q149 549 136 563T123 601Q123 622 137 641T176 674T236 697T315 705Q360 705 398 693T463 659T505 607T521 540Q521 468 470 423T320 365L319 362Q394 351 440 311T486
202Q486 154 467 115T412 48T328 4T220 -12Z" />
<glyph unicode="4" glyph-name="four" d="M203 31L251 40Q261 42 268 44T279 53T287 70T293 100L311 199H27L35 244L447 693H498L422 259H522L500 199H411L394 100Q391 82 391 71T392 54T400 45T415 40L461 31L456 0H198L203 31ZM321 259L377 552H374L108 261V259H321Z" />
<glyph unicode="5" glyph-name="five" d="M235 -12Q199 -12 166 -6T106 13T64 43T48 85Q48 110 62 128T109 146Q135 146 150 133T170 81Q172 64 176 54T188 38T210 32T246 30Q321 30 364 77T408 207Q408 280 364 316T243 353Q211 353 180 348T126 335L120 342L223
693H478Q491 693 499 694T515 700T531 716T551 745H581L539 605H251L196 434Q210 438 231 441T282 444Q334 444 375 430T446 390T491 326T507 242Q507 182 485 135T425 56T338 6T235 -12Z" />
<glyph unicode="6" glyph-name="six" d="M522 235Q522 182 502 137T448 59T367 7T266 -12Q220 -12 181 5T112 54T67 133T50 238Q50 331 82 415T167 564T290 667T435 705Q477 705 507 699T556 681T584 656T593 626Q593 602 578 586T534 570Q509 570 492 584T471
631Q469 651 458 657T415 664Q379 664 343 641T276 577T219 482T177 368Q209 391 246 406T338 422Q379 422 413 409T471 372T508 313T522 235ZM274 35Q349 35 380 91T412 247Q412 302 384 335T304 369Q266 369 231 358T168 326Q156 269 156 209Q156 119 185 77T274
35Z" />
<glyph unicode="7" glyph-name="seven" d="M120 0Q157 103 204 191T302 355T405 493T504 606H243Q227 606 218 604T200 595T183 575T160 538H129L174 693H599L590 643Q530 573 478 503T381 356T299 191T231 0H120V0Z" />
<glyph unicode="8" glyph-name="eight" d="M35 155Q35 191 49 221T89 277T148 323T221 358L222 361Q198 381 181 399T151 435T133 475T127 521Q127 560 144 594T191 652T262 691T350 705Q390 705 426 694T490 661T534 611T551 545Q551 514 538 488T502 440T448
400T383 368L382 365Q446 324 480 283T514 187Q514 149 496 113T445 49T364 4T260 -13Q216 -13 176 -2T104 30T54 82T35 155ZM353 390Q373 402 393 417T428 452T454 497T464 556Q464 598 435 628T346 659Q286 659 252 630T217 554Q217 528 229 506T260 464T304
426T353 390ZM272 34Q343 34 382 65T422 151Q422 179 408 203T370 248T315 291T250 337Q228 325 206 307T166 266T137 214T126 152Q126 119 138 97T171 60T218 40T272 34Z" />
<glyph unicode="9" glyph-name="nine" d="M303 324Q341 324 376 335T439 366Q451 424 451 485Q451 575 421 617T330 659Q256 659 226 604T195 447Q195 392 223 358T303 324ZM172 -12Q87 -12 51 12T14 68Q14 92 29 108T73 124Q98 124 115 110T136 63Q138 43 149
37T192 30Q228 30 264 53T331 117T388 211T430 325Q398 302 361 287T269 272Q228 272 195 285T137 322T100 380T86 458Q86 512 105 557T159 635T239 686T338 705Q384 705 424 688T493 639T540 560T557 455Q557 362 525 278T440 129T317 26T172 -12Z" />
<glyph unicode=":" glyph-name="colon" d="M314 320Q279 320 255 343T230 402Q230 419 236 434T254 461T281 479T314 486Q350 486 375 462T400 402Q400 367 375 344T314 320ZM256 -7Q221 -7 197 16T172 75Q172 92 178 107T196 134T223 152T256 159Q292 159 317
135T342 75Q342 40 317 17T256 -7Z" />
<glyph unicode=";" glyph-name="semicolon" d="M160 78Q160 113 185 134T243 155Q290 155 318 123T347 32Q347 -6 329 -42T276 -107T192 -157T83 -189L70 -155Q158 -123 209 -85T266 13Q262 9 253 5T232 1Q196 1 178 23T160 78ZM314 320Q279 320 255 343T230 402Q230
419 236 434T254 461T281 479T314 486Q350 486 375 462T400 402Q400 367 375 344T314 320Z" />
<glyph unicode="&lt;" glyph-name="less" d="M101 280L113 346L530 516L519 453L162 309L469 169L458 109L101 280Z" />
<glyph unicode="=" glyph-name="equal" d="M130 426H509L499 369H120L130 426ZM101 263H480L470 207H91L101 263Z" />
<glyph unicode="&gt;" glyph-name="greater" d="M498 345L486 279L69 109L80 172L437 316L130 456L141 516L498 345Z" />
<glyph unicode="?" glyph-name="question" d="M233 374Q270 380 305 395T369 434T414 491T432 568Q432 612 406 638T330 664Q305 664 295 655T279 620Q265 563 216 563Q192 563 179 577T165 612Q165 652 207 678T322 705Q366 705 402 692T463 657T503 603T517
536Q517 488 499 449T449 380T371 329T272 298L256 207H203L233 374ZM206 -6Q176 -6 155 14T134 64Q134 93 154 114T206 135Q237 135 258 114T279 64Q279 35 258 15T206 -6Z" />
<glyph unicode="@" glyph-name="at" d="M20 140Q20 251 50 349T131 519T247 634T381 676Q427 676 463 657T523 605T560 528T573 432Q573 351 560 281T522 158T465 76T391 46Q308 46 313 129H309Q290 89 268 69T217 48Q180 48 161 78T141 156Q141 216 158 273T203
375T268 447T344 474Q369 474 387 468T418 447H420L455 482L467 473L457 438Q452 422 448 403T439 366L399 182Q396 168 393 152T390 124Q390 100 413 100Q435 100 455 127T490 199T514 301T523 418Q523 464 515 502T488 569T442 614T376 630Q317 630 263 590T166
483T99 330T74 152Q74 15 124 -49T257 -113Q336 -113 395 -71L391 -110Q381 -119 366 -128T333 -145T292 -158T243 -163Q199 -163 159 -145T88 -89T39 6T20 140ZM252 113Q260 113 267 116T283 127T299 150T317 190L366 401Q364 411 359 422T337 434Q312 434 291
406T255 337T231 249T222 163Q222 136 229 125T252 113Z" />
<glyph unicode="A" glyph-name="A" d="M186 278H343L310 532H306L186 278ZM140 0H-34L-29 31L-13 36Q-3 39 4 43T20 56T38 82T62 128L334 693H394L473 117Q476 94 479 80T488 58T499 45T514 36L525 31L520 0H300L305 31L331 38Q351 43 358 52T366 82Q366 93 365
105T361 134L348 233H165L114 126Q103 103 98 88T93 64Q93 52 99 47T120 38L145 31L140 0Z" />
<glyph unicode="B" glyph-name="B" d="M161 594Q167 630 162 640T138 655L108 663L113 693H325Q437 693 489 655T542 549Q542 393 367 372L366 368Q441 355 481 316T522 210Q522 163 505 125T455 59T374 16T262 0H-9L-4 31L34 40Q44 42 50 45T60 54T68 71T74 100L161
594ZM286 387Q365 387 399 432T434 555Q434 583 428 601T409 630T374 645T320 649Q306 649 296 648T276 644L231 387H286ZM188 139Q183 107 183 89T193 60T222 47T272 44Q342 44 374 90T407 221Q407 281 381 311T293 342H223L188 139Z" />
<glyph unicode="C" glyph-name="C" d="M392 659Q333 659 291 623T223 525T184 386T171 224Q171 133 205 84T315 34Q354 34 374 46T417 86Q428 100 437 112T453 137T469 165T487 199H516L479 20Q450 7 407 -2T314 -12Q194 -12 126 57T58 260Q58 346 80 426T145
569T254 668T404 706Q449 706 490 698T559 680L552 471H521Q507 528 497 557T479 604Q473 617 467 627T451 644T427 655T392 659Z" />
<glyph unicode="D" glyph-name="D" d="M-18 31L3 36Q16 39 24 42T38 53T46 71T53 100L140 595Q146 630 141 641T113 658L94 663L99 693H318Q439 693 506 634T573 447Q573 422 570 395T562 337Q547 250 515 187T439 82T339 20T222 0H-23L-18 31ZM168 139Q163 109
163 90T170 61T193 47T236 43Q284 43 318 64T378 123T420 213T448 327Q464 413 464 478Q464 528 453 561T421 614T373 642T312 651Q280 651 256 642L168 139Z" />
<glyph unicode="E" glyph-name="E" d="M-1 31L37 40Q47 42 53 45T63 54T71 71T77 100L164 594Q170 629 165 639T141 655L111 663L116 693H552L549 516H516Q508 554 501 576T485 612Q479 621 474 628T458 639T431 646T383 649Q341 649 320 647T281 640L236 383H270Q295
383 313 384T343 388T365 397T380 414Q391 431 398 445T415 483H447L404 237H372Q370 260 368 273T361 304Q358 314 353 320T337 331T307 336T261 337H228L195 152Q188 114 188 93T198 60T230 47T291 44Q321 44 339 45T371 50T394 62T417 85Q428 98 448 132T490
209H523L473 0H-6L-1 31Z" />
<glyph unicode="F" glyph-name="F" d="M555 506H522Q513 551 506 574T490 611Q484 620 479 627T463 639T435 646T389 649Q361 649 331 647T281 642L233 371H266Q291 371 309 372T340 376T361 385T377 402Q388 419 396 434T414 474H445L399 216H368Q366 245 365
259T358 292Q355 302 350 308T334 319T304 324T257 325H225L186 100Q183 82 183 71T185 54T197 45T219 38L250 31L245 0H-6L-1 31L28 37Q41 40 49 43T62 52T70 70T77 99L164 594Q167 612 167 623T165 641T156 651T141 656L111 663L116 693H558L555 506Z" />
<glyph unicode="G" glyph-name="G" d="M41 262Q41 351 64 431T131 573T238 670T379 706Q407 706 430 704T471 697T506 689T536 680L533 478H500Q486 529 477 557T458 602Q452 613 446 623T430 640T406 652T367 657Q310 657 270 620T204 522T166 384T154 224Q154
172 163 137T190 79T232 47T287 37Q316 37 337 42T375 59L399 198Q405 231 400 242T376 258L344 267L350 298H566L560 267L550 263Q538 258 531 254T520 244T512 227T506 198L475 20Q442 9 393 -1T290 -12Q240 -12 195 3T116 51T61 136T41 262Z" />
<glyph unicode="H" glyph-name="H" d="M-19 31L5 37Q18 40 26 43T40 53T48 71T54 100L141 595Q147 628 142 639T114 657L93 663L98 693H327L322 663L298 656Q284 652 276 648T263 638T255 622T249 594L210 376H409L448 594Q451 610 451 620T449 637T440 648T422
656L400 663L405 693H634L629 663L605 656Q591 652 583 648T570 638T562 622T556 594L469 100Q466 83 466 73T468 57T477 46T496 38L517 31L512 0H283L288 31L313 38Q326 42 334 45T347 55T355 72T361 101L401 330H202L162 100Q159 83 159 73T161 57T170 46T189
38L210 31L205 0H-24L-19 31Z" />
<glyph unicode="I" glyph-name="I" d="M68 34L126 42Q147 45 160 48T182 58T194 75T201 103L287 591Q292 622 282 634T232 652L178 660L184 693H545L539 660L470 651Q448 648 435 645T414 635T402 618T395 591L309 103Q306 88 307 78T314 60T332 50T364 43L429
34L423 0H62L68 34Z" />
<glyph unicode="J" glyph-name="J" d="M105 -163Q42 -163 10 -143T-23 -89Q-23 -66 -9 -50T35 -34Q63 -34 76 -48T95 -94Q98 -111 104 -116T127 -122Q147 -122 162 -116T191 -92T213 -47T231 26L331 594Q336 624 331 635T301 651L243 663L248 693H534L529 663L481
654Q470 652 464 650T453 641T445 623T439 594L349 84Q306 -163 105 -163Z" />
<glyph unicode="K" glyph-name="K" d="M379 0Q358 36 339 78T302 165T269 256T242 347L244 360L428 567Q453 595 462 607T472 631Q472 641 465 646T446 655L419 663L424 693H629L624 663L607 657Q596 653 587 649T567 637T546 619T519 592L334 387Q346 347 361
303T395 216T432 133T471 62Q478 50 483 47T496 41L533 31L528 0H379ZM-16 31L22 40Q32 42 38 44T48 52T55 68T61 95L149 594Q152 612 153 622T152 639T144 649T130 654L96 663L101 693H340L335 663L295 654Q285 652 279 649T268 640T262 623T256 594L169 100Q166
81 165 70T166 53T174 45T191 39L223 31L218 0H-21L-16 31Z" />
<glyph unicode="L" glyph-name="L" d="M21 31L59 40Q69 42 75 45T85 54T93 71T99 100L186 594Q192 627 188 638T163 655L133 663L138 693H381L376 663L332 653Q323 651 317 648T307 639T299 623T293 594L213 142Q207 107 206 87T211 58T236 46T286 44Q314 44 333
46T365 54T389 69T412 94Q424 110 444 140T489 220H523L470 0H16L21 31Z" />
<glyph unicode="M" glyph-name="M" d="M-33 31L-28 33Q-13 39 -5 43T9 55T17 75T24 110L109 589Q112 608 113 620T112 639T103 651T86 660L79 663L84 693H263L279 215H281L476 693H648L643 663L631 659Q620 655 613 652T602 642T594 624T588 594L501 100Q498 83
498 73T499 55T507 44T522 35L531 31L526 0H333L338 31L354 36Q367 40 375 43T389 53T397 71T403 100L496 630H493L241 16H198L165 630H162L70 110Q66 89 66 76T68 55T80 43T101 34L111 31L106 0H-38L-33 31Z" />
<glyph unicode="N" glyph-name="N" d="M-23 31L8 38Q19 41 26 44T39 54T48 74T56 110L142 594Q148 628 143 639T123 654L89 663L94 693H278L441 204H445L512 584Q519 625 514 638T488 656L450 663L455 693H641L636 663L610 656Q598 653 590 650T577 639T568 619T560
584L456 -4H404L196 608H192L104 110Q100 88 100 75T103 55T112 44T129 38L162 31L157 0H-28L-23 31Z" />
<glyph unicode="O" glyph-name="O" d="M260 -12Q215 -12 176 3T106 50T59 132T41 252Q41 278 43 305T51 363Q67 454 97 519T168 625T254 686T349 705Q395 705 435 690T504 642T551 559T568 438Q568 412 566 385T558 327Q541 235 511 171T442 66T356 7T260 -12ZM267
37Q304 37 330 53T377 103T413 192T442 322Q450 367 455 410T461 493Q461 582 432 619T345 657Q308 657 281 640T232 588T195 499T166 368Q158 325 153 283T148 201Q148 122 174 80T267 37Z" />
<glyph unicode="P" glyph-name="P" d="M-5 31L42 40Q53 42 60 45T71 54T79 71T85 100L173 599Q178 629 175 638T155 652L107 663L112 693H364Q473 693 532 642T591 504Q591 454 574 412T525 338T453 288T365 270Q307 270 285 288L290 318Q300 316 308 316T332
315Q410 315 444 368T478 516Q478 582 451 615T356 649Q333 649 317 647T289 642L194 100Q187 63 192 53T221 39L272 31L267 0H-10L-5 31Z" />
<glyph unicode="Q" glyph-name="Q" d="M443 -167Q397 -167 362 -156T292 -115Q265 -93 240 -67T177 4Q105 37 71 96T36 252Q36 278 38 305T46 363Q62 455 93 520T164 626T252 687T348 706Q395 706 436 691T507 643T555 560T573 438Q573 412 571 385T563 327Q549
250 525 193T469 95T399 31T318 -2L317 -5Q332 -22 350 -40T384 -69Q415 -93 442 -102T497 -112Q517 -112 536 -107T567 -95L564 -121Q546 -137 518 -152T443 -167ZM263 37Q302 37 330 53T380 103T417 192T447 322Q455 367 460 410T466 493Q466 583 436 620T345
658Q307 658 279 641T229 589T191 499T161 368Q153 325 148 283T143 201Q143 122 169 80T263 37Z" />
<glyph unicode="R" glyph-name="R" d="M280 359Q361 359 395 406T429 548Q429 578 424 597T406 628T374 644T323 649Q308 649 293 647T270 643L221 364Q234 362 246 361T280 359ZM-9 31L29 40Q39 42 45 45T55 54T63 71T69 100L156 594Q159 613 159 624T156 641T147
650T133 655L103 663L108 693H331Q445 693 492 655T540 536Q540 464 499 409T378 333V330Q386 297 397 261T421 191T447 127T472 74Q481 57 489 51T517 37L533 31L528 0H387Q352 69 325 148T278 313H212L175 100Q169 66 173 55T198 39L230 31L225 0H-14L-9 31Z"
/>
<glyph unicode="S" glyph-name="S" d="M251 -13Q216 -13 186 -7T131 7T85 24T52 42L55 225H92Q103 185 113 159T137 109Q157 74 184 55T261 36Q328 36 366 68T404 150Q404 191 372 229T263 315Q190 360 153 406T116 512Q116 551 131 586T176 647T249 690T348 706Q372
706 397 703T445 696T487 686T518 675L515 511H479Q468 546 459 568T439 608Q433 619 426 628T407 644T381 654T344 658Q281 658 244 627T206 547Q206 529 212 513T232 481T269 446T326 407Q419 349 461 297T503 189Q503 148 488 112T441 47T362 3T251 -13Z" />
<glyph unicode="T" glyph-name="T" d="M103 31L153 39Q167 41 176 44T190 53T199 71T205 100L300 651H287Q259 651 242 650T213 643T192 627T171 599Q162 585 155 573T140 548T125 518T107 481H74L120 693H611L583 481H550Q544 523 539 547T526 596Q520 614 514
625T496 641T468 649T421 651H408L313 100Q308 68 313 56T336 40L388 31L383 0H98L103 31Z" />
<glyph unicode="U" glyph-name="U" d="M270 -12Q170 -12 115 34T60 175Q60 191 62 208T67 244L129 594Q135 628 130 639T110 655L85 663L90 693H318L313 663L276 654Q267 652 261 649T250 640T243 623T237 594L173 226Q170 208 168 192T166 161Q166 101 196 74T296
46Q363 46 399 82T452 209L519 584Q527 626 521 639T495 656L455 663L460 693H641L636 663L617 657Q604 653 596 649T583 638T575 619T567 584L499 199Q481 98 427 43T270 -12Z" />
<glyph unicode="V" glyph-name="V" d="M139 564Q136 590 133 606T126 633T116 648T99 657L82 663L87 693H316L311 663L285 656Q262 650 254 638T247 601Q247 580 250 555L288 133H292L489 555Q500 578 506 595T511 629Q511 650 489 656L462 663L467 693H646L641
663L616 656Q605 653 598 649T584 633T567 603T542 553L270 0H205L139 564Z" />
<glyph unicode="W" glyph-name="W" d="M96 605Q96 631 94 642T81 659L74 663L80 693H254L248 663L227 657Q206 651 200 633T192 580L185 196H188L318 524L317 587Q316 625 312 639T292 658L278 663L284 693H474L468 663L446 657Q420 649 414 629T408 573L406 196H408L541
569Q549 589 553 604T558 631Q558 642 554 647T539 658L526 663L532 693H652L646 663L640 660Q633 657 629 653T620 640T610 619T596 585L375 0H321L325 430H323L151 0H97L96 605Z" />
<glyph unicode="X" glyph-name="X" d="M-22 31L2 37Q12 40 20 43T38 55T59 79T89 119L248 341L157 584Q143 619 135 635T108 657L89 663L94 693H330L325 663L297 657Q280 653 273 645T266 624Q266 603 279 567L336 405H338L452 586Q463 603 468 613T473 635Q473
651 445 658L425 663L430 693H615L610 663L585 656Q575 653 567 649T549 635T530 613T505 578L359 362L453 119Q460 99 465 85T476 61T488 45T505 36L521 31L516 0H284L289 31L319 36Q336 39 342 46T349 65Q349 78 346 90T336 119L270 297H267L143 111Q131 94 122
81T113 56Q113 39 136 35L155 31L150 0H-27L-22 31Z" />
<glyph unicode="Y" glyph-name="Y" d="M131 31L172 40Q182 42 188 45T199 54T206 71T212 100L243 280L162 574Q156 596 151 610T140 634T129 648T113 656L94 663L99 693H338L333 663L310 657Q285 650 277 641T268 618Q268 607 270 595T278 563L331 340H335L470
567Q484 590 489 603T494 628Q494 640 487 646T463 658L445 663L450 693H634L629 663L610 656Q596 651 586 645T567 629T547 602T519 558L354 288L321 100Q318 83 317 72T319 55T329 45T348 38L377 31L372 0H126L131 31Z" />
<glyph unicode="Z" glyph-name="Z" d="M23 44L447 646L448 650H393Q343 650 313 648T265 641T237 627T215 604Q198 582 184 559T150 497H121L164 693H574L567 650L146 47V43H185Q238 43 271 44T324 50T356 63T379 85Q397 106 414 134T458 213H488L437 0H15L23 44Z" />
<glyph unicode="[" glyph-name="bracketleft" d="M280 734H547L542 704L399 693Q387 692 379 690T367 682T359 665T352 635L235 -31Q229 -65 235 -76T265 -89L400 -100L395 -130H128L280 734Z" />
<glyph unicode="\" glyph-name="backslash" d="M459 -130H401L151 734H210L459 -130Z" />
<glyph unicode="]" glyph-name="bracketright" d="M314 -130H47L52 -100L195 -89Q207 -88 215 -86T227 -78T235 -61T242 -31L359 635Q365 669 359 680T329 693L194 704L199 734H466L314 -130Z" />
<glyph unicode="^" glyph-name="asciicircum" d="M116 389L350 703H385L509 389L483 372L348 590L136 372L116 389Z" />
<glyph unicode="_" glyph-name="underscore" d="M-67 -124H510L500 -180H-77L-67 -124Z" />
<glyph unicode="`" glyph-name="grave" d="M283 655Q242 670 242 703Q242 720 253 732T286 744Q301 744 312 738T336 722L472 617L457 593L283 655Z" />
<glyph unicode="a" glyph-name="a" d="M33 110Q33 140 42 163T75 206T138 242T238 271L368 300L377 346Q380 363 382 376T384 402Q384 447 360 466T288 486Q272 486 263 484T247 476T237 461T229 439Q221 413 206 397T162 380Q138 380 125 390T111 422Q111 448
127 467T171 499T235 518T313 525Q391 525 436 495T482 401Q482 389 480 375T475 344L436 123Q433 108 432 101T431 85Q431 62 449 52T506 39L501 11Q488 3 464 -4T414 -12Q378 -12 356 4T329 55H324Q300 26 262 8T176 -11Q110 -11 72 22T33 110ZM222 42Q253 42
284 60T333 102L360 248L273 238Q233 233 207 222T166 195T144 158T138 116Q138 84 159 63T222 42Z" />
<glyph unicode="b" glyph-name="b" d="M149 648Q154 673 150 683T130 702L95 721L100 749L266 765L274 757Q269 745 265 727Q261 712 257 691T247 640L231 549Q228 532 224 516T217 488Q213 474 209 461H213Q249 486 289 505T372 524Q405 524 434 513T485 479T520
421T533 337Q533 263 511 199T450 88T356 15T235 -12Q180 -12 128 4T41 43L149 648ZM244 33Q288 33 322 56T380 117T416 207T428 314Q428 461 315 461Q283 461 257 449T209 423L146 73Q162 55 187 44T244 33Z" />
<glyph unicode="c" glyph-name="c" d="M294 -12Q245 -12 205 2T137 44T92 111T76 200Q76 279 102 339T172 441T270 503T381 525Q456 525 494 501T533 438Q533 410 517 392T471 374Q445 374 434 389T419 432Q415 463 403 472T360 482Q322 482 291 462T236 407T200
324T187 221Q187 134 227 93T343 52Q384 52 419 63T480 90L473 51Q447 27 402 8T294 -12Z" />
<glyph unicode="d" glyph-name="d" d="M38 175Q38 249 60 313T121 424T215 497T336 524Q362 524 388 520T439 509Q439 521 441 534Q443 545 445 559T450 588L460 648Q462 662 462 670T460 684T453 693T440 702L406 721L411 749L577 765L585 757Q581 745 577 727Q573
712 569 691T559 640L466 115Q463 98 463 88T464 72T470 61T483 53L514 36L510 9L352 -12L346 -6L361 51H357Q321 26 282 7T199 -12Q166 -12 137 -1T86 33T51 91T38 175ZM256 56Q288 56 314 66T362 89L424 439Q408 457 384 468T327 480Q283 480 249 457T191 395T155
305T143 198Q143 125 171 91T256 56Z" />
<glyph unicode="e" glyph-name="e" d="M331 483Q275 483 233 436T172 312L418 324Q425 353 425 378Q425 429 404 456T331 483ZM478 51Q466 40 447 29T404 9T352 -6T294 -12Q182 -12 119 47T56 215Q56 286 79 343T141 440T231 503T338 525Q374 525 407 514T467
480T509 420T525 332Q525 316 524 302T518 270H165Q162 244 162 218Q162 172 173 141T207 90T262 61T336 52Q387 52 422 64T485 90L478 51Z" />
<glyph unicode="f" glyph-name="f" d="M74 30L159 43Q167 44 172 46T182 53T188 68T194 93L258 456H146L152 486L268 510L275 544Q298 653 365 710T528 767Q588 767 617 749T647 703Q647 682 635 665T596 647Q571 647 555 660T538 699Q537 720 532 725T504 730Q485
730 466 722T430 697T400 651T380 583L367 509H544L519 456H357L294 98Q291 81 291 71T293 54T302 46T320 42L422 30L417 0H69L74 30Z" />
<glyph unicode="g" glyph-name="g" d="M274 231Q302 231 322 243T355 278T374 329T380 391Q380 444 354 463T289 483Q238 483 210 439T182 320Q182 293 189 276T208 249T237 235T274 231ZM196 -221Q85 -221 27 -186T-32 -99Q-32 -56 4 -26T104 22L105 26Q82 37
65 53T47 98Q47 118 55 136T78 171T109 201T145 224V228Q119 242 101 273T82 346Q82 384 98 416T142 472T209 509T293 523Q321 523 351 516T411 495Q440 522 472 540T539 558Q565 558 579 546T593 514Q593 491 579 476T543 460Q510 460 502 495Q501 499 496 499Q482
499 465 492T431 470V467Q481 434 481 371Q481 327 464 294T417 237T349 202T269 190Q246 190 223 195T178 211Q169 208 161 200T147 183T136 163T132 145Q132 125 144 114T188 103H331Q400 103 436 74T472 -16Q472 -54 455 -90T403 -156T316 -203T196 -221ZM207
-181Q248 -181 282 -172T340 -146T378 -108T392 -63Q392 -24 373 -6T304 12H162Q145 7 127 -2T95 -25T71 -56T62 -93Q62 -116 73 -133T105 -160T151 -176T207 -181Z" />
<glyph unicode="h" glyph-name="h" d="M160 648Q163 662 163 670T161 684T153 693T140 702L105 721L110 749L277 765L285 757Q280 742 276 724Q272 708 268 687T258 640L239 539Q236 522 232 507T225 479Q221 465 218 452H222Q259 481 307 502T403 524Q461 524
489 500T518 421Q518 410 517 397T513 369L463 93Q460 79 460 70T462 56T468 47T481 41L514 30L509 0H287L292 30L326 40Q336 43 342 46T352 54T358 68T363 88L410 354Q412 367 413 377T415 398Q415 432 398 445T343 458Q311 458 276 443T218 414L161 93Q156 64
159 55T177 41L211 30L206 0H-17L-12 30L24 40Q34 43 40 46T50 54T56 68T61 88L160 648Z" />
<glyph unicode="i" glyph-name="i" d="M343 614Q311 614 290 636T268 686Q268 715 289 736T343 757Q374 757 395 736T417 686Q417 658 396 636T343 614ZM66 30L122 41Q148 46 163 51T188 66T201 91T211 132L248 340Q252 365 252 382T248 410T231 429T198 445L143
466L148 492L376 523L385 517Q380 505 376 488Q372 474 368 453T358 405L310 132Q306 108 306 93T311 67T328 52T357 43L419 30L414 0H61L66 30Z" />
<glyph unicode="j" glyph-name="j" d="M367 614Q335 614 314 636T292 686Q292 715 313 736T367 757Q398 757 419 736T441 686Q441 658 420 636T367 614ZM85 -228Q32 -228 2 -207T-28 -155Q-28 -131 -13 -116T29 -101Q58 -101 70 -114T83 -152Q84 -175 89 -183T112
-191Q142 -191 164 -168T197 -89L277 369Q280 389 280 402T278 425T268 439T247 448L182 467L187 493L400 523L409 517Q404 505 400 487Q396 472 392 451T382 400L307 -27Q298 -81 276 -119T224 -182T158 -217T85 -228Z" />
<glyph unicode="k" glyph-name="k" d="M-12 30L27 41Q44 45 50 54T62 93L158 637Q160 645 161 655T163 672Q163 683 159 688T142 701L105 721L110 749L277 765L284 757Q279 742 275 724Q271 708 267 687T258 640L161 93Q156 64 159 55T177 41L211 30L206 0H-17L-12
30ZM381 0Q336 61 299 121T230 253L233 268L369 387Q399 413 411 429T423 455Q423 468 402 476L389 481L394 509H579L574 480L544 470Q518 461 498 447T449 407L317 291Q354 219 390 164T460 62Q468 51 473 47T492 38L515 30L510 0H381Z" />
<glyph unicode="l" glyph-name="l" d="M69 30L134 39Q156 42 169 46T191 60T204 85T214 127L299 605Q303 631 303 647T298 673T280 689T248 701L186 721L191 749L423 765L431 757Q426 742 422 724Q418 708 414 687T404 640L313 127Q309 104 309 89T313 64T330
49T359 40L423 30L418 0H64L69 30Z" />
<glyph unicode="m" glyph-name="m" d="M533 30L528 0H362L367 30L387 35Q394 37 398 39T406 46T411 59T416 83L470 395Q483 468 440 468Q422 468 403 458T367 430L364 411L306 83Q301 54 303 46T316 35L333 30L328 0H161L166 30L186 35Q193 37 197 39T205 46T210
59T215 83L269 393Q276 432 269 450T238 468Q199 468 165 432L104 83Q99 54 101 46T114 35L132 30L127 0H-38L-33 30L-18 35Q-10 38 -5 40T3 47T8 60T13 83L70 409Q75 437 73 446T59 464L44 476L49 502L172 523L179 515L166 468H169Q201 497 230 510T291 524Q329
524 347 509T368 466H370Q399 493 428 508T493 524Q541 524 557 496T563 406L507 83Q502 54 504 47T520 35L533 30Z" />
<glyph unicode="n" glyph-name="n" d="M-10 30L26 40Q36 43 42 46T52 54T58 68T63 88L119 403Q124 428 121 437T101 457L69 476L74 502L229 523L238 517L221 452H225Q261 481 308 502T403 524Q460 524 487 500T515 422Q515 410 514 397T510 369L460 93Q457 79
457 70T459 56T465 47T478 41L511 30L506 0H284L289 30L323 40Q333 43 339 46T349 54T355 68T360 88L407 354Q412 382 412 398Q412 432 396 445T343 458Q328 458 311 454T278 444T247 429T221 414L163 93Q158 64 161 55T179 41L213 30L208 0H-15L-10 30Z" />
<glyph unicode="o" glyph-name="o" d="M258 -13Q221 -13 184 -1T116 38T68 106T49 207Q49 238 55 274Q66 336 93 383T156 461T234 509T320 525Q357 525 394 513T462 476T511 409T530 309Q530 279 524 243Q513 181 486 133T423 53T344 4T258 -13ZM153 172Q153 131
161 104T185 61T220 37T263 30Q320 30 357 80T415 238Q420 269 423 294T426 343Q426 383 418 410T394 453T359 476T315 483Q259 483 222 434T164 278Q159 247 156 221T153 172Z" />
<glyph unicode="p" glyph-name="p" d="M257 33Q301 33 335 56T393 117T429 207T441 314Q441 461 328 461Q296 461 270 449T222 423L161 84Q174 62 198 48T257 33ZM-47 -190L-8 -179Q2 -176 8 -173T18 -164T24 -150T28 -127L121 403Q126 428 123 437T103 457L71
476L76 502L232 523L241 517L223 461H227Q263 486 302 505T385 524Q418 524 447 513T498 479T533 421T546 337Q546 263 524 199T463 88T369 15T248 -12Q215 -12 190 -4T147 16Q146 2 145 -11Q144 -23 143 -36T139 -63L128 -127Q123 -156 127 -165T148 -180L190
-190L185 -219H-52L-47 -190Z" />
<glyph unicode="q" glyph-name="q" d="M484 489L520 527L540 522L423 -139Q418 -165 422 -175T440 -191L474 -202L471 -219H235L238 -202L288 -191Q297 -189 302 -187T311 -180T317 -165T323 -139L344 -21Q346 -7 350 6T357 29Q361 40 364 51H360Q324 26 284 7T201
-12Q168 -12 139 -1T88 33T53 91T40 175Q40 249 62 313T123 424T217 497T338 524Q384 524 418 515T480 489H484ZM427 439Q411 457 386 468T329 480Q285 480 251 457T193 395T157 305T145 198Q145 125 173 91T258 56Q290 56 316 66T364 89L427 439Z" />
<glyph unicode="r" glyph-name="r" d="M45 30L81 37Q98 40 109 44T127 57T139 79T148 115L194 373Q198 397 199 411T196 434T183 449T158 462L124 476L129 502L309 523L318 515L298 440H302Q344 475 389 500T480 525Q519 525 537 509T555 465Q555 434 536 417T488
400Q442 400 433 440Q431 451 425 454T408 457Q386 457 356 438T296 393L248 115Q244 91 244 78T249 57T268 46T306 39L370 30L365 0H40L45 30Z" />
<glyph unicode="s" glyph-name="s" d="M254 -12Q187 -12 134 4T50 37L71 185H101Q110 155 117 134T132 95Q139 81 149 69T174 49T211 36T263 31Q323 31 354 56T385 123Q385 139 379 151T357 175T317 198T255 221Q177 248 143 281T109 362Q109 397 126 427T172
478T241 512T325 525Q387 525 431 512T504 485L484 352H454Q440 402 425 430Q418 443 410 452T388 469T355 479T307 483Q253 483 225 457T197 395Q197 383 202 372T221 350T259 328T321 304Q406 276 443 241T480 160Q480 127 465 96T422 41T351 3T254 -12Z" />
<glyph unicode="t" glyph-name="t" d="M313 -12Q234 -12 200 25T180 142L235 456H104L110 485Q156 492 189 504T247 533T290 575T324 632H363L342 509H543L520 456H332L279 153Q268 94 289 71T366 48Q402 48 430 54T482 69L477 37Q454 19 411 4T313 -12Z" />
<glyph unicode="u" glyph-name="u" d="M181 -12Q124 -12 96 14T68 96Q68 107 69 119T73 146L120 413Q123 427 123 435T122 447T115 454T102 461L67 479L72 506L224 523L237 513L176 161Q174 149 173 139T172 119Q172 84 188 69T241 53Q273 53 304 64T361 90L418
413Q420 427 420 435T420 447T413 454T400 461L366 479L371 506L524 523L535 513L465 115Q462 98 462 88T463 72T469 61T482 53L513 36L509 9L354 -12L344 -4L360 56H356Q320 30 277 9T181 -12Z" />
<glyph unicode="v" glyph-name="v" d="M130 405Q127 421 124 432T117 450T106 463T89 472L67 480L72 509H299L294 480L265 473Q242 468 236 457T230 431Q230 423 232 412T236 389L282 117H286L434 389Q459 436 459 450Q459 466 435 473L409 480L414 509H595L590
480L561 472Q550 469 543 464T529 451T517 432T502 406L269 0H211L130 405Z" />
<glyph unicode="w" glyph-name="w" d="M90 405Q88 438 83 452T65 475L57 480L62 509H229L224 480L206 473Q190 467 187 449T184 389L190 150H194L293 383L291 417Q289 442 285 453T270 472L258 480L263 509H434L429 480L408 473Q382 465 382 426Q382 412 382 396T384
362L392 150H395L490 389Q509 437 509 453Q509 466 494 473L477 480L482 509H606L601 480L591 475Q577 468 566 452T537 395L368 0H313L302 319H300L167 0H111L90 405Z" />
<glyph unicode="x" glyph-name="x" d="M6 30L37 38Q51 42 62 47T83 59T104 78T127 104L246 247L158 401Q145 423 137 437T121 458T107 469T89 476L73 480L78 509H308L303 480L277 475Q262 472 256 465T250 446Q250 437 255 427T268 401L317 308H320L380 387Q400
413 410 428T420 454Q420 468 398 474L373 480L378 509H575L570 480L539 472Q524 468 514 463T493 449T471 428T444 397L339 278L434 109Q445 89 453 76T469 55T485 41T506 33L518 30L513 0H283L288 30L315 35Q343 41 343 59Q343 71 337 82T323 109L268 216H265L196
121Q179 97 168 82T156 56Q156 47 163 43T186 34L203 30L198 0H1L6 30Z" />
<glyph unicode="y" glyph-name="y" d="M50 -226Q6 -226 -14 -208T-34 -163Q-34 -135 -19 -119T22 -103Q45 -103 57 -115T72 -147Q74 -158 77 -162T89 -166Q106 -166 126 -140T179 -61L217 0L131 405Q127 425 124 436T117 455T107 465T92 472L70 480L75 509H298L293
480L264 473Q242 468 235 459T228 437Q228 426 230 416T235 389L287 121H291L435 382Q449 407 454 421T460 448Q460 457 456 463T438 473L412 480L417 509H600L595 480L565 472Q555 469 549 466T536 454T521 431T500 395L234 -59Q213 -95 193 -125T151 -178T105
-213T50 -226Z" />
<glyph unicode="z" glyph-name="z" d="M37 33L417 466L418 470H341Q311 470 291 469T259 464T238 455T222 440Q202 417 187 396T151 342H120L157 509H550L544 478L162 43L161 39H226Q267 39 293 41T335 49T362 62T382 83Q405 109 420 131T451 179H483L439 0H31L37 33Z" />
<glyph unicode="{" glyph-name="braceleft" d="M389 -138Q272 -127 219 -98T165 -21Q165 -1 179 33T212 103T244 171T259 221Q259 234 253 245T231 266T186 283T114 293L121 330Q180 331 214 339T266 360T288 388T293 419Q293 435 291 458T286 506T281 556T279
601Q279 641 292 666T335 705T416 726T541 734L536 704Q480 698 447 690T397 670T376 637T371 584Q371 554 372 520T374 445Q374 420 366 399T340 360T290 331T212 311L211 307Q277 292 305 267T333 206Q333 184 322 153T297 89T272 22T261 -39Q261 -52 267 -62T288
-79T329 -94T394 -108L389 -138V-138Z" />
<glyph unicode="|" glyph-name="bar" d="M260 734H320V-130H260V734Z" />
<glyph unicode="}" glyph-name="braceright" d="M204 734Q321 723 374 694T428 617Q428 597 414 563T381 493T349 425T334 375Q334 362 340 351T362 330T407 313T479 303L472 266Q413 265 379 257T327 236T305 208T300 177Q300 161 302 138T307 90T312 40T314
-5Q314 -45 301 -70T258 -109T177 -130T52 -138L57 -108Q113 -102 146 -94T196 -74T217 -41T222 12Q222 42 221 76T219 151Q219 176 227 197T253 236T303 265T381 285L382 289Q316 304 288 329T260 390Q260 412 271 443T296 507T321 574T332 635Q332 648 326 658T305
675T264 690T199 704L204 734V734Z" />
<glyph unicode="~" glyph-name="asciitilde" d="M186 275Q169 275 156 263T123 226L97 242Q110 264 122 283T147 316T172 339T202 348Q219 348 248 343T308 332T366 321T406 316Q423 316 436 328T469 365L495 349Q481 327 469 308T445 275T420 252T390 243Q373
243 344 248T284 259T226 270T186 275Z" />
<glyph unicode="&#x8e;" glyph-name="Zcaron" d="M23 44L447 646L448 650H393Q343 650 313 648T265 641T237 627T215 604Q198 582 184 559T150 497H121L164 693H574L567 650L146 47V43H185Q238 43 271 44T324 50T356 63T379 85Q397 106 414 134T458 213H488L437
0H15L23 44ZM497 886L517 909L645 839L799 909L814 883L658 758H607L497 886Z" />
<glyph unicode="&#x9e;" glyph-name="zcaron" d="M217 740L239 763L364 678L521 763L536 737L377 598H326L217 740ZM37 33L417 466L418 470H341Q311 470 291 469T259 464T238 455T222 440Q202 417 187 396T151 342H120L157 509H550L544 478L162 43L161 39H226Q267
39 293 41T335 49T362 62T382 83Q405 109 420 131T451 179H483L439 0H31L37 33Z" />
<glyph unicode="&#xa0;" glyph-name="uni00A0" />
<glyph unicode="&#xa1;" glyph-name="exclamdown" d="M289 -111Q287 -152 266 -168T216 -185Q193 -185 175 -170T156 -126Q156 -111 160 -98L279 308H315L289 -111ZM323 523Q353 523 374 503T395 453Q395 424 375 403T323 382Q292 382 271 403T250 453Q250 482
271 502T323 523Z" />
<glyph unicode="&#xa2;" glyph-name="cent" d="M480 56Q472 47 457 36T420 15T369 -3T306 -12L283 -140H232L255 -10Q165 1 117 58T68 205Q68 272 88 327T145 424T234 490T349 523L362 596H413L400 525Q472 523 512 499T552 440Q552 412 538 393T492 374Q440 374
443 431Q445 461 435 470T393 482L317 52H328Q379 52 418 65T487 95L480 56ZM178 228Q178 164 201 122T268 63L341 480Q301 474 271 452T220 397T189 320T178 228Z" />
<glyph unicode="&#xa3;" glyph-name="sterling" d="M433 0H3L16 72Q98 116 136 170T174 301Q174 310 174 318T172 334H96L104 379H166Q163 399 161 419T158 464Q158 522 177 567T230 643T311 689T413 705Q483 705 524 680T565 617Q565 589 548 576T508 562Q485
562 471 574T449 622Q446 637 443 645T434 657T419 663T396 664Q345 664 313 631T270 519Q267 493 265 455T259 379H433L425 334H256Q254 316 252 301T248 273Q234 205 199 162T109 93V88H352Q370 88 382 89T404 98T427 121T461 166H490L433 0Z" />
<glyph unicode="&#xa5;" glyph-name="yen" d="M388 0H118L123 31L174 40Q184 42 191 44T202 53T210 70T217 100L228 162H45L52 207H235L252 302H69L77 347H241L166 576Q159 598 153 612T141 635T129 648T113 656L92 663L97 693H358L353 663L322 657Q296 652 286
642T276 614Q276 598 285 567L342 368H346L464 567Q477 588 483 601T489 627Q489 639 482 645T457 656L432 663L437 693H636L631 663L609 656Q595 652 585 647T565 631T542 602T511 553L384 347H551L543 302H361L345 207H526L519 162H337L326 100Q320 66 323 55T346
40L393 31L388 0Z" />
<glyph unicode="&#xa6;" glyph-name="brokenbar" d="M260 734H320V328H260V734ZM260 254H320V-130H260V254Z" />
<glyph unicode="&#xa7;" glyph-name="section" d="M266 192Q303 158 331 128T379 66Q402 84 413 104T424 152Q424 168 419 183T401 216T366 258T310 313Q272 348 246 376T203 431Q178 413 169 391T159 347Q159 331 164 316T182 282T215 242T266 192ZM211 -204Q183
-204 157 -197T110 -178T77 -148T64 -111Q64 -62 119 -62Q144 -62 157 -77T172 -120Q174 -148 182 -157T217 -166Q268 -166 292 -136T317 -64Q317 -43 311 -24T290 16T254 60T198 114Q168 142 146 165T109 211T87 257T79 306Q79 334 88 357T113 399T148 434T188
461Q176 492 176 528Q176 562 188 593T225 649T286 687T369 702Q441 702 478 676T515 616Q515 593 500 581T459 568Q432 568 420 582T408 622Q408 646 398 655T356 664Q309 664 286 635T263 560Q263 539 268 521T287 483T323 442T378 390Q411 360 434 336T473 289T495
245T502 200Q502 99 396 33Q409 -1 409 -35Q409 -72 394 -103T353 -156T291 -191T211 -204Z" />
<glyph unicode="&#xa8;" glyph-name="dieresis" d="M263 616Q235 616 217 634T198 678Q198 704 216 723T263 742Q291 742 310 723T329 678Q329 652 310 634T263 616ZM464 616Q436 616 418 634T399 678Q399 704 417 723T464 742Q492 742 511 723T530 678Q530 652
511 634T464 616Z" />
<glyph unicode="&#xa9;" glyph-name="copyright" d="M288 82Q231 82 182 103T98 161T42 246T21 351Q21 407 41 456T97 542T182 600T288 621Q345 621 394 600T480 543T538 457T559 351Q559 295 538 247T481 161T395 103T288 82ZM288 119Q337 119 378 137T449 186T495
260T512 351Q512 400 496 442T450 516T379 566T288 584Q238 584 198 566T128 517T84 443T68 351Q68 303 83 261T128 187T197 137T288 119ZM294 204Q265 204 239 213T193 240T161 286T149 351Q149 392 162 420T196 467T244 493T301 502Q333 502 353 499T385 492L389
408H366Q361 419 357 430T344 451Q337 460 327 465T295 470Q256 470 238 444T219 361Q219 291 239 264T300 236Q335 236 349 258Q355 267 359 277T370 304H392L387 221Q374 215 351 210T294 204Z" />
<glyph unicode="&#xaa;" glyph-name="ordfeminine" d="M274 296Q300 296 323 308T358 335L380 457L315 449Q284 445 264 436T233 414T217 384T212 349Q212 324 228 310T274 296ZM117 346Q117 371 125 391T152 428T204 457T286 483L388 508L396 548Q402 576 402
596Q402 634 384 651T329 668Q315 668 308 666T295 658T287 643T281 621Q274 598 262 585T224 571Q180 571 180 607Q180 631 193 648T230 678T285 695T351 701Q417 701 456 676T495 595Q495 576 489 546L456 357Q453 344 453 338T452 325Q452 305 467 296T515 285L510
261Q499 254 479 249T437 244Q403 244 382 256T356 294H350Q331 272 301 257T234 242Q180 242 149 270T117 346Z" />
<glyph unicode="&#xab;" glyph-name="guillemotleft" d="M97 238L102 267L292 460H335L193 247L262 45H219L97 238ZM285 238L290 267L481 460H523L382 247L450 45H408L285 238Z" />
<glyph unicode="&#xae;" glyph-name="registered" d="M318 202Q265 202 220 221T142 275T90 354T71 451Q71 503 90 548T142 628T220 681T318 701Q371 701 417 682T496 628T549 549T569 451Q569 400 550 355T497 275T417 222T318 202ZM318 237Q364 237 402 254T467
300T510 368T526 451Q526 496 511 535T468 603T402 649T318 666Q272 666 235 650T170 604T129 535T114 451Q114 407 128 368T170 300T234 254T318 237ZM310 462Q338 462 350 474T362 511Q362 537 350 544T312 552H287V462H310ZM201 353L221 359Q226 361 227 363T229
378V533Q229 544 228 547T221 554L202 558V581H317Q373 581 396 564T420 515Q420 492 407 475T370 451V447Q394 401 412 373Q417 365 422 362T436 357L451 353V330H379Q359 358 345 382T318 433H287V378Q287 366 289 364T299 359L318 353V330H201V353Z" />
<glyph unicode="&#xaf;" glyph-name="macron" d="M229 693H502L491 628H218L229 693Z" />
<glyph unicode="&#xb0;" glyph-name="degree" d="M330 373Q294 373 264 386T211 423T176 476T163 540Q163 572 175 601T210 653T263 689T330 703Q366 703 396 690T448 654T483 602T496 540Q496 507 484 477T449 423T396 387T330 373ZM330 422Q354 422 373 431T407
457T429 494T437 540Q437 563 430 584T408 620T374 645T330 655Q306 655 286 646T252 621T230 584T222 540Q222 516 229 495T251 457T286 432T330 422Z" />
<glyph unicode="&#xb1;" glyph-name="plusminus" d="M271 335H105L115 391H281L310 555H375L346 391H512L502 335H336L307 171H242L271 335ZM56 56H453L443 0H46L56 56Z" />
<glyph unicode="&#xb2;" glyph-name="twosuperior" d="M145 316Q191 348 227 376T293 429Q341 468 373 511T406 608Q406 639 392 653T344 667Q321 667 312 660T299 636Q294 607 284 595T251 582Q232 582 220 595T207 625Q207 654 242 677T347 701Q377 701 403
695T450 676T481 643T493 593Q493 558 473 527T417 464T333 403T228 341V338H370Q382 338 390 340T405 347T419 363T436 390H459L429 271H137L145 316Z" />
<glyph unicode="&#xb3;" glyph-name="threesuperior" d="M281 264Q252 264 228 270T185 286T157 309T147 339Q147 356 158 368T189 381Q209 381 221 370T238 329Q240 312 249 305T282 298Q330 298 350 328T370 408Q370 441 353 456T298 471H268L275 508H308Q334
508 351 517T378 542T392 576T396 614Q396 667 335 667Q318 667 311 662T301 646Q295 618 285 605T254 591Q237 591 226 602T214 630Q214 664 250 682T347 701Q374 701 398 695T440 676T469 645T480 605Q480 560 445 530T352 491V489Q400 481 429 458T459 391Q459
367 449 344T416 303T361 275T281 264Z" />
<glyph unicode="&#xb4;" glyph-name="acute" d="M265 619L401 724Q414 734 425 740T451 746Q472 746 483 734T494 705Q494 672 453 657L280 595L265 619Z" />
<glyph unicode="&#xb6;" glyph-name="paragraph" d="M87 504Q87 598 146 645T315 693H612L607 663L559 654Q548 652 542 650T531 641T523 624T517 594L394 -100H339L472 651H380L247 -100H191L270 344H265Q227 344 195 355T138 387T101 437T87 504Z" />
<glyph unicode="&#xb7;" glyph-name="periodcentered" d="M304 260Q269 260 245 283T220 342Q220 359 226 374T244 401T271 419T304 426Q340 426 365 402T390 342Q390 307 365 284T304 260Z" />
<glyph unicode="&#xb8;" glyph-name="cedilla" d="M105 -212Q175 -202 202 -184T229 -143Q229 -109 161 -103L153 -94L218 0H270L214 -59Q262 -64 285 -81T308 -125Q308 -145 295 -165T255 -201T190 -227T100 -239L105 -212Z" />
<glyph unicode="&#xb9;" glyph-name="onesuperior" d="M191 297L223 302Q233 303 239 305T249 311T255 322T260 344L305 601H244L249 631Q300 639 335 656T398 703L414 697L352 344Q347 319 351 312T373 302L401 297L397 271H187L191 297Z" />
<glyph unicode="&#xba;" glyph-name="ordmasculine" d="M107 430Q107 457 113 487Q122 540 146 580T203 646T275 686T353 700Q387 700 422 690T485 658T530 601T548 517Q548 504 547 490T543 461Q533 408 509 368T451 300T378 259T300 245Q265 245 231 256T169
289T124 347T107 430ZM305 287Q357 287 392 328T443 456Q448 482 450 504T453 545Q453 577 445 599T423 634T390 653T349 659Q298 659 263 619T212 490Q203 439 203 401Q203 369 211 347T233 312T265 293T305 287Z" />
<glyph unicode="&#xbb;" glyph-name="guillemotright" d="M477 268L472 239L282 46H239L381 259L312 461H355L477 268ZM289 268L284 239L93 46H51L192 259L124 461H166L289 268Z" />
<glyph unicode="&#xbc;" glyph-name="onequarter" d="M192 420L250 427Q270 429 274 434T283 463L319 667H235L239 693Q302 701 341 720T406 763L421 757L369 463Q365 441 369 435T389 427L443 420L439 395H188L192 420ZM72 299H521L513 254H64L72 299ZM178 -176L211
-171Q231 -168 236 -163T245 -136L249 -114H60L65 -82L333 159H374L333 -74H392L379 -114H326L322 -136Q318 -156 321 -162T343 -171L371 -176L367 -199H174L178 -176ZM284 74H281L122 -72V-74H255L284 74Z" />
<glyph unicode="&#xbd;" glyph-name="onehalf" d="M192 420L250 427Q270 429 274 434T283 463L319 667H235L239 693Q302 701 341 720T406 763L421 757L369 463Q365 441 369 435T389 427L443 420L439 395H188L192 420ZM72 299H521L513 254H64L72 299ZM73 -161Q114
-135 148 -111T212 -64Q232 -49 249 -33T280 1T302 39T310 85Q310 114 294 125T250 137Q227 137 219 131T207 110Q202 87 192 76T162 64Q145 64 133 74T121 100Q121 124 155 145T254 166Q314 166 353 141T392 70Q392 36 373 9T322 -43T246 -90T155 -140V-142H284Q295
-142 301 -141T313 -135T325 -121T340 -98H365L338 -199H66L73 -161Z" />
<glyph unicode="&#xbe;" glyph-name="threequarters" d="M171 451Q171 466 180 477T210 489Q229 489 239 480T255 445Q258 428 267 423T300 418Q341 418 364 443T387 512Q387 541 369 553T316 565H283L289 598H323Q369 598 389 623T409 683Q409 708 393 720T348
732Q330 732 322 727T310 709Q305 691 297 679T267 667Q249 667 240 677T230 701Q230 727 264 744T356 761Q413 761 449 738T486 676Q486 638 457 615T367 585V583Q415 575 442 554T470 496Q470 449 425 419T300 389Q243 389 207 405T171 451ZM72 299H521L513 254H64L72
299ZM178 -176L211 -171Q231 -168 236 -163T245 -136L249 -114H60L65 -82L333 159H374L333 -74H392L379 -114H326L322 -136Q318 -156 321 -162T343 -171L371 -176L367 -199H174L178 -176ZM284 74H281L122 -72V-74H255L284 74Z" />
<glyph unicode="&#xbf;" glyph-name="questiondown" d="M345 144Q308 138 273 123T209 84T164 27T146 -50Q146 -94 172 -120T248 -146Q273 -146 283 -137T299 -102Q312 -45 362 -45Q386 -45 399 -59T413 -94Q413 -134 371 -160T256 -187Q212 -187 176 -174T115
-139T75 -85T61 -18Q61 30 79 69T129 138T207 189T306 220L322 311H375L345 144ZM372 524Q402 524 423 504T444 454Q444 425 424 404T372 383Q341 383 320 404T299 454Q299 483 320 503T372 524Z" />
<glyph unicode="&#xc0;" glyph-name="Agrave" d="M186 278H343L310 532H306L186 278ZM140 0H-34L-29 31L-13 36Q-3 39 4 43T20 56T38 82T62 128L334 693H394L473 117Q476 94 479 80T488 58T499 45T514 36L525 31L520 0H300L305 31L331 38Q351 43 358 52T366 82Q366
93 365 105T361 134L348 233H165L114 126Q103 103 98 88T93 64Q93 52 99 47T120 38L145 31L140 0ZM310 809Q269 824 269 857Q269 874 281 887T314 900Q329 900 340 894T364 878L499 772L484 748L310 809Z" />
<glyph unicode="&#xc1;" glyph-name="Aacute" d="M186 278H343L310 532H306L186 278ZM140 0H-34L-29 31L-13 36Q-3 39 4 43T20 56T38 82T62 128L334 693H394L473 117Q476 94 479 80T488 58T499 45T514 36L525 31L520 0H300L305 31L331 38Q351 43 358 52T366 82Q366
93 365 105T361 134L348 233H165L114 126Q103 103 98 88T93 64Q93 52 99 47T120 38L145 31L140 0ZM275 772L410 878Q423 888 434 894T460 900Q481 900 493 887T505 857Q505 824 464 809L290 748L275 772Z" />
<glyph unicode="&#xc2;" glyph-name="Acircumflex" d="M186 278H343L310 532H306L186 278ZM140 0H-34L-29 31L-13 36Q-3 39 4 43T20 56T38 82T62 128L334 693H394L473 117Q476 94 479 80T488 58T499 45T514 36L525 31L520 0H300L305 31L331 38Q351 43 358 52T366
82Q366 93 365 105T361 134L348 233H165L114 126Q103 103 98 88T93 64Q93 52 99 47T120 38L145 31L140 0ZM538 770L518 747L389 816L236 745L221 771L376 897H427L538 770Z" />
<glyph unicode="&#xc3;" glyph-name="Atilde" d="M186 278H343L310 532H306L186 278ZM140 0H-34L-29 31L-13 36Q-3 39 4 43T20 56T38 82T62 128L334 693H394L473 117Q476 94 479 80T488 58T499 45T514 36L525 31L520 0H300L305 31L331 38Q351 43 358 52T366 82Q366
93 365 105T361 134L348 233H165L114 126Q103 103 98 88T93 64Q93 52 99 47T120 38L145 31L140 0ZM212 779Q243 833 268 861T323 890Q339 890 359 884T398 870T435 856T462 850Q477 850 491 863T529 906L558 891Q528 836 503 808T448 780Q430 780 411 786T373 799T338
813T309 820Q294 820 280 807T244 763L212 779Z" />
<glyph unicode="&#xc4;" glyph-name="Adieresis" d="M186 278H343L310 532H306L186 278ZM140 0H-34L-29 31L-13 36Q-3 39 4 43T20 56T38 82T62 128L334 693H394L473 117Q476 94 479 80T488 58T499 45T514 36L525 31L520 0H300L305 31L331 38Q351 43 358 52T366
82Q366 93 365 105T361 134L348 233H165L114 126Q103 103 98 88T93 64Q93 52 99 47T120 38L145 31L140 0ZM522 751Q494 751 476 769T457 813Q457 839 475 858T522 877Q550 877 569 858T588 813Q588 787 569 769T522 751ZM740 751Q712 751 694 769T675 813Q675 839
693 858T740 877Q768 877 787 858T806 813Q806 787 787 769T740 751Z" />
<glyph unicode="&#xc5;" glyph-name="Aring" d="M186 278H343L310 532H306L186 278ZM140 0H-34L-29 31L-13 36Q-3 39 4 43T20 56T38 82T62 128L334 693H394L473 117Q476 94 479 80T488 58T499 45T514 36L525 31L520 0H300L305 31L331 38Q351 43 358 52T366 82Q366
93 365 105T361 134L348 233H165L114 126Q103 103 98 88T93 64Q93 52 99 47T120 38L145 31L140 0ZM628 738Q606 738 588 746T556 767T534 798T526 836Q526 878 555 906T628 935Q672 935 701 907T730 836Q730 816 722 799T701 768T669 746T628 738ZM628 776Q654
776 670 793T686 836Q686 862 670 879T628 897Q602 897 586 880T570 836Q570 810 586 793T628 776Z" />
<glyph unicode="&#xc6;" glyph-name="AE" d="M322 591Q323 596 323 600T324 610H320L147 266H265L322 591ZM87 0H-46L-41 31L-36 33Q-28 36 -22 40T-10 53T6 79T30 126L297 652L245 663L250 693H618L605 516H574Q566 555 561 577T548 617Q540 637 529 643T488
649Q469 649 455 647T429 640L384 383H413Q438 383 447 387T465 407Q478 429 484 445T499 481H529L486 239H456Q456 249 456 257T455 273T453 289T450 309Q447 326 439 331T403 337H375L335 107Q332 87 332 74Q332 55 341 50T374 44Q396 44 409 45T430 50T445 62T459
85Q473 111 487 141T518 209H549L503 0H168L173 31L200 40Q209 43 214 46T223 55T230 71T236 100L257 221H125L80 132Q67 106 61 90T55 61Q55 42 76 36L92 31L87 0Z" />
<glyph unicode="&#xc7;" glyph-name="Ccedilla" d="M117 -212Q187 -202 214 -184T241 -143Q241 -109 173 -103L165 -94L228 -2Q167 14 126 57Q58 126 58 260Q58 346 80 426T145 569T254 668T404 706Q449 706 490 698T559 680L552 471H521Q507 528 497 557T479
604Q473 617 467 627T451 644T427 655T392 659Q333 659 291 623T223 525T184 386T171 224Q171 133 205 84T315 34Q354 34 374 46T417 86Q428 100 437 112T453 137T469 165T487 199H516L479 20Q450 7 407 -2T314 -12Q292 -12 272 -10L226 -59Q274 -64 297 -81T320
-125Q320 -145 307 -165T267 -201T202 -227T112 -239L117 -212Z" />
<glyph unicode="&#xc8;" glyph-name="Egrave" d="M-1 31L37 40Q47 42 53 45T63 54T71 71T77 100L164 594Q170 629 165 639T141 655L111 663L116 693H552L549 516H516Q508 554 501 576T485 612Q479 621 474 628T458 639T431 646T383 649Q341 649 320 647T281 640L236
383H270Q295 383 313 384T343 388T365 397T380 414Q391 431 398 445T415 483H447L404 237H372Q370 260 368 273T361 304Q358 314 353 320T337 331T307 336T261 337H228L195 152Q188 114 188 93T198 60T230 47T291 44Q321 44 339 45T371 50T394 62T417 85Q428 98
448 132T490 209H523L473 0H-6L-1 31ZM546 809Q505 824 505 857Q505 874 517 887T550 900Q565 900 576 894T600 878L735 772L720 748L546 809Z" />
<glyph unicode="&#xc9;" glyph-name="Eacute" d="M-1 31L37 40Q47 42 53 45T63 54T71 71T77 100L164 594Q170 629 165 639T141 655L111 663L116 693H552L549 516H516Q508 554 501 576T485 612Q479 621 474 628T458 639T431 646T383 649Q341 649 320 647T281 640L236
383H270Q295 383 313 384T343 388T365 397T380 414Q391 431 398 445T415 483H447L404 237H372Q370 260 368 273T361 304Q358 314 353 320T337 331T307 336T261 337H228L195 152Q188 114 188 93T198 60T230 47T291 44Q321 44 339 45T371 50T394 62T417 85Q428 98
448 132T490 209H523L473 0H-6L-1 31ZM275 772L410 878Q423 888 434 894T460 900Q481 900 493 887T505 857Q505 824 464 809L290 748L275 772Z" />
<glyph unicode="&#xca;" glyph-name="Ecircumflex" d="M-1 31L37 40Q47 42 53 45T63 54T71 71T77 100L164 594Q170 629 165 639T141 655L111 663L116 693H552L549 516H516Q508 554 501 576T485 612Q479 621 474 628T458 639T431 646T383 649Q341 649 320 647T281
640L236 383H270Q295 383 313 384T343 388T365 397T380 414Q391 431 398 445T415 483H447L404 237H372Q370 260 368 273T361 304Q358 314 353 320T337 331T307 336T261 337H228L195 152Q188 114 188 93T198 60T230 47T291 44Q321 44 339 45T371 50T394 62T417 85Q428
98 448 132T490 209H523L473 0H-6L-1 31ZM774 770L754 747L625 816L472 745L457 771L612 897H663L774 770Z" />
<glyph unicode="&#xcb;" glyph-name="Edieresis" d="M514 751Q486 751 468 769T449 813Q449 839 467 858T514 877Q542 877 561 858T580 813Q580 787 561 769T514 751ZM732 751Q704 751 686 769T667 813Q667 839 685 858T732 877Q760 877 779 858T798 813Q798 787
779 769T732 751ZM-1 31L37 40Q47 42 53 45T63 54T71 71T77 100L164 594Q170 629 165 639T141 655L111 663L116 693H552L549 516H516Q508 554 501 576T485 612Q479 621 474 628T458 639T431 646T383 649Q341 649 320 647T281 640L236 383H270Q295 383 313 384T343
388T365 397T380 414Q391 431 398 445T415 483H447L404 237H372Q370 260 368 273T361 304Q358 314 353 320T337 331T307 336T261 337H228L195 152Q188 114 188 93T198 60T230 47T291 44Q321 44 339 45T371 50T394 62T417 85Q428 98 448 132T490 209H523L473 0H-6L-1
31Z" />
<glyph unicode="&#xcc;" glyph-name="Igrave" d="M68 34L126 42Q147 45 160 48T182 58T194 75T201 103L287 591Q292 622 282 634T232 652L178 660L184 693H545L539 660L470 651Q448 648 435 645T414 635T402 618T395 591L309 103Q306 88 307 78T314 60T332 50T364
43L429 34L423 0H62L68 34ZM310 809Q269 824 269 857Q269 874 281 887T314 900Q329 900 340 894T364 878L499 772L484 748L310 809Z" />
<glyph unicode="&#xcd;" glyph-name="Iacute" d="M68 34L126 42Q147 45 160 48T182 58T194 75T201 103L287 591Q292 622 282 634T232 652L178 660L184 693H545L539 660L470 651Q448 648 435 645T414 635T402 618T395 591L309 103Q306 88 307 78T314 60T332 50T364
43L429 34L423 0H62L68 34ZM275 772L410 878Q423 888 434 894T460 900Q481 900 493 887T505 857Q505 824 464 809L290 748L275 772Z" />
<glyph unicode="&#xce;" glyph-name="Icircumflex" d="M68 34L126 42Q147 45 160 48T182 58T194 75T201 103L287 591Q292 622 282 634T232 652L178 660L184 693H545L539 660L470 651Q448 648 435 645T414 635T402 618T395 591L309 103Q306 88 307 78T314 60T332
50T364 43L429 34L423 0H62L68 34ZM538 770L518 747L389 816L236 745L221 771L376 897H427L538 770Z" />
<glyph unicode="&#xcf;" glyph-name="Idieresis" d="M68 34L126 42Q147 45 160 48T182 58T194 75T201 103L287 591Q292 622 282 634T232 652L178 660L184 693H545L539 660L470 651Q448 648 435 645T414 635T402 618T395 591L309 103Q306 88 307 78T314 60T332
50T364 43L429 34L423 0H62L68 34ZM279 751Q251 751 233 769T214 813Q214 839 232 858T279 877Q307 877 326 858T345 813Q345 787 326 769T279 751ZM497 751Q469 751 451 769T432 813Q432 839 450 858T497 877Q525 877 544 858T563 813Q563 787 544 769T497 751Z"
/>
<glyph unicode="&#xd0;" glyph-name="Eth" d="M31 372H100L140 595Q146 630 141 641T113 658L94 663L99 693H318Q439 693 506 634T573 447Q573 422 570 395T562 337Q547 250 515 187T439 82T339 20T222 0H-23L-18 31L3 36Q16 39 24 42T38 53T46 71T53 100L93 329H23L31
372ZM168 139Q163 109 163 90T170 61T193 47T236 43Q284 43 318 64T378 123T420 213T448 327Q464 413 464 478Q464 528 453 561T421 614T373 642T312 651Q280 651 256 642L208 372H345L337 329H201L168 139Z" />
<glyph unicode="&#xd1;" glyph-name="Ntilde" d="M-23 31L8 38Q19 41 26 44T39 54T48 74T56 110L142 594Q148 628 143 639T123 654L89 663L94 693H278L441 204H445L512 584Q519 625 514 638T488 656L450 663L455 693H641L636 663L610 656Q598 653 590 650T577
639T568 619T560 584L456 -4H404L196 608H192L104 110Q100 88 100 75T103 55T112 44T129 38L162 31L157 0H-28L-23 31ZM232 779Q263 833 288 861T343 890Q359 890 379 884T418 870T455 856T482 850Q497 850 511 863T549 906L578 891Q548 836 523 808T468 780Q450
780 431 786T393 799T358 813T329 820Q314 820 300 807T264 763L232 779Z" />
<glyph unicode="&#xd2;" glyph-name="Ograve" d="M260 -12Q215 -12 176 3T106 50T59 132T41 252Q41 278 43 305T51 363Q67 454 97 519T168 625T254 686T349 705Q395 705 435 690T504 642T551 559T568 438Q568 412 566 385T558 327Q541 235 511 171T442 66T356
7T260 -12ZM267 37Q304 37 330 53T377 103T413 192T442 322Q450 367 455 410T461 493Q461 582 432 619T345 657Q308 657 281 640T232 588T195 499T166 368Q158 325 153 283T148 201Q148 122 174 80T267 37ZM549 809Q508 824 508 857Q508 874 520 887T553 900Q568
900 579 894T603 878L738 772L723 748L549 809Z" />
<glyph unicode="&#xd3;" glyph-name="Oacute" d="M260 -12Q215 -12 176 3T106 50T59 132T41 252Q41 278 43 305T51 363Q67 454 97 519T168 625T254 686T349 705Q395 705 435 690T504 642T551 559T568 438Q568 412 566 385T558 327Q541 235 511 171T442 66T356
7T260 -12ZM267 37Q304 37 330 53T377 103T413 192T442 322Q450 367 455 410T461 493Q461 582 432 619T345 657Q308 657 281 640T232 588T195 499T166 368Q158 325 153 283T148 201Q148 122 174 80T267 37ZM275 772L410 878Q423 888 434 894T460 900Q481 900 493
887T505 857Q505 824 464 809L290 748L275 772Z" />
<glyph unicode="&#xd4;" glyph-name="Ocircumflex" d="M784 770L764 747L635 816L482 745L467 771L622 897H673L784 770ZM260 -12Q215 -12 176 3T106 50T59 132T41 252Q41 278 43 305T51 363Q67 454 97 519T168 625T254 686T349 705Q395 705 435 690T504 642T551
559T568 438Q568 412 566 385T558 327Q541 235 511 171T442 66T356 7T260 -12ZM267 37Q304 37 330 53T377 103T413 192T442 322Q450 367 455 410T461 493Q461 582 432 619T345 657Q308 657 281 640T232 588T195 499T166 368Q158 325 153 283T148 201Q148 122 174
80T267 37Z" />
<glyph unicode="&#xd5;" glyph-name="Otilde" d="M260 -12Q215 -12 176 3T106 50T59 132T41 252Q41 278 43 305T51 363Q67 454 97 519T168 625T254 686T349 705Q395 705 435 690T504 642T551 559T568 438Q568 412 566 385T558 327Q541 235 511 171T442 66T356
7T260 -12ZM267 37Q304 37 330 53T377 103T413 192T442 322Q450 367 455 410T461 493Q461 582 432 619T345 657Q308 657 281 640T232 588T195 499T166 368Q158 325 153 283T148 201Q148 122 174 80T267 37ZM212 779Q243 833 268 861T323 890Q339 890 359 884T398
870T435 856T462 850Q477 850 491 863T529 906L558 891Q528 836 503 808T448 780Q430 780 411 786T373 799T338 813T309 820Q294 820 280 807T244 763L212 779Z" />
<glyph unicode="&#xd6;" glyph-name="Odieresis" d="M260 -12Q215 -12 176 3T106 50T59 132T41 252Q41 278 43 305T51 363Q67 454 97 519T168 625T254 686T349 705Q395 705 435 690T504 642T551 559T568 438Q568 412 566 385T558 327Q541 235 511 171T442 66T356
7T260 -12ZM267 37Q304 37 330 53T377 103T413 192T442 322Q450 367 455 410T461 493Q461 582 432 619T345 657Q308 657 281 640T232 588T195 499T166 368Q158 325 153 283T148 201Q148 122 174 80T267 37ZM520 751Q492 751 474 769T455 813Q455 839 473 858T520
877Q548 877 567 858T586 813Q586 787 567 769T520 751ZM738 751Q710 751 692 769T673 813Q673 839 691 858T738 877Q766 877 785 858T804 813Q804 787 785 769T738 751Z" />
<glyph unicode="&#xd7;" glyph-name="multiply" d="M90 178L257 324L127 486L175 524L303 363L469 510L505 466L337 318L469 156L421 118L291 279L128 134L90 178Z" />
<glyph unicode="&#xd8;" glyph-name="Oslash" d="M260 -12Q219 -12 183 0T117 39L53 -54H-5L85 76Q65 108 53 151T41 252Q41 278 43 305T51 363Q67 454 97 519T168 625T254 686T349 705Q389 705 424 694T488 657L532 720H591L521 620Q543 588 555 543T568 438Q568
412 566 385T558 327Q541 235 511 171T442 66T356 7T260 -12ZM267 37Q304 37 330 53T377 103T413 192T442 322Q450 367 455 410T461 493Q461 503 461 512T459 531L162 103Q175 71 200 54T267 37ZM148 201Q148 192 148 184T149 168L445 595Q431 628 407 642T345
657Q308 657 281 640T232 588T195 499T166 368Q158 325 153 283T148 201Z" />
<glyph unicode="&#xd9;" glyph-name="Ugrave" d="M270 -12Q170 -12 115 34T60 175Q60 191 62 208T67 244L129 594Q135 628 130 639T110 655L85 663L90 693H318L313 663L276 654Q267 652 261 649T250 640T243 623T237 594L173 226Q170 208 168 192T166 161Q166
101 196 74T296 46Q363 46 399 82T452 209L519 584Q527 626 521 639T495 656L455 663L460 693H641L636 663L617 657Q604 653 596 649T583 638T575 619T567 584L499 199Q481 98 427 43T270 -12ZM310 809Q269 824 269 857Q269 874 281 887T314 900Q329 900 340 894T364
878L499 772L484 748L310 809Z" />
<glyph unicode="&#xda;" glyph-name="Uacute" d="M270 -12Q170 -12 115 34T60 175Q60 191 62 208T67 244L129 594Q135 628 130 639T110 655L85 663L90 693H318L313 663L276 654Q267 652 261 649T250 640T243 623T237 594L173 226Q170 208 168 192T166 161Q166
101 196 74T296 46Q363 46 399 82T452 209L519 584Q527 626 521 639T495 656L455 663L460 693H641L636 663L617 657Q604 653 596 649T583 638T575 619T567 584L499 199Q481 98 427 43T270 -12ZM305 772L440 878Q453 888 464 894T490 900Q511 900 523 887T535 857Q535
824 494 809L320 748L305 772Z" />
<glyph unicode="&#xdb;" glyph-name="Ucircumflex" d="M270 -12Q170 -12 115 34T60 175Q60 191 62 208T67 244L129 594Q135 628 130 639T110 655L85 663L90 693H318L313 663L276 654Q267 652 261 649T250 640T243 623T237 594L173 226Q170 208 168 192T166 161Q166
101 196 74T296 46Q363 46 399 82T452 209L519 584Q527 626 521 639T495 656L455 663L460 693H641L636 663L617 657Q604 653 596 649T583 638T575 619T567 584L499 199Q481 98 427 43T270 -12ZM565 770L545 747L416 816L263 745L248 771L403 897H454L565 770Z"
/>
<glyph unicode="&#xdc;" glyph-name="Udieresis" d="M270 -12Q170 -12 115 34T60 175Q60 191 62 208T67 244L129 594Q135 628 130 639T110 655L85 663L90 693H318L313 663L276 654Q267 652 261 649T250 640T243 623T237 594L173 226Q170 208 168 192T166 161Q166
101 196 74T296 46Q363 46 399 82T452 209L519 584Q527 626 521 639T495 656L455 663L460 693H641L636 663L617 657Q604 653 596 649T583 638T575 619T567 584L499 199Q481 98 427 43T270 -12ZM297 751Q269 751 251 769T232 813Q232 839 250 858T297 877Q325 877
344 858T363 813Q363 787 344 769T297 751ZM515 751Q487 751 469 769T450 813Q450 839 468 858T515 877Q543 877 562 858T581 813Q581 787 562 769T515 751Z" />
<glyph unicode="&#xdd;" glyph-name="Yacute" d="M131 31L172 40Q182 42 188 45T199 54T206 71T212 100L243 280L162 574Q156 596 151 610T140 634T129 648T113 656L94 663L99 693H338L333 663L310 657Q285 650 277 641T268 618Q268 607 270 595T278 563L331 340H335L470
567Q484 590 489 603T494 628Q494 640 487 646T463 658L445 663L450 693H634L629 663L610 656Q596 651 586 645T567 629T547 602T519 558L354 288L321 100Q318 83 317 72T319 55T329 45T348 38L377 31L372 0H126L131 31ZM303 772L438 878Q451 888 462 894T488 900Q509
900 521 887T533 857Q533 824 492 809L318 748L303 772Z" />
<glyph unicode="&#xde;" glyph-name="Thorn" d="M-8 0L-3 31L44 40Q54 42 60 44T71 53T79 71T86 100L173 594Q176 612 176 622T175 639T167 649T152 654L108 663L114 693H377L372 663L323 654Q313 652 307 649T297 640T289 623T282 594L274 556H337Q448 556 507
508T567 378Q567 330 550 291T501 224T425 181T326 165Q292 165 275 169T247 178L252 211Q263 209 276 208T303 207Q339 207 367 220T416 258T446 316T457 390Q457 445 426 478T329 512Q306 512 291 510T265 505L194 100Q188 65 192 54T214 40L259 31L254 0H-8Z"
/>
<glyph unicode="&#xdf;" glyph-name="germandbls" d="M346 79Q344 48 353 40T388 31Q420 31 439 54T458 112Q458 149 434 178T381 233T328 287T304 349Q304 388 326 423T376 493T425 567T448 650Q448 692 434 712T385 732Q338 732 308 694T266 588L177 93Q171
61 175 51T193 35L207 30L202 0H-1L4 30L42 41Q59 46 66 55T78 93L142 456H76L82 486L152 510L157 541Q166 600 191 643T251 713T323 754T398 767Q472 767 512 738T553 653Q553 625 541 600T509 553T468 511T427 472T396 435T383 399Q383 382 395 365T425 329T464
291T503 249T533 200T545 142Q545 108 532 81T496 34T443 4T379 -7Q318 -7 280 14T241 74Q241 100 256 115T297 131Q323 131 335 117T346 79Z" />
<glyph unicode="&#xe0;" glyph-name="agrave" d="M33 110Q33 140 42 163T75 206T138 242T238 271L368 300L377 346Q380 363 382 376T384 402Q384 447 360 466T288 486Q272 486 263 484T247 476T237 461T229 439Q221 413 206 397T162 380Q138 380 125 390T111 422Q111
448 127 467T171 499T235 518T313 525Q391 525 436 495T482 401Q482 389 480 375T475 344L436 123Q433 108 432 101T431 85Q431 62 449 52T506 39L501 11Q488 3 464 -4T414 -12Q378 -12 356 4T329 55H324Q300 26 262 8T176 -11Q110 -11 72 22T33 110ZM222 42Q253
42 284 60T333 102L360 248L273 238Q233 233 207 222T166 195T144 158T138 116Q138 84 159 63T222 42ZM521 655Q480 670 480 703Q480 720 491 732T524 744Q539 744 550 738T574 722L710 617L695 593L521 655Z" />
<glyph unicode="&#xe1;" glyph-name="aacute" d="M33 110Q33 140 42 163T75 206T138 242T238 271L368 300L377 346Q380 363 382 376T384 402Q384 447 360 466T288 486Q272 486 263 484T247 476T237 461T229 439Q221 413 206 397T162 380Q138 380 125 390T111 422Q111
448 127 467T171 499T235 518T313 525Q391 525 436 495T482 401Q482 389 480 375T475 344L436 123Q433 108 432 101T431 85Q431 62 449 52T506 39L501 11Q488 3 464 -4T414 -12Q378 -12 356 4T329 55H324Q300 26 262 8T176 -11Q110 -11 72 22T33 110ZM222 42Q253
42 284 60T333 102L360 248L273 238Q233 233 207 222T166 195T144 158T138 116Q138 84 159 63T222 42ZM504 619L640 724Q653 734 664 740T690 746Q711 746 722 734T733 705Q733 672 692 657L519 595L504 619Z" />
<glyph unicode="&#xe2;" glyph-name="acircumflex" d="M33 110Q33 140 42 163T75 206T138 242T238 271L368 300L377 346Q380 363 382 376T384 402Q384 447 360 466T288 486Q272 486 263 484T247 476T237 461T229 439Q221 413 206 397T162 380Q138 380 125 390T111
422Q111 448 127 467T171 499T235 518T313 525Q391 525 436 495T482 401Q482 389 480 375T475 344L436 123Q433 108 432 101T431 85Q431 62 449 52T506 39L501 11Q488 3 464 -4T414 -12Q378 -12 356 4T329 55H324Q300 26 262 8T176 -11Q110 -11 72 22T33 110ZM222
42Q253 42 284 60T333 102L360 248L273 238Q233 233 207 222T166 195T144 158T138 116Q138 84 159 63T222 42ZM747 609L725 586L599 671L443 584L428 610L586 751H637L747 609Z" />
<glyph unicode="&#xe3;" glyph-name="atilde" d="M33 110Q33 140 42 163T75 206T138 242T238 271L368 300L377 346Q380 363 382 376T384 402Q384 447 360 466T288 486Q272 486 263 484T247 476T237 461T229 439Q221 413 206 397T162 380Q138 380 125 390T111 422Q111
448 127 467T171 499T235 518T313 525Q391 525 436 495T482 401Q482 389 480 375T475 344L436 123Q433 108 432 101T431 85Q431 62 449 52T506 39L501 11Q488 3 464 -4T414 -12Q378 -12 356 4T329 55H324Q300 26 262 8T176 -11Q110 -11 72 22T33 110ZM222 42Q253
42 284 60T333 102L360 248L273 238Q233 233 207 222T166 195T144 158T138 116Q138 84 159 63T222 42ZM427 597Q455 660 479 690T535 721Q553 721 573 715T614 701T651 687T677 680Q695 680 711 695T748 746L780 733Q753 670 728 640T670 609Q653 609 633 615T594
629T557 643T530 650Q512 650 497 634T461 583L427 597Z" />
<glyph unicode="&#xe4;" glyph-name="adieresis" d="M492 616Q464 616 446 634T427 678Q427 704 445 723T492 742Q520 742 539 723T558 678Q558 652 539 634T492 616ZM693 616Q665 616 647 634T628 678Q628 704 646 723T693 742Q721 742 740 723T759 678Q759 652
740 634T693 616ZM33 110Q33 140 42 163T75 206T138 242T238 271L368 300L377 346Q380 363 382 376T384 402Q384 447 360 466T288 486Q272 486 263 484T247 476T237 461T229 439Q221 413 206 397T162 380Q138 380 125 390T111 422Q111 448 127 467T171 499T235
518T313 525Q391 525 436 495T482 401Q482 389 480 375T475 344L436 123Q433 108 432 101T431 85Q431 62 449 52T506 39L501 11Q488 3 464 -4T414 -12Q378 -12 356 4T329 55H324Q300 26 262 8T176 -11Q110 -11 72 22T33 110ZM222 42Q253 42 284 60T333 102L360
248L273 238Q233 233 207 222T166 195T144 158T138 116Q138 84 159 63T222 42Z" />
<glyph unicode="&#xe5;" glyph-name="aring" d="M33 110Q33 140 42 163T75 206T138 242T238 271L368 300L377 346Q380 363 382 376T384 402Q384 447 360 466T288 486Q272 486 263 484T247 476T237 461T229 439Q221 413 206 397T162 380Q138 380 125 390T111 422Q111
448 127 467T171 499T235 518T313 525Q391 525 436 495T482 401Q482 389 480 375T475 344L436 123Q433 108 432 101T431 85Q431 62 449 52T506 39L501 11Q488 3 464 -4T414 -12Q378 -12 356 4T329 55H324Q300 26 262 8T176 -11Q110 -11 72 22T33 110ZM222 42Q253
42 284 60T333 102L360 248L273 238Q233 233 207 222T166 195T144 158T138 116Q138 84 159 63T222 42ZM601 588Q579 588 561 596T529 617T507 648T499 686Q499 728 528 756T601 785Q645 785 674 757T703 686Q703 666 695 649T674 618T642 596T601 588ZM601 626Q627
626 643 643T659 686Q659 712 643 729T601 747Q575 747 559 730T543 686Q543 660 559 643T601 626Z" />
<glyph unicode="&#xe6;" glyph-name="ae" d="M438 483Q421 483 405 470T374 433T347 377T326 308L464 313Q470 339 473 366T477 420Q477 452 469 467T438 483ZM498 43Q491 35 479 26T450 8T411 -6T365 -12Q322 -12 289 5T236 65H232Q215 29 185 9T115 -12Q61 -12
31 22T0 112Q0 142 7 171T31 224T75 266T144 291L238 307L251 376Q254 393 255 405T257 428Q257 453 242 469T198 486Q180 486 172 479T160 447Q155 415 143 401T108 386Q88 386 77 397T66 430Q66 452 78 470T110 500T157 518T212 525Q254 525 282 509T323 461Q375
525 444 525Q499 525 529 492T560 381Q560 351 557 322T548 264H317Q314 241 312 219T310 173Q310 137 316 114T334 77T364 58T406 52Q437 52 460 60T505 83L498 43ZM146 45Q172 45 190 66T222 119Q219 140 219 163Q219 204 228 257L183 254Q159 252 143 241T115
211T99 171T94 126Q94 89 106 67T146 45Z" />
<glyph unicode="&#xe7;" glyph-name="ccedilla" d="M161 -212Q231 -202 258 -184T285 -143Q285 -109 217 -103L209 -94L266 -11Q233 -8 205 2Q165 17 137 44T92 111T76 200Q76 279 102 339T172 441T270 503T381 525Q456 525 494 501T533 438Q533 410 517 392T471
374Q445 374 434 389T419 432Q415 463 403 472T360 482Q322 482 291 462T236 407T200 324T187 221Q187 134 227 93T343 52Q384 52 419 63T480 90L473 51Q447 27 401 7Q364 -8 315 -11L270 -59Q318 -64 341 -81T364 -125Q364 -145 351 -165T311 -201T246 -227T156
-239L161 -212Z" />
<glyph unicode="&#xe8;" glyph-name="egrave" d="M331 483Q275 483 233 436T172 312L418 324Q425 353 425 378Q425 429 404 456T331 483ZM478 51Q466 40 447 29T404 9T352 -6T294 -12Q182 -12 119 47T56 215Q56 286 79 343T141 440T231 503T338 525Q374 525 407
514T467 480T509 420T525 332Q525 316 524 302T518 270H165Q162 244 162 218Q162 172 173 141T207 90T262 61T336 52Q387 52 422 64T485 90L478 51ZM532 655Q491 670 491 703Q491 720 502 732T535 744Q550 744 561 738T585 722L721 617L706 593L532 655Z" />
<glyph unicode="&#xe9;" glyph-name="eacute" d="M331 483Q275 483 233 436T172 312L418 324Q425 353 425 378Q425 429 404 456T331 483ZM478 51Q466 40 447 29T404 9T352 -6T294 -12Q182 -12 119 47T56 215Q56 286 79 343T141 440T231 503T338 525Q374 525 407
514T467 480T509 420T525 332Q525 316 524 302T518 270H165Q162 244 162 218Q162 172 173 141T207 90T262 61T336 52Q387 52 422 64T485 90L478 51ZM514 619L650 724Q663 734 674 740T700 746Q721 746 732 734T743 705Q743 672 702 657L529 595L514 619Z" />
<glyph unicode="&#xea;" glyph-name="ecircumflex" d="M331 483Q275 483 233 436T172 312L418 324Q425 353 425 378Q425 429 404 456T331 483ZM478 51Q466 40 447 29T404 9T352 -6T294 -12Q182 -12 119 47T56 215Q56 286 79 343T141 440T231 503T338 525Q374 525
407 514T467 480T509 420T525 332Q525 316 524 302T518 270H165Q162 244 162 218Q162 172 173 141T207 90T262 61T336 52Q387 52 422 64T485 90L478 51ZM763 609L741 586L615 671L459 584L444 610L602 751H653L763 609Z" />
<glyph unicode="&#xeb;" glyph-name="edieresis" d="M331 483Q275 483 233 436T172 312L418 324Q425 353 425 378Q425 429 404 456T331 483ZM478 51Q466 40 447 29T404 9T352 -6T294 -12Q182 -12 119 47T56 215Q56 286 79 343T141 440T231 503T338 525Q374 525
407 514T467 480T509 420T525 332Q525 316 524 302T518 270H165Q162 244 162 218Q162 172 173 141T207 90T262 61T336 52Q387 52 422 64T485 90L478 51ZM515 616Q487 616 469 634T450 678Q450 704 468 723T515 742Q543 742 562 723T581 678Q581 652 562 634T515
616ZM716 616Q688 616 670 634T651 678Q651 704 669 723T716 742Q744 742 763 723T782 678Q782 652 763 634T716 616Z" />
<glyph unicode="&#xec;" glyph-name="igrave" d="M64 30L120 41Q146 46 162 52T187 69T201 95T210 132L247 340Q251 366 252 382T249 410T232 429T197 445L141 466L146 492L376 523L385 517Q380 505 376 488Q372 474 368 453T358 405L310 132Q306 109 305 94T309
69T325 53T357 43L419 30L414 0H59L64 30ZM510 655Q469 670 469 703Q469 720 480 732T513 744Q528 744 539 738T563 722L699 617L684 593L510 655Z" />
<glyph unicode="&#xed;" glyph-name="iacute" d="M64 30L120 41Q146 46 162 52T187 69T201 95T210 132L247 340Q251 366 252 382T249 410T232 429T197 445L141 466L146 492L376 523L385 517Q380 505 376 488Q372 474 368 453T358 405L310 132Q306 109 305 94T309
69T325 53T357 43L419 30L414 0H59L64 30ZM492 619L628 724Q641 734 652 740T678 746Q699 746 710 734T721 705Q721 672 680 657L507 595L492 619Z" />
<glyph unicode="&#xee;" glyph-name="icircumflex" d="M64 30L120 41Q146 46 162 52T187 69T201 95T210 132L247 340Q251 366 252 382T249 410T232 429T197 445L141 466L146 492L376 523L385 517Q380 505 376 488Q372 474 368 453T358 405L310 132Q306 109 305
94T309 69T325 53T357 43L419 30L414 0H59L64 30ZM740 609L718 586L592 671L436 584L421 610L579 751H630L740 609Z" />
<glyph unicode="&#xef;" glyph-name="idieresis" d="M64 30L120 41Q146 46 162 52T187 69T201 95T210 132L247 340Q251 366 252 382T249 410T232 429T197 445L141 466L146 492L376 523L385 517Q380 505 376 488Q372 474 368 453T358 405L310 132Q306 109 305 94T309
69T325 53T357 43L419 30L414 0H59L64 30ZM470 616Q442 616 424 634T405 678Q405 704 423 723T470 742Q498 742 517 723T536 678Q536 652 517 634T470 616ZM671 616Q643 616 625 634T606 678Q606 704 624 723T671 742Q699 742 718 723T737 678Q737 652 718 634T671
616Z" />
<glyph unicode="&#xf0;" glyph-name="eth" d="M251 -13Q206 -13 169 0T104 40T61 104T45 193Q45 254 64 313T120 420T208 496T322 525Q362 525 389 511T434 470Q425 516 401 558T340 640L202 583L193 618L312 667Q265 710 207 745L228 775Q309 740 372 692L486
739L496 704L403 666Q538 544 538 357Q538 279 517 211T457 94T366 16T251 -13ZM257 30Q302 30 333 58T385 132T415 233T429 346Q429 483 321 483Q288 483 262 468T217 427T185 367T165 297T154 223T150 154Q150 85 176 58T257 30Z" />
<glyph unicode="&#xf1;" glyph-name="ntilde" d="M-10 30L26 40Q36 43 42 46T52 54T58 68T63 88L119 403Q124 428 121 437T101 457L69 476L74 502L229 523L238 517L221 452H225Q261 481 308 502T403 524Q460 524 487 500T515 422Q515 410 514 397T510 369L460
93Q457 79 457 70T459 56T465 47T478 41L511 30L506 0H284L289 30L323 40Q333 43 339 46T349 54T355 68T360 88L407 354Q412 382 412 398Q412 432 396 445T343 458Q328 458 311 454T278 444T247 429T221 414L163 93Q158 64 161 55T179 41L213 30L208 0H-15L-10
30ZM425 597Q453 660 477 690T533 721Q551 721 571 715T612 701T649 687T675 680Q693 680 709 695T746 746L778 733Q751 670 726 640T668 609Q651 609 631 615T592 629T555 643T528 650Q510 650 495 634T459 583L425 597Z" />
<glyph unicode="&#xf2;" glyph-name="ograve" d="M258 -13Q221 -13 184 -1T116 38T68 106T49 207Q49 238 55 274Q66 336 93 383T156 461T234 509T320 525Q357 525 394 513T462 476T511 409T530 309Q530 279 524 243Q513 181 486 133T423 53T344 4T258 -13ZM153
172Q153 131 161 104T185 61T220 37T263 30Q320 30 357 80T415 238Q420 269 423 294T426 343Q426 383 418 410T394 453T359 476T315 483Q259 483 222 434T164 278Q159 247 156 221T153 172ZM283 655Q242 670 242 703Q242 720 253 732T286 744Q301 744 312 738T336
722L472 617L457 593L283 655Z" />
<glyph unicode="&#xf3;" glyph-name="oacute" d="M258 -13Q221 -13 184 -1T116 38T68 106T49 207Q49 238 55 274Q66 336 93 383T156 461T234 509T320 525Q357 525 394 513T462 476T511 409T530 309Q530 279 524 243Q513 181 486 133T423 53T344 4T258 -13ZM153
172Q153 131 161 104T185 61T220 37T263 30Q320 30 357 80T415 238Q420 269 423 294T426 343Q426 383 418 410T394 453T359 476T315 483Q259 483 222 434T164 278Q159 247 156 221T153 172ZM506 619L642 724Q655 734 666 740T692 746Q713 746 724 734T735 705Q735
672 694 657L521 595L506 619Z" />
<glyph unicode="&#xf4;" glyph-name="ocircumflex" d="M258 -13Q221 -13 184 -1T116 38T68 106T49 207Q49 238 55 274Q66 336 93 383T156 461T234 509T320 525Q357 525 394 513T462 476T511 409T530 309Q530 279 524 243Q513 181 486 133T423 53T344 4T258 -13ZM153
172Q153 131 161 104T185 61T220 37T263 30Q320 30 357 80T415 238Q420 269 423 294T426 343Q426 383 418 410T394 453T359 476T315 483Q259 483 222 434T164 278Q159 247 156 221T153 172ZM756 609L734 586L608 671L452 584L437 610L595 751H646L756 609Z" />
<glyph unicode="&#xf5;" glyph-name="otilde" d="M258 -13Q221 -13 184 -1T116 38T68 106T49 207Q49 238 55 274Q66 336 93 383T156 461T234 509T320 525Q357 525 394 513T462 476T511 409T530 309Q530 279 524 243Q513 181 486 133T423 53T344 4T258 -13ZM153
172Q153 131 161 104T185 61T220 37T263 30Q320 30 357 80T415 238Q420 269 423 294T426 343Q426 383 418 410T394 453T359 476T315 483Q259 483 222 434T164 278Q159 247 156 221T153 172ZM422 597Q450 660 474 690T530 721Q548 721 568 715T609 701T646 687T672
680Q690 680 706 695T743 746L775 733Q748 670 723 640T665 609Q648 609 628 615T589 629T552 643T525 650Q507 650 492 634T456 583L422 597Z" />
<glyph unicode="&#xf6;" glyph-name="odieresis" d="M258 -13Q221 -13 184 -1T116 38T68 106T49 207Q49 238 55 274Q66 336 93 383T156 461T234 509T320 525Q357 525 394 513T462 476T511 409T530 309Q530 279 524 243Q513 181 486 133T423 53T344 4T258 -13ZM153
172Q153 131 161 104T185 61T220 37T263 30Q320 30 357 80T415 238Q420 269 423 294T426 343Q426 383 418 410T394 453T359 476T315 483Q259 483 222 434T164 278Q159 247 156 221T153 172ZM511 616Q483 616 465 634T446 678Q446 704 464 723T511 742Q539 742 558
723T577 678Q577 652 558 634T511 616ZM712 616Q684 616 666 634T647 678Q647 704 665 723T712 742Q740 742 759 723T778 678Q778 652 759 634T712 616Z" />
<glyph unicode="&#xf7;" glyph-name="divide" d="M331 439Q302 439 283 458T264 505Q264 533 283 552T331 572Q360 572 379 553T399 505Q399 477 380 458T331 439ZM97 366H519L509 310H87L97 366ZM272 103Q243 103 224 122T205 169Q205 197 224 216T272 236Q301
236 320 217T340 169Q340 141 321 122T272 103Z" />
<glyph unicode="&#xf8;" glyph-name="oslash" d="M155 177Q155 144 158 120L406 443Q383 483 319 483Q262 483 224 434T166 278Q161 249 158 224T155 177ZM259 30Q318 30 355 80T413 238Q418 267 421 291T424 338Q424 370 421 394L173 71Q196 30 259 30ZM258 -13Q227
-13 196 -5T136 24L77 -54H25L105 50Q79 77 64 115T49 207Q49 238 55 274Q66 336 93 383T156 461T234 509T320 525Q351 525 382 517T442 490L494 558H546L474 464Q499 438 514 400T530 309Q530 279 524 243Q513 181 486 133T423 53T344 4T258 -13Z" />
<glyph unicode="&#xf9;" glyph-name="ugrave" d="M181 -12Q124 -12 96 14T68 96Q68 107 69 119T73 146L120 413Q123 427 123 435T122 447T115 454T102 461L67 479L72 506L224 523L237 513L176 161Q174 149 173 139T172 119Q172 84 188 69T241 53Q273 53 304 64T361
90L418 413Q420 427 420 435T420 447T413 454T400 461L366 479L371 506L524 523L535 513L465 115Q462 98 462 88T463 72T469 61T482 53L513 36L509 9L354 -12L344 -4L360 56H356Q320 30 277 9T181 -12ZM516 655Q475 670 475 703Q475 720 486 732T519 744Q534 744
545 738T569 722L705 617L690 593L516 655Z" />
<glyph unicode="&#xfa;" glyph-name="uacute" d="M181 -12Q124 -12 96 14T68 96Q68 107 69 119T73 146L120 413Q123 427 123 435T122 447T115 454T102 461L67 479L72 506L224 523L237 513L176 161Q174 149 173 139T172 119Q172 84 188 69T241 53Q273 53 304 64T361
90L418 413Q420 427 420 435T420 447T413 454T400 461L366 479L371 506L524 523L535 513L465 115Q462 98 462 88T463 72T469 61T482 53L513 36L509 9L354 -12L344 -4L360 56H356Q320 30 277 9T181 -12ZM265 619L401 724Q414 734 425 740T451 746Q472 746 483 734T494
705Q494 672 453 657L280 595L265 619Z" />
<glyph unicode="&#xfb;" glyph-name="ucircumflex" d="M181 -12Q124 -12 96 14T68 96Q68 107 69 119T73 146L120 413Q123 427 123 435T122 447T115 454T102 461L67 479L72 506L224 523L237 513L176 161Q174 149 173 139T172 119Q172 84 188 69T241 53Q273 53 304
64T361 90L418 413Q420 427 420 435T420 447T413 454T400 461L366 479L371 506L524 523L535 513L465 115Q462 98 462 88T463 72T469 61T482 53L513 36L509 9L354 -12L344 -4L360 56H356Q320 30 277 9T181 -12ZM511 609L489 586L363 671L207 584L192 610L350 751H401L511
609Z" />
<glyph unicode="&#xfc;" glyph-name="udieresis" d="M181 -12Q124 -12 96 14T68 96Q68 107 69 119T73 146L120 413Q123 427 123 435T122 447T115 454T102 461L67 479L72 506L224 523L237 513L176 161Q174 149 173 139T172 119Q172 84 188 69T241 53Q273 53 304
64T361 90L418 413Q420 427 420 435T420 447T413 454T400 461L366 479L371 506L524 523L535 513L465 115Q462 98 462 88T463 72T469 61T482 53L513 36L509 9L354 -12L344 -4L360 56H356Q320 30 277 9T181 -12ZM263 616Q235 616 217 634T198 678Q198 704 216 723T263
742Q291 742 310 723T329 678Q329 652 310 634T263 616ZM464 616Q436 616 418 634T399 678Q399 704 417 723T464 742Q492 742 511 723T530 678Q530 652 511 634T464 616Z" />
<glyph unicode="&#xfd;" glyph-name="yacute" d="M50 -226Q6 -226 -14 -208T-34 -163Q-34 -135 -19 -119T22 -103Q45 -103 57 -115T72 -147Q74 -158 77 -162T89 -166Q106 -166 126 -140T179 -61L217 0L131 405Q127 425 124 436T117 455T107 465T92 472L70 480L75
509H298L293 480L264 473Q242 468 235 459T228 437Q228 426 230 416T235 389L287 121H291L435 382Q449 407 454 421T460 448Q460 457 456 463T438 473L412 480L417 509H600L595 480L565 472Q555 469 549 466T536 454T521 431T500 395L234 -59Q213 -95 193 -125T151
-178T105 -213T50 -226ZM299 619L435 724Q448 734 459 740T485 746Q506 746 517 734T528 705Q528 672 487 657L314 595L299 619Z" />
<glyph unicode="&#xfe;" glyph-name="thorn" d="M247 33Q291 33 325 56T383 117T419 207T431 314Q431 461 318 461Q286 461 260 449T211 424L149 73Q165 55 190 44T247 33ZM170 -219H-67L-62 -190L-23 -179Q-14 -176 -8 -174T1 -166T7 -152T13 -127L149 648Q154
673 150 683T132 701L95 721L100 749L267 765L275 757Q271 745 267 727Q263 712 258 691T248 640L231 545Q228 528 225 513T218 486Q214 473 212 461H216Q252 486 292 505T375 524Q408 524 437 513T488 479T523 421T536 337Q536 263 514 199T453 88T359 15T238
-12Q211 -12 185 -8T133 4Q132 -4 130 -22T124 -63L113 -127Q108 -157 112 -166T132 -180L175 -190L170 -219Z" />
<glyph unicode="&#xff;" glyph-name="ydieresis" d="M50 -226Q6 -226 -14 -208T-34 -163Q-34 -135 -19 -119T22 -103Q45 -103 57 -115T72 -147Q74 -158 77 -162T89 -166Q106 -166 126 -140T179 -61L217 0L131 405Q127 425 124 436T117 455T107 465T92 472L70 480L75
509H298L293 480L264 473Q242 468 235 459T228 437Q228 426 230 416T235 389L287 121H291L435 382Q449 407 454 421T460 448Q460 457 456 463T438 473L412 480L417 509H600L595 480L565 472Q555 469 549 466T536 454T521 431T500 395L234 -59Q213 -95 193 -125T151
-178T105 -213T50 -226ZM287 616Q259 616 241 634T222 678Q222 704 240 723T287 742Q315 742 334 723T353 678Q353 652 334 634T287 616ZM488 616Q460 616 442 634T423 678Q423 704 441 723T488 742Q516 742 535 723T554 678Q554 652 535 634T488 616Z" />
<glyph unicode="&#x100;" glyph-name="Amacron" d="M186 278H343L310 532H306L186 278ZM140 0H-34L-29 31L-13 36Q-3 39 4 43T20 56T38 82T62 128L334 693H394L473 117Q476 94 479 80T488 58T499 45T514 36L525 31L520 0H300L305 31L331 38Q351 43 358 52T366
82Q366 93 365 105T361 134L348 233H165L114 126Q103 103 98 88T93 64Q93 52 99 47T120 38L145 31L140 0ZM256 842H529L518 777H245L256 842Z" />
<glyph unicode="&#x101;" glyph-name="amacron" d="M33 110Q33 140 42 163T75 206T138 242T238 271L368 300L377 346Q380 363 382 376T384 402Q384 447 360 466T288 486Q272 486 263 484T247 476T237 461T229 439Q221 413 206 397T162 380Q138 380 125 390T111
422Q111 448 127 467T171 499T235 518T313 525Q391 525 436 495T482 401Q482 389 480 375T475 344L436 123Q433 108 432 101T431 85Q431 62 449 52T506 39L501 11Q488 3 464 -4T414 -12Q378 -12 356 4T329 55H324Q300 26 262 8T176 -11Q110 -11 72 22T33 110ZM222
42Q253 42 284 60T333 102L360 248L273 238Q233 233 207 222T166 195T144 158T138 116Q138 84 159 63T222 42ZM468 693H741L730 628H457L468 693Z" />
<glyph unicode="&#x102;" glyph-name="Abreve" d="M186 278H343L310 532H306L186 278ZM140 0H-34L-29 31L-13 36Q-3 39 4 43T20 56T38 82T62 128L334 693H394L473 117Q476 94 479 80T488 58T499 45T514 36L525 31L520 0H300L305 31L331 38Q351 43 358 52T366 82Q366
93 365 105T361 134L348 233H165L114 126Q103 103 98 88T93 64Q93 52 99 47T120 38L145 31L140 0ZM513 887L542 893Q548 860 575 843T642 826Q683 826 712 846T756 893L784 883Q778 859 763 836T728 795T683 766T631 755Q581 755 547 787T513 875V887Z" />
<glyph unicode="&#x103;" glyph-name="abreve" d="M33 110Q33 140 42 163T75 206T138 242T238 271L368 300L377 346Q380 363 382 376T384 402Q384 447 360 466T288 486Q272 486 263 484T247 476T237 461T229 439Q221 413 206 397T162 380Q138 380 125 390T111
422Q111 448 127 467T171 499T235 518T313 525Q391 525 436 495T482 401Q482 389 480 375T475 344L436 123Q433 108 432 101T431 85Q431 62 449 52T506 39L501 11Q488 3 464 -4T414 -12Q378 -12 356 4T329 55H324Q300 26 262 8T176 -11Q110 -11 72 22T33 110ZM222
42Q253 42 284 60T333 102L360 248L273 238Q233 233 207 222T166 195T144 158T138 116Q138 84 159 63T222 42ZM471 722Q471 727 471 731T472 742L501 748Q506 706 531 685T598 664Q618 664 636 671T670 690T696 717T715 749L743 739Q736 710 721 684T686 637T640
606T588 594Q540 594 506 626T471 722Z" />
<glyph unicode="&#x104;" glyph-name="Aogonek" d="M311 -223Q273 -223 248 -204T223 -147Q223 -99 265 -61T377 18L349 233H164L113 126Q103 106 99 94T93 72Q91 56 96 50T119 38L144 31L139 0H-35L-30 31L-14 36Q-4 39 4 43T20 56T37 82T61 128L333 693H393L472
117Q475 91 479 77T489 54T500 43T513 36L524 31L519 0H477Q443 0 413 -11T361 -41T325 -83T312 -131Q312 -154 327 -162T370 -171H398L393 -199Q381 -207 361 -215T311 -223ZM185 278H343L309 532H305L185 278Z" />
<glyph unicode="&#x105;" glyph-name="aogonek" d="M353 -223Q315 -223 290 -204T265 -147Q265 -125 276 -105T305 -68T347 -37T394 -11Q366 -7 349 9T328 55H323Q299 26 261 8T175 -11Q109 -11 71 22T32 110Q32 140 41 163T74 206T137 242T237 271L367 300L376
346Q379 363 381 376T383 402Q383 447 359 466T287 486Q271 486 262 484T246 476T236 461T228 439Q220 413 205 397T161 380Q137 380 124 390T110 422Q110 448 126 467T170 499T234 518T312 525Q390 525 435 495T481 401Q481 389 479 375T474 344L435 123Q432 108
431 101T430 85Q430 62 446 52T497 39L492 11Q464 -1 439 -18T395 -54T365 -93T354 -131Q354 -154 369 -162T412 -171H440L435 -199Q423 -207 403 -215T353 -223ZM221 42Q252 42 283 60T332 102L359 248L272 238Q232 233 206 222T165 195T143 158T137 116Q137 84
158 63T221 42Z" />
<glyph unicode="&#x106;" glyph-name="Cacute" d="M392 659Q333 659 291 623T223 525T184 386T171 224Q171 133 205 84T315 34Q354 34 374 46T417 86Q428 100 437 112T453 137T469 165T487 199H516L479 20Q450 7 407 -2T314 -12Q194 -12 126 57T58 260Q58 346
80 426T145 569T254 668T404 706Q449 706 490 698T559 680L552 471H521Q507 528 497 557T479 604Q473 617 467 627T451 644T427 655T392 659ZM302 772L437 878Q450 888 461 894T487 900Q508 900 520 887T532 857Q532 824 491 809L317 748L302 772Z" />
<glyph unicode="&#x107;" glyph-name="cacute" d="M308 619L444 724Q457 734 468 740T494 746Q515 746 526 734T537 705Q537 672 496 657L323 595L308 619ZM294 -12Q245 -12 205 2T137 44T92 111T76 200Q76 279 102 339T172 441T270 503T381 525Q456 525 494 501T533
438Q533 410 517 392T471 374Q445 374 434 389T419 432Q415 463 403 472T360 482Q322 482 291 462T236 407T200 324T187 221Q187 134 227 93T343 52Q384 52 419 63T480 90L473 51Q447 27 402 8T294 -12Z" />
<glyph unicode="&#x108;" glyph-name="Ccircumflex" d="M392 659Q333 659 291 623T223 525T184 386T171 224Q171 133 205 84T315 34Q354 34 374 46T417 86Q428 100 437 112T453 137T469 165T487 199H516L479 20Q450 7 407 -2T314 -12Q194 -12 126 57T58 260Q58
346 80 426T145 569T254 668T404 706Q449 706 490 698T559 680L552 471H521Q507 528 497 557T479 604Q473 617 467 627T451 644T427 655T392 659ZM582 770L562 747L433 816L280 745L265 771L420 897H471L582 770Z" />
<glyph unicode="&#x109;" glyph-name="ccircumflex" d="M294 -12Q245 -12 205 2T137 44T92 111T76 200Q76 279 102 339T172 441T270 503T381 525Q456 525 494 501T533 438Q533 410 517 392T471 374Q445 374 434 389T419 432Q415 463 403 472T360 482Q322 482 291
462T236 407T200 324T187 221Q187 134 227 93T343 52Q384 52 419 63T480 90L473 51Q447 27 402 8T294 -12ZM550 609L528 586L402 671L246 584L231 610L389 751H440L550 609Z" />
<glyph unicode="&#x10a;" glyph-name="Cdotaccent" d="M392 659Q333 659 291 623T223 525T184 386T171 224Q171 133 205 84T315 34Q354 34 374 46T417 86Q428 100 437 112T453 137T469 165T487 199H516L479 20Q450 7 407 -2T314 -12Q194 -12 126 57T58 260Q58
346 80 426T145 569T254 668T404 706Q449 706 490 698T559 680L552 471H521Q507 528 497 557T479 604Q473 617 467 627T451 644T427 655T392 659ZM417 750Q388 750 369 769T350 814Q350 841 369 860T417 880Q446 880 465 861T485 814Q485 788 466 769T417 750Z"
/>
<glyph unicode="&#x10b;" glyph-name="cdotaccent" d="M397 614Q368 614 349 633T330 678Q330 705 349 724T397 744Q426 744 445 725T465 678Q465 652 446 633T397 614ZM294 -12Q245 -12 205 2T137 44T92 111T76 200Q76 279 102 339T172 441T270 503T381 525Q456
525 494 501T533 438Q533 410 517 392T471 374Q445 374 434 389T419 432Q415 463 403 472T360 482Q322 482 291 462T236 407T200 324T187 221Q187 134 227 93T343 52Q384 52 419 63T480 90L473 51Q447 27 402 8T294 -12Z" />
<glyph unicode="&#x10c;" glyph-name="Ccaron" d="M392 659Q333 659 291 623T223 525T184 386T171 224Q171 133 205 84T315 34Q354 34 374 46T417 86Q428 100 437 112T453 137T469 165T487 199H516L479 20Q450 7 407 -2T314 -12Q194 -12 126 57T58 260Q58 346
80 426T145 569T254 668T404 706Q449 706 490 698T559 680L552 471H521Q507 528 497 557T479 604Q473 617 467 627T451 644T427 655T392 659ZM271 886L291 909L419 839L573 909L588 883L432 758H381L271 886Z" />
<glyph unicode="&#x10d;" glyph-name="ccaron" d="M239 740L261 763L386 678L543 763L558 737L399 598H348L239 740ZM294 -12Q245 -12 205 2T137 44T92 111T76 200Q76 279 102 339T172 441T270 503T381 525Q456 525 494 501T533 438Q533 410 517 392T471 374Q445
374 434 389T419 432Q415 463 403 472T360 482Q322 482 291 462T236 407T200 324T187 221Q187 134 227 93T343 52Q384 52 419 63T480 90L473 51Q447 27 402 8T294 -12Z" />
<glyph unicode="&#x10e;" glyph-name="Dcaron" d="M-18 31L3 36Q16 39 24 42T38 53T46 71T53 100L140 595Q146 630 141 641T113 658L94 663L99 693H318Q439 693 506 634T573 447Q573 422 570 395T562 337Q547 250 515 187T439 82T339 20T222 0H-23L-18 31ZM168
139Q163 109 163 90T170 61T193 47T236 43Q284 43 318 64T378 123T420 213T448 327Q464 413 464 478Q464 528 453 561T421 614T373 642T312 651Q280 651 256 642L168 139ZM462 886L482 909L610 839L764 909L779 883L623 758H572L462 886Z" />
<glyph unicode="&#x10f;" glyph-name="dcaron" d="M34 175Q34 249 54 313T112 424T201 497T316 524Q340 524 363 520T409 509Q409 521 411 534Q413 545 415 559T420 588L430 648Q432 662 432 670T430 684T423 693T410 702L376 721L381 749L547 765L555 757Q551
745 547 727Q543 712 539 691T529 640L436 115Q430 83 435 71T461 50L499 36L495 9L322 -12L316 -6L331 51H327Q292 27 256 8T179 -12Q149 -12 123 -1T77 33T46 91T34 175ZM236 56Q265 56 288 66T332 89L394 439Q379 456 358 468T307 480Q267 480 236 457T184 395T151
305T140 198Q140 125 164 91T236 56ZM568 573L603 721Q608 741 618 753T648 765Q665 765 677 755T690 730Q690 713 676 692L592 565L568 573Z" />
<glyph unicode="&#x110;" glyph-name="Dcroat" d="M31 372H345L337 329H23L31 372ZM-18 31L3 36Q16 39 24 42T38 53T46 71T53 100L140 595Q146 630 141 641T113 658L94 663L99 693H318Q439 693 506 634T573 447Q573 422 570 395T562 337Q547 250 515 187T439 82T339
20T222 0H-23L-18 31ZM168 139Q163 109 163 90T170 61T193 47T236 43Q284 43 318 64T378 123T420 213T448 327Q464 413 464 478Q464 528 453 561T421 614T373 642T312 651Q280 651 256 642L168 139Z" />
<glyph unicode="&#x111;" glyph-name="dcroat" d="M298 639H646L638 598H290L298 639ZM38 175Q38 249 60 313T121 424T215 497T336 524Q362 524 388 520T439 509Q439 521 441 534Q443 545 445 559T450 588L460 648Q462 662 462 670T460 684T453 693T440 702L406
721L411 749L577 765L585 757Q581 745 577 727Q573 712 569 691T559 640L466 115Q463 98 463 88T464 72T470 61T483 53L514 36L510 9L352 -12L346 -6L361 51H357Q321 26 282 7T199 -12Q166 -12 137 -1T86 33T51 91T38 175ZM256 56Q288 56 314 66T362 89L424 439Q408
457 384 468T327 480Q283 480 249 457T191 395T155 305T143 198Q143 125 171 91T256 56Z" />
<glyph unicode="&#x112;" glyph-name="Emacron" d="M-1 31L37 40Q47 42 53 45T63 54T71 71T77 100L164 594Q170 629 165 639T141 655L111 663L116 693H552L549 516H516Q508 554 501 576T485 612Q479 621 474 628T458 639T431 646T383 649Q341 649 320 647T281
640L236 383H270Q295 383 313 384T343 388T365 397T380 414Q391 431 398 445T415 483H447L404 237H372Q370 260 368 273T361 304Q358 314 353 320T337 331T307 336T261 337H228L195 152Q188 114 188 93T198 60T230 47T291 44Q321 44 339 45T371 50T394 62T417 85Q428
98 448 132T490 209H523L473 0H-6L-1 31ZM491 842H764L753 777H480L491 842Z" />
<glyph unicode="&#x113;" glyph-name="emacron" d="M331 483Q275 483 233 436T172 312L418 324Q425 353 425 378Q425 429 404 456T331 483ZM478 51Q466 40 447 29T404 9T352 -6T294 -12Q182 -12 119 47T56 215Q56 286 79 343T141 440T231 503T338 525Q374 525
407 514T467 480T509 420T525 332Q525 316 524 302T518 270H165Q162 244 162 218Q162 172 173 141T207 90T262 61T336 52Q387 52 422 64T485 90L478 51ZM229 693H502L491 628H218L229 693Z" />
<glyph unicode="&#x114;" glyph-name="Ebreve" d="M-1 31L37 40Q47 42 53 45T63 54T71 71T77 100L164 594Q170 629 165 639T141 655L111 663L116 693H552L549 516H516Q508 554 501 576T485 612Q479 621 474 628T458 639T431 646T383 649Q341 649 320 647T281 640L236
383H270Q295 383 313 384T343 388T365 397T380 414Q391 431 398 445T415 483H447L404 237H372Q370 260 368 273T361 304Q358 314 353 320T337 331T307 336T261 337H228L195 152Q188 114 188 93T198 60T230 47T291 44Q321 44 339 45T371 50T394 62T417 85Q428 98
448 132T490 209H523L473 0H-6L-1 31ZM264 887L293 893Q299 860 326 843T393 826Q434 826 463 846T507 893L535 883Q529 859 514 836T479 795T434 766T382 755Q332 755 298 787T264 875V887Z" />
<glyph unicode="&#x115;" glyph-name="ebreve" d="M331 483Q275 483 233 436T172 312L418 324Q425 353 425 378Q425 429 404 456T331 483ZM478 51Q466 40 447 29T404 9T352 -6T294 -12Q182 -12 119 47T56 215Q56 286 79 343T141 440T231 503T338 525Q374 525 407
514T467 480T509 420T525 332Q525 316 524 302T518 270H165Q162 244 162 218Q162 172 173 141T207 90T262 61T336 52Q387 52 422 64T485 90L478 51ZM250 722Q250 727 250 731T251 742L280 748Q285 706 310 685T377 664Q397 664 415 671T449 690T475 717T494 749L522
739Q515 710 500 684T465 637T419 606T367 594Q319 594 285 626T250 722Z" />
<glyph unicode="&#x116;" glyph-name="Edotaccent" d="M-1 31L37 40Q47 42 53 45T63 54T71 71T77 100L164 594Q170 629 165 639T141 655L111 663L116 693H552L549 516H516Q508 554 501 576T485 612Q479 621 474 628T458 639T431 646T383 649Q341 649 320 647T281
640L236 383H270Q295 383 313 384T343 388T365 397T380 414Q391 431 398 445T415 483H447L404 237H372Q370 260 368 273T361 304Q358 314 353 320T337 331T307 336T261 337H228L195 152Q188 114 188 93T198 60T230 47T291 44Q321 44 339 45T371 50T394 62T417 85Q428
98 448 132T490 209H523L473 0H-6L-1 31ZM624 750Q595 750 576 769T557 814Q557 841 576 860T624 880Q653 880 672 861T692 814Q692 788 673 769T624 750Z" />
<glyph unicode="&#x117;" glyph-name="edotaccent" d="M362 614Q333 614 314 633T295 678Q295 705 314 724T362 744Q391 744 410 725T430 678Q430 652 411 633T362 614ZM331 483Q275 483 233 436T172 312L418 324Q425 353 425 378Q425 429 404 456T331 483ZM478
51Q466 40 447 29T404 9T352 -6T294 -12Q182 -12 119 47T56 215Q56 286 79 343T141 440T231 503T338 525Q374 525 407 514T467 480T509 420T525 332Q525 316 524 302T518 270H165Q162 244 162 218Q162 172 173 141T207 90T262 61T336 52Q387 52 422 64T485 90L478
51Z" />
<glyph unicode="&#x118;" glyph-name="Eogonek" d="M232 -147Q232 -121 244 -99T275 -59T317 -24Q337 -11 356 0H-6L-1 31L37 40Q47 42 53 45T63 54T71 71T77 100L164 594Q170 629 165 639T141 655L111 663L116 693H552L549 516H516Q508 554 501 576T485 612Q479
621 474 628T458 639T431 646T383 649Q341 649 320 647T281 640L236 383H270Q295 383 313 384T343 388T365 397T380 414Q391 431 398 445T415 483H447L404 237H372Q370 260 368 273T361 304Q358 314 353 320T337 331T307 336T261 337H228L195 152Q188 114 188 93T198
60T230 47T291 44Q321 44 339 45T371 50T394 62T417 85Q428 98 448 132T490 209H523L473 0H406Q368 -31 345 -65T321 -131Q321 -154 336 -162T379 -171H407L402 -199Q390 -207 370 -215T320 -223Q282 -223 257 -204T232 -147Z" />
<glyph unicode="&#x119;" glyph-name="eogonek" d="M331 483Q275 483 233 436T172 312L418 324Q425 353 425 378Q425 429 404 456T331 483ZM346 -199Q332 -207 312 -215T259 -223Q217 -223 194 -201T177 -139Q184 -102 215 -70T291 -10H287Q178 -10 117 48T56
215Q56 286 79 343T141 440T231 503T338 525Q374 525 407 514T467 480T509 420T525 332Q525 316 524 302T518 270H165Q162 244 162 218Q162 172 173 141T207 90T262 61T336 52Q387 52 422 64T485 90L478 51Q445 31 414 18T353 -11Q323 -28 300 -56T270 -119Q266
-139 270 -151T292 -168Q303 -170 317 -171T351 -171L346 -199Z" />
<glyph unicode="&#x11a;" glyph-name="Ecaron" d="M-1 31L37 40Q47 42 53 45T63 54T71 71T77 100L164 594Q170 629 165 639T141 655L111 663L116 693H552L549 516H516Q508 554 501 576T485 612Q479 621 474 628T458 639T431 646T383 649Q341 649 320 647T281 640L236
383H270Q295 383 313 384T343 388T365 397T380 414Q391 431 398 445T415 483H447L404 237H372Q370 260 368 273T361 304Q358 314 353 320T337 331T307 336T261 337H228L195 152Q188 114 188 93T198 60T230 47T291 44Q321 44 339 45T371 50T394 62T417 85Q428 98
448 132T490 209H523L473 0H-6L-1 31ZM480 886L500 909L628 839L782 909L797 883L641 758H590L480 886Z" />
<glyph unicode="&#x11b;" glyph-name="ecaron" d="M331 483Q275 483 233 436T172 312L418 324Q425 353 425 378Q425 429 404 456T331 483ZM478 51Q466 40 447 29T404 9T352 -6T294 -12Q182 -12 119 47T56 215Q56 286 79 343T141 440T231 503T338 525Q374 525 407
514T467 480T509 420T525 332Q525 316 524 302T518 270H165Q162 244 162 218Q162 172 173 141T207 90T262 61T336 52Q387 52 422 64T485 90L478 51ZM464 740L486 763L611 678L768 763L783 737L624 598H573L464 740Z" />
<glyph unicode="&#x11c;" glyph-name="Gcircumflex" d="M41 262Q41 351 64 431T131 573T238 670T379 706Q407 706 430 704T471 697T506 689T536 680L533 478H500Q486 529 477 557T458 602Q452 613 446 623T430 640T406 652T367 657Q310 657 270 620T204 522T166
384T154 224Q154 172 163 137T190 79T232 47T287 37Q316 37 337 42T375 59L399 198Q405 231 400 242T376 258L344 267L350 298H566L560 267L550 263Q538 258 531 254T520 244T512 227T506 198L475 20Q442 9 393 -1T290 -12Q240 -12 195 3T116 51T61 136T41 262ZM556
770L536 747L407 816L254 745L239 771L394 897H445L556 770Z" />
<glyph unicode="&#x11d;" glyph-name="gcircumflex" d="M274 231Q302 231 322 243T355 278T374 329T380 391Q380 444 354 463T289 483Q238 483 210 439T182 320Q182 293 189 276T208 249T237 235T274 231ZM196 -221Q85 -221 27 -186T-32 -99Q-32 -56 4 -26T104
22L105 26Q82 37 65 53T47 98Q47 118 55 136T78 171T109 201T145 224V228Q119 242 101 273T82 346Q82 384 98 416T142 472T209 509T293 523Q321 523 351 516T411 495Q440 522 472 540T539 558Q565 558 579 546T593 514Q593 491 579 476T543 460Q510 460 502 495Q501
499 496 499Q482 499 465 492T431 470V467Q481 434 481 371Q481 327 464 294T417 237T349 202T269 190Q246 190 223 195T178 211Q169 208 161 200T147 183T136 163T132 145Q132 125 144 114T188 103H331Q400 103 436 74T472 -16Q472 -54 455 -90T403 -156T316 -203T196
-221ZM207 -181Q248 -181 282 -172T340 -146T378 -108T392 -63Q392 -24 373 -6T304 12H162Q145 7 127 -2T95 -25T71 -56T62 -93Q62 -116 73 -133T105 -160T151 -176T207 -181ZM511 609L489 586L363 671L207 584L192 610L350 751H401L511 609Z" />
<glyph unicode="&#x11e;" glyph-name="Gbreve" d="M41 262Q41 351 64 431T131 573T238 670T379 706Q407 706 430 704T471 697T506 689T536 680L533 478H500Q486 529 477 557T458 602Q452 613 446 623T430 640T406 652T367 657Q310 657 270 620T204 522T166 384T154
224Q154 172 163 137T190 79T232 47T287 37Q316 37 337 42T375 59L399 198Q405 231 400 242T376 258L344 267L350 298H566L560 267L550 263Q538 258 531 254T520 244T512 227T506 198L475 20Q442 9 393 -1T290 -12Q240 -12 195 3T116 51T61 136T41 262ZM276 887L305
893Q311 860 338 843T405 826Q446 826 475 846T519 893L547 883Q541 859 526 836T491 795T446 766T394 755Q344 755 310 787T276 875V887Z" />
<glyph unicode="&#x11f;" glyph-name="gbreve" d="M274 231Q302 231 322 243T355 278T374 329T380 391Q380 444 354 463T289 483Q238 483 210 439T182 320Q182 293 189 276T208 249T237 235T274 231ZM196 -221Q85 -221 27 -186T-32 -99Q-32 -56 4 -26T104 22L105
26Q82 37 65 53T47 98Q47 118 55 136T78 171T109 201T145 224V228Q119 242 101 273T82 346Q82 384 98 416T142 472T209 509T293 523Q321 523 351 516T411 495Q440 522 472 540T539 558Q565 558 579 546T593 514Q593 491 579 476T543 460Q510 460 502 495Q501 499
496 499Q482 499 465 492T431 470V467Q481 434 481 371Q481 327 464 294T417 237T349 202T269 190Q246 190 223 195T178 211Q169 208 161 200T147 183T136 163T132 145Q132 125 144 114T188 103H331Q400 103 436 74T472 -16Q472 -54 455 -90T403 -156T316 -203T196
-221ZM207 -181Q248 -181 282 -172T340 -146T378 -108T392 -63Q392 -24 373 -6T304 12H162Q145 7 127 -2T95 -25T71 -56T62 -93Q62 -116 73 -133T105 -160T151 -176T207 -181ZM486 722Q486 727 486 731T487 742L516 748Q521 706 546 685T613 664Q633 664 651 671T685
690T711 717T730 749L758 739Q751 710 736 684T701 637T655 606T603 594Q555 594 521 626T486 722Z" />
<glyph unicode="&#x120;" glyph-name="Gdotaccent" d="M393 750Q364 750 345 769T326 814Q326 841 345 860T393 880Q422 880 441 861T461 814Q461 788 442 769T393 750ZM41 262Q41 351 64 431T131 573T238 670T379 706Q407 706 430 704T471 697T506 689T536 680L533
478H500Q486 529 477 557T458 602Q452 613 446 623T430 640T406 652T367 657Q310 657 270 620T204 522T166 384T154 224Q154 172 163 137T190 79T232 47T287 37Q316 37 337 42T375 59L399 198Q405 231 400 242T376 258L344 267L350 298H566L560 267L550 263Q538
258 531 254T520 244T512 227T506 198L475 20Q442 9 393 -1T290 -12Q240 -12 195 3T116 51T61 136T41 262Z" />
<glyph unicode="&#x121;" glyph-name="gdotaccent" d="M274 231Q302 231 322 243T355 278T374 329T380 391Q380 444 354 463T289 483Q238 483 210 439T182 320Q182 293 189 276T208 249T237 235T274 231ZM196 -221Q85 -221 27 -186T-32 -99Q-32 -56 4 -26T104
22L105 26Q82 37 65 53T47 98Q47 118 55 136T78 171T109 201T145 224V228Q119 242 101 273T82 346Q82 384 98 416T142 472T209 509T293 523Q321 523 351 516T411 495Q440 522 472 540T539 558Q565 558 579 546T593 514Q593 491 579 476T543 460Q510 460 502 495Q501
499 496 499Q482 499 465 492T431 470V467Q481 434 481 371Q481 327 464 294T417 237T349 202T269 190Q246 190 223 195T178 211Q169 208 161 200T147 183T136 163T132 145Q132 125 144 114T188 103H331Q400 103 436 74T472 -16Q472 -54 455 -90T403 -156T316 -203T196
-221ZM207 -181Q248 -181 282 -172T340 -146T378 -108T392 -63Q392 -24 373 -6T304 12H162Q145 7 127 -2T95 -25T71 -56T62 -93Q62 -116 73 -133T105 -160T151 -176T207 -181ZM589 614Q560 614 541 633T522 678Q522 705 541 724T589 744Q618 744 637 725T657 678Q657
652 638 633T589 614Z" />
<glyph unicode="&#x122;" glyph-name="uni0122" d="M41 262Q41 351 64 431T131 573T238 670T379 706Q407 706 430 704T471 697T506 689T536 680L533 478H500Q486 529 477 557T458 602Q452 613 446 623T430 640T406 652T367 657Q310 657 270 620T204 522T166 384T154
224Q154 172 163 137T190 79T232 47T287 37Q316 37 337 42T375 59L399 198Q405 231 400 242T376 258L344 267L350 298H566L560 267L550 263Q538 258 531 254T520 244T512 227T506 198L475 20Q442 9 393 -1T290 -12Q240 -12 195 3T116 51T61 136T41 262ZM188 -129Q188
-103 208 -85T259 -67Q289 -67 309 -87T329 -140Q329 -168 317 -193T282 -237T228 -270T158 -286L150 -259Q205 -245 229 -223T259 -169Q256 -171 249 -173T234 -175Q214 -175 201 -163T188 -129Z" />
<glyph unicode="&#x123;" glyph-name="uni0123" d="M274 231Q302 231 322 243T355 278T374 329T380 391Q380 444 354 463T289 483Q238 483 210 439T182 320Q182 293 189 276T208 249T237 235T274 231ZM196 -221Q85 -221 27 -186T-32 -99Q-32 -56 4 -26T104 22L105
26Q82 37 65 53T47 98Q47 118 55 136T78 171T109 201T145 224V228Q119 242 101 273T82 346Q82 384 98 416T142 472T209 509T293 523Q321 523 351 516T411 495Q440 522 472 540T539 558Q565 558 579 546T593 514Q593 491 579 476T543 460Q510 460 502 495Q501 499
496 499Q482 499 465 492T431 470V467Q481 434 481 371Q481 327 464 294T417 237T349 202T269 190Q246 190 223 195T178 211Q169 208 161 200T147 183T136 163T132 145Q132 125 144 114T188 103H331Q400 103 436 74T472 -16Q472 -54 455 -90T403 -156T316 -203T196
-221ZM207 -181Q248 -181 282 -172T340 -146T378 -108T392 -63Q392 -24 373 -6T304 12H162Q145 7 127 -2T95 -25T71 -56T62 -93Q62 -116 73 -133T105 -160T151 -176T207 -181ZM679 668Q679 642 659 624T608 606Q578 606 558 626T538 679Q538 707 550 732T585 776T639
809T709 825L717 798Q662 784 638 762T608 708Q611 710 618 712T633 714Q653 714 666 702T679 668Z" />
<glyph unicode="&#x124;" glyph-name="Hcircumflex" d="M-19 31L5 37Q18 40 26 43T40 53T48 71T54 100L141 595Q147 628 142 639T114 657L93 663L98 693H327L322 663L298 656Q284 652 276 648T263 638T255 622T249 594L210 376H409L448 594Q451 610 451 620T449
637T440 648T422 656L400 663L405 693H634L629 663L605 656Q591 652 583 648T570 638T562 622T556 594L469 100Q466 83 466 73T468 57T477 46T496 38L517 31L512 0H283L288 31L313 38Q326 42 334 45T347 55T355 72T361 101L401 330H202L162 100Q159 83 159 73T161
57T170 46T189 38L210 31L205 0H-24L-19 31ZM538 770L518 747L389 816L236 745L221 771L376 897H427L538 770Z" />
<glyph unicode="&#x125;" glyph-name="hcircumflex" d="M160 648Q163 662 163 670T161 684T153 693T140 702L105 721L110 749L277 765L285 757Q280 742 276 724Q272 708 268 687T258 640L239 539Q236 522 232 507T225 479Q221 465 218 452H222Q259 481 307 502T403
524Q461 524 489 500T518 421Q518 410 517 397T513 369L463 93Q460 79 460 70T462 56T468 47T481 41L514 30L509 0H287L292 30L326 40Q336 43 342 46T352 54T358 68T363 88L410 354Q412 367 413 377T415 398Q415 432 398 445T343 458Q311 458 276 443T218 414L161
93Q156 64 159 55T177 41L211 30L206 0H-17L-12 30L24 40Q34 43 40 46T50 54T56 68T61 88L160 648ZM538 840L518 817L389 886L236 815L221 841L376 967H427L538 840Z" />
<glyph unicode="&#x126;" glyph-name="Hbar" d="M63 538H615L607 493H55L63 538ZM-19 31L5 37Q18 40 26 43T40 53T48 71T54 100L141 595Q147 628 142 639T114 657L93 663L98 693H327L322 663L298 656Q284 652 276 648T263 638T255 622T249 594L210 376H409L448
594Q451 610 451 620T449 637T440 648T422 656L400 663L405 693H634L629 663L605 656Q591 652 583 648T570 638T562 622T556 594L469 100Q466 83 466 73T468 57T477 46T496 38L517 31L512 0H283L288 31L313 38Q326 42 334 45T347 55T355 72T361 101L401 330H202L162
100Q159 83 159 73T161 57T170 46T189 38L210 31L205 0H-24L-19 31Z" />
<glyph unicode="&#x127;" glyph-name="hbar" d="M77 639H425L417 598H69L77 639ZM160 648Q163 662 163 670T161 684T153 693T140 702L105 721L110 749L277 765L285 757Q280 742 276 724Q272 708 268 687T258 640L239 539Q236 522 232 507T225 479Q221 465 218
452H222Q259 481 307 502T403 524Q461 524 489 500T518 421Q518 410 517 397T513 369L463 93Q460 79 460 70T462 56T468 47T481 41L514 30L509 0H287L292 30L326 40Q336 43 342 46T352 54T358 68T363 88L410 354Q412 367 413 377T415 398Q415 432 398 445T343 458Q311
458 276 443T218 414L161 93Q156 64 159 55T177 41L211 30L206 0H-17L-12 30L24 40Q34 43 40 46T50 54T56 68T61 88L160 648Z" />
<glyph unicode="&#x128;" glyph-name="Itilde" d="M68 34L126 42Q147 45 160 48T182 58T194 75T201 103L287 591Q292 622 282 634T232 652L178 660L184 693H545L539 660L470 651Q448 648 435 645T414 635T402 618T395 591L309 103Q306 88 307 78T314 60T332 50T364
43L429 34L423 0H62L68 34ZM212 779Q243 833 268 861T323 890Q339 890 359 884T398 870T435 856T462 850Q477 850 491 863T529 906L558 891Q528 836 503 808T448 780Q430 780 411 786T373 799T338 813T309 820Q294 820 280 807T244 763L212 779Z" />
<glyph unicode="&#x129;" glyph-name="itilde" d="M64 30L120 41Q146 46 162 52T187 69T201 95T210 132L247 340Q251 366 252 382T249 410T232 429T197 445L141 466L146 492L376 523L385 517Q380 505 376 488Q372 474 368 453T358 405L310 132Q306 109 305 94T309
69T325 53T357 43L419 30L414 0H59L64 30ZM417 597Q445 660 469 690T525 721Q543 721 563 715T604 701T641 687T667 680Q685 680 701 695T738 746L770 733Q743 670 718 640T660 609Q643 609 623 615T584 629T547 643T520 650Q502 650 487 634T451 583L417 597Z"
/>
<glyph unicode="&#x12a;" glyph-name="Imacron" d="M68 34L126 42Q147 45 160 48T182 58T194 75T201 103L287 591Q292 622 282 634T232 652L178 660L184 693H545L539 660L470 651Q448 648 435 645T414 635T402 618T395 591L309 103Q306 88 307 78T314 60T332 50T364
43L429 34L423 0H62L68 34ZM256 842H529L518 777H245L256 842Z" />
<glyph unicode="&#x12b;" glyph-name="imacron" d="M64 30L120 41Q146 46 162 52T187 69T201 95T210 132L247 340Q251 366 252 382T249 410T232 429T197 445L141 466L146 492L376 523L385 517Q380 505 376 488Q372 474 368 453T358 405L310 132Q306 109 305 94T309
69T325 53T357 43L419 30L414 0H59L64 30ZM451 693H724L713 628H440L451 693Z" />
<glyph unicode="&#x12c;" glyph-name="Ibreve" d="M68 34L126 42Q147 45 160 48T182 58T194 75T201 103L287 591Q292 622 282 634T232 652L178 660L184 693H545L539 660L470 651Q448 648 435 645T414 635T402 618T395 591L309 103Q306 88 307 78T314 60T332 50T364
43L429 34L423 0H62L68 34ZM264 887L293 893Q299 860 326 843T393 826Q434 826 463 846T507 893L535 883Q529 859 514 836T479 795T434 766T382 755Q332 755 298 787T264 875V887Z" />
<glyph unicode="&#x12d;" glyph-name="ibreve" d="M64 30L120 41Q146 46 162 52T187 69T201 95T210 132L247 340Q251 366 252 382T249 410T232 429T197 445L141 466L146 492L376 523L385 517Q380 505 376 488Q372 474 368 453T358 405L310 132Q306 109 305 94T309
69T325 53T357 43L419 30L414 0H59L64 30ZM478 722Q478 727 478 731T479 742L508 748Q513 706 538 685T605 664Q625 664 643 671T677 690T703 717T722 749L750 739Q743 710 728 684T693 637T647 606T595 594Q547 594 513 626T478 722Z" />
<glyph unicode="&#x12e;" glyph-name="Iogonek" d="M157 -147Q157 -121 169 -99T200 -59T242 -24Q262 -11 281 0H62L68 34L126 42Q147 45 160 48T182 58T194 75T201 103L287 591Q292 622 282 634T232 652L178 660L184 693H545L539 660L470 651Q448 648 435 645T414
635T402 618T395 591L309 103Q306 88 307 78T314 60T332 50T364 43L429 34L423 0H331Q293 -31 270 -65T246 -131Q246 -154 261 -162T304 -171H332L327 -199Q315 -207 295 -215T245 -223Q207 -223 182 -204T157 -147Z" />
<glyph unicode="&#x12f;" glyph-name="iogonek" d="M139 -147Q139 -121 151 -99T182 -59T224 -24Q244 -11 263 0H61L66 30L122 41Q148 46 163 51T188 66T201 91T211 132L248 340Q252 365 252 382T248 410T231 429T198 445L143 466L148 492L376 523L385 517Q380
505 376 488Q372 474 368 453T358 405L310 132Q306 108 306 93T311 67T328 52T357 43L419 30L414 0H313Q275 -31 252 -65T228 -131Q228 -154 243 -162T286 -171H314L309 -199Q297 -207 277 -215T227 -223Q189 -223 164 -204T139 -147ZM343 614Q311 614 290 636T268
686Q268 715 289 736T343 757Q374 757 395 736T417 686Q417 658 396 636T343 614Z" />
<glyph unicode="&#x130;" glyph-name="Idotaccent" d="M68 34L126 42Q147 45 160 48T182 58T194 75T201 103L287 591Q292 622 282 634T232 652L178 660L184 693H545L539 660L470 651Q448 648 435 645T414 635T402 618T395 591L309 103Q306 88 307 78T314 60T332
50T364 43L429 34L423 0H62L68 34ZM387 750Q358 750 339 769T320 814Q320 841 339 860T387 880Q416 880 435 861T455 814Q455 788 436 769T387 750Z" />
<glyph unicode="&#x131;" glyph-name="dotlessi" d="M64 30L120 41Q146 46 162 52T187 69T201 95T210 132L247 340Q251 366 252 382T249 410T232 429T197 445L141 466L146 492L376 523L385 517Q380 505 376 488Q372 474 368 453T358 405L310 132Q306 109 305 94T309
69T325 53T357 43L419 30L414 0H59L64 30Z" />
<glyph unicode="&#x132;" glyph-name="IJ" d="M-20 31L8 37Q20 40 28 43T41 52T50 70T57 100L144 594Q150 629 145 640T117 657L92 663L97 693H331L326 663L302 656Q288 652 280 649T267 639T259 623T253 594L166 100Q163 81 162 70T164 53T174 44T193 38L224
31L219 0H-25L-20 31ZM462 84Q419 -163 219 -163Q156 -163 125 -144T93 -92Q93 -69 107 -54T151 -39Q179 -39 192 -52T211 -94Q214 -111 219 -116T241 -122Q260 -122 276 -116T304 -92T326 -47T344 26L444 594Q450 626 446 637T422 654L386 663L391 693H634L629
663L598 654Q586 651 579 648T566 638T558 621T552 594L462 84Z" />
<glyph unicode="&#x133;" glyph-name="ij" d="M229 613Q200 613 181 633T161 679Q161 705 180 724T229 744Q257 744 276 725T296 679Q296 654 277 634T229 613ZM508 613Q479 613 460 633T440 679Q440 705 459 724T508 744Q536 744 555 725T575 679Q575 654 556
634T508 613ZM-2 30L41 41Q59 45 65 54T77 93L132 403Q137 427 133 437T112 457L77 476L82 502L250 523L259 517Q254 505 250 488Q246 474 242 453T232 405L177 93Q172 66 176 56T194 41L233 30L228 0H-7L-2 30ZM228 -228Q179 -228 154 -209T129 -162Q129 -139
144 -124T186 -108Q214 -108 226 -122T240 -159Q242 -179 246 -185T261 -191Q286 -191 302 -167T329 -82L414 403Q419 427 415 437T394 457L359 476L364 502L532 523L541 517Q536 505 532 487Q528 472 524 451T514 400L439 -20Q429 -78 408 -117T358 -181T296 -217T228
-228Z" />
<glyph unicode="&#x134;" glyph-name="Jcircumflex" d="M105 -163Q42 -163 10 -143T-23 -89Q-23 -66 -9 -50T35 -34Q63 -34 76 -48T95 -94Q98 -111 104 -116T127 -122Q147 -122 162 -116T191 -92T213 -47T231 26L331 594Q336 624 331 635T301 651L243 663L248
693H534L529 663L481 654Q470 652 464 650T453 641T445 623T439 594L349 84Q306 -163 105 -163ZM565 770L545 747L416 816L263 745L248 771L403 897H454L565 770Z" />
<glyph unicode="&#x135;" glyph-name="jcircumflex" d="M85 -228Q32 -228 2 -207T-28 -155Q-28 -131 -13 -116T29 -101Q58 -101 70 -114T83 -152Q84 -175 89 -183T112 -191Q142 -191 164 -168T197 -89L277 369Q280 389 280 402T278 425T268 439T247 448L182 467L187
493L400 523L409 517Q404 505 400 487Q396 472 392 451T382 400L307 -27Q298 -81 276 -119T224 -182T158 -217T85 -228ZM511 609L489 586L363 671L207 584L192 610L350 751H401L511 609Z" />
<glyph unicode="&#x136;" glyph-name="uni0136" d="M155 -129Q155 -103 175 -85T226 -67Q256 -67 276 -87T296 -140Q296 -168 284 -193T249 -237T195 -270T125 -286L117 -259Q172 -245 196 -223T226 -169Q223 -171 216 -173T201 -175Q181 -175 168 -163T155 -129ZM379
0Q358 36 339 78T302 165T269 256T242 347L244 360L428 567Q453 595 462 607T472 631Q472 641 465 646T446 655L419 663L424 693H629L624 663L607 657Q596 653 587 649T567 637T546 619T519 592L334 387Q346 347 361 303T395 216T432 133T471 62Q478 50 483 47T496
41L533 31L528 0H379ZM-16 31L22 40Q32 42 38 44T48 52T55 68T61 95L149 594Q152 612 153 622T152 639T144 649T130 654L96 663L101 693H340L335 663L295 654Q285 652 279 649T268 640T262 623T256 594L169 100Q166 81 165 70T166 53T174 45T191 39L223 31L218
0H-21L-16 31Z" />
<glyph unicode="&#x137;" glyph-name="uni0137" d="M166 -129Q166 -103 186 -85T237 -67Q267 -67 287 -87T307 -140Q307 -168 295 -193T260 -237T206 -270T136 -286L128 -259Q183 -245 207 -223T237 -169Q234 -171 227 -173T212 -175Q192 -175 179 -163T166 -129ZM-12
30L27 41Q44 45 50 54T62 93L158 637Q160 645 161 655T163 672Q163 683 159 688T142 701L105 721L110 749L277 765L284 757Q279 742 275 724Q271 708 267 687T258 640L161 93Q156 64 159 55T177 41L211 30L206 0H-17L-12 30ZM381 0Q336 61 299 121T230 253L233
268L369 387Q399 413 411 429T423 455Q423 468 402 476L389 481L394 509H579L574 480L544 470Q518 461 498 447T449 407L317 291Q354 219 390 164T460 62Q468 51 473 47T492 38L515 30L510 0H381Z" />
<glyph unicode="&#x139;" glyph-name="Lacute" d="M21 31L59 40Q69 42 75 45T85 54T93 71T99 100L186 594Q192 627 188 638T163 655L133 663L138 693H381L376 663L332 653Q323 651 317 648T307 639T299 623T293 594L213 142Q207 107 206 87T211 58T236 46T286
44Q314 44 333 46T365 54T389 69T412 94Q424 110 444 140T489 220H523L470 0H16L21 31ZM436 772L571 878Q584 888 595 894T621 900Q642 900 654 887T666 857Q666 824 625 809L451 748L436 772Z" />
<glyph unicode="&#x13a;" glyph-name="lacute" d="M69 30L134 39Q156 42 169 46T191 60T204 85T214 127L299 605Q303 631 303 647T298 673T280 689T248 701L186 721L191 749L423 765L431 757Q426 742 422 724Q418 708 414 687T404 640L313 127Q309 104 309 89T313
64T330 49T359 40L423 30L418 0H64L69 30ZM275 842L410 948Q423 958 434 964T460 970Q481 970 493 957T505 927Q505 894 464 879L290 818L275 842Z" />
<glyph unicode="&#x13b;" glyph-name="uni013B" d="M174 -129Q174 -103 194 -85T245 -67Q275 -67 295 -87T315 -140Q315 -168 303 -193T268 -237T214 -270T144 -286L136 -259Q191 -245 215 -223T245 -169Q242 -171 235 -173T220 -175Q200 -175 187 -163T174 -129ZM21
31L59 40Q69 42 75 45T85 54T93 71T99 100L186 594Q192 627 188 638T163 655L133 663L138 693H381L376 663L332 653Q323 651 317 648T307 639T299 623T293 594L213 142Q207 107 206 87T211 58T236 46T286 44Q314 44 333 46T365 54T389 69T412 94Q424 110 444 140T489
220H523L470 0H16L21 31Z" />
<glyph unicode="&#x13c;" glyph-name="uni013C" d="M69 30L134 39Q156 42 169 46T191 60T204 85T214 127L299 605Q303 631 303 647T298 673T280 689T248 701L186 721L191 749L423 765L431 757Q426 742 422 724Q418 708 414 687T404 640L313 127Q309 104 309 89T313
64T330 49T359 40L423 30L418 0H64L69 30ZM147 -129Q147 -103 167 -85T218 -67Q248 -67 268 -87T288 -140Q288 -168 276 -193T241 -237T187 -270T117 -286L109 -259Q164 -245 188 -223T218 -169Q215 -171 208 -173T193 -175Q173 -175 160 -163T147 -129Z" />
<glyph unicode="&#x13d;" glyph-name="Lcaron" d="M415 509L456 669Q461 689 471 701T501 713Q518 713 530 703T543 678Q543 661 529 640L439 501L415 509ZM21 31L59 40Q69 42 75 45T85 54T93 71T99 100L186 594Q192 627 188 638T163 655L133 663L138 693H381L376
663L332 653Q323 651 317 648T307 639T299 623T293 594L213 142Q207 107 206 87T211 58T236 46T286 44Q314 44 333 46T365 54T389 69T412 94Q424 110 444 140T489 220H523L470 0H16L21 31Z" />
<glyph unicode="&#x13e;" glyph-name="lcaron" d="M69 30L134 39Q156 42 169 46T191 60T204 85T214 127L299 605Q303 631 303 647T298 673T280 689T248 701L186 721L191 749L423 765L431 757Q426 742 422 724Q418 708 414 687T404 640L313 127Q309 104 309 89T313
64T330 49T359 40L423 30L418 0H64L69 30ZM479 573L514 721Q519 741 529 753T559 765Q576 765 588 755T601 730Q601 713 587 692L503 565L479 573Z" />
<glyph unicode="&#x13f;" glyph-name="Ldot" d="M510 315Q479 315 458 336T436 389Q436 404 441 418T457 442T481 458T510 464Q542 464 564 442T587 389Q587 357 565 336T510 315ZM21 31L59 40Q69 42 75 45T85 54T93 71T99 100L186 594Q192 627 188 638T163 655L133
663L138 693H381L376 663L332 653Q323 651 317 648T307 639T299 623T293 594L213 142Q207 107 206 87T211 58T236 46T286 44Q314 44 333 46T365 54T389 69T412 94Q424 110 444 140T489 220H523L470 0H16L21 31Z" />
<glyph unicode="&#x140;" glyph-name="ldot" d="M69 30L134 39Q156 42 169 46T191 60T204 85T214 127L299 605Q303 631 303 647T298 673T280 689T248 701L186 721L191 749L423 765L431 757Q426 742 422 724Q418 708 414 687T404 640L313 127Q309 104 309 89T313
64T330 49T359 40L423 30L418 0H64L69 30ZM586 306Q555 306 534 327T512 380Q512 395 517 409T533 433T557 449T586 455Q618 455 640 433T663 380Q663 348 641 327T586 306Z" />
<glyph unicode="&#x141;" glyph-name="Lslash" d="M21 31L59 40Q69 42 75 45T85 54T93 71T99 100L131 281L66 256L74 303L139 328L186 594Q192 627 188 638T163 655L133 663L138 693H381L376 663L332 653Q323 651 317 648T307 639T299 623T293 594L254 372L454
450L445 403L245 325L213 142Q207 107 206 87T211 58T236 46T286 44Q314 44 333 46T365 54T389 69T412 94Q424 110 444 140T489 220H523L470 0H16L21 31Z" />
<glyph unicode="&#x142;" glyph-name="lslash" d="M69 30L134 39Q156 42 169 46T191 60T204 85T214 127L255 361L120 311L128 358L264 408L299 605Q303 631 303 647T298 673T280 689T248 701L186 721L191 749L423 765L431 757Q426 742 422 724Q418 708 414 687T404
640L370 447L520 503L512 456L361 400L313 127Q309 104 309 89T313 64T330 49T359 40L423 30L418 0H64L69 30Z" />
<glyph unicode="&#x143;" glyph-name="Nacute" d="M-23 31L8 38Q19 41 26 44T39 54T48 74T56 110L142 594Q148 628 143 639T123 654L89 663L94 693H278L441 204H445L512 584Q519 625 514 638T488 656L450 663L455 693H641L636 663L610 656Q598 653 590 650T577
639T568 619T560 584L456 -4H404L196 608H192L104 110Q100 88 100 75T103 55T112 44T129 38L162 31L157 0H-28L-23 31ZM309 772L444 878Q457 888 468 894T494 900Q515 900 527 887T539 857Q539 824 498 809L324 748L309 772Z" />
<glyph unicode="&#x144;" glyph-name="nacute" d="M-10 30L26 40Q36 43 42 46T52 54T58 68T63 88L119 403Q124 428 121 437T101 457L69 476L74 502L229 523L238 517L221 452H225Q261 481 308 502T403 524Q460 524 487 500T515 422Q515 410 514 397T510 369L460
93Q457 79 457 70T459 56T465 47T478 41L511 30L506 0H284L289 30L323 40Q333 43 339 46T349 54T355 68T360 88L407 354Q412 382 412 398Q412 432 396 445T343 458Q328 458 311 454T278 444T247 429T221 414L163 93Q158 64 161 55T179 41L213 30L208 0H-15L-10
30ZM265 619L401 724Q414 734 425 740T451 746Q472 746 483 734T494 705Q494 672 453 657L280 595L265 619Z" />
<glyph unicode="&#x145;" glyph-name="uni0145" d="M162 -129Q162 -103 182 -85T233 -67Q263 -67 283 -87T303 -140Q303 -168 291 -193T256 -237T202 -270T132 -286L124 -259Q179 -245 203 -223T233 -169Q230 -171 223 -173T208 -175Q188 -175 175 -163T162 -129ZM-23
31L8 38Q19 41 26 44T39 54T48 74T56 110L142 594Q148 628 143 639T123 654L89 663L94 693H278L441 204H445L512 584Q519 625 514 638T488 656L450 663L455 693H641L636 663L610 656Q598 653 590 650T577 639T568 619T560 584L456 -4H404L196 608H192L104 110Q100
88 100 75T103 55T112 44T129 38L162 31L157 0H-28L-23 31Z" />
<glyph unicode="&#x146;" glyph-name="uni0146" d="M-10 30L26 40Q36 43 42 46T52 54T58 68T63 88L119 403Q124 428 121 437T101 457L69 476L74 502L229 523L238 517L221 452H225Q261 481 308 502T403 524Q460 524 487 500T515 422Q515 410 514 397T510 369L460
93Q457 79 457 70T459 56T465 47T478 41L511 30L506 0H284L289 30L323 40Q333 43 339 46T349 54T355 68T360 88L407 354Q412 382 412 398Q412 432 396 445T343 458Q328 458 311 454T278 444T247 429T221 414L163 93Q158 64 161 55T179 41L213 30L208 0H-15L-10
30ZM147 -129Q147 -103 167 -85T218 -67Q248 -67 268 -87T288 -140Q288 -168 276 -193T241 -237T187 -270T117 -286L109 -259Q164 -245 188 -223T218 -169Q215 -171 208 -173T193 -175Q173 -175 160 -163T147 -129Z" />
<glyph unicode="&#x147;" glyph-name="Ncaron" d="M-23 31L8 38Q19 41 26 44T39 54T48 74T56 110L142 594Q148 628 143 639T123 654L89 663L94 693H278L441 204H445L512 584Q519 625 514 638T488 656L450 663L455 693H641L636 663L610 656Q598 653 590 650T577
639T568 619T560 584L456 -4H404L196 608H192L104 110Q100 88 100 75T103 55T112 44T129 38L162 31L157 0H-28L-23 31ZM250 886L270 909L398 839L552 909L567 883L411 758H360L250 886Z" />
<glyph unicode="&#x148;" glyph-name="ncaron" d="M-10 30L26 40Q36 43 42 46T52 54T58 68T63 88L119 403Q124 428 121 437T101 457L69 476L74 502L229 523L238 517L221 452H225Q261 481 308 502T403 524Q460 524 487 500T515 422Q515 410 514 397T510 369L460
93Q457 79 457 70T459 56T465 47T478 41L511 30L506 0H284L289 30L323 40Q333 43 339 46T349 54T355 68T360 88L407 354Q412 382 412 398Q412 432 396 445T343 458Q328 458 311 454T278 444T247 429T221 414L163 93Q158 64 161 55T179 41L213 30L208 0H-15L-10
30ZM458 740L480 763L605 678L762 763L777 737L618 598H567L458 740Z" />
<glyph unicode="&#x149;" glyph-name="napostrophe" d="M-43 473Q11 493 41 524T77 593Q64 586 48 586Q26 586 14 600T1 640Q1 669 20 687T74 706Q108 706 129 688T150 628Q150 600 136 570T97 514T37 470T-38 445L-43 473ZM34 30L69 40Q80 43 86 46T97 54T103
68T108 93L163 403Q168 427 164 437T145 457L113 476L118 502L274 523L283 517L268 461H272Q288 471 306 482T345 503T388 518T433 524Q453 524 471 520T504 505T526 480T534 442Q534 428 531 409T524 366L476 93Q471 66 474 57T495 40L517 30L512 0H299L304 30L335
39Q347 42 354 44T364 52T370 67T376 93L422 350Q425 368 427 382T430 411Q430 436 414 447T371 458Q342 458 313 447T267 427L208 93Q203 64 208 55T227 40L258 30L253 0H29L34 30Z" />
<glyph unicode="&#x14a;" glyph-name="Eng" d="M268 -234Q210 -234 179 -214T147 -160Q147 -137 161 -121T205 -105Q233 -105 246 -119T265 -164Q268 -181 274 -187T297 -193Q332 -193 358 -156T399 -28L403 -2L196 608H192L104 110Q100 88 100 75T103 55T112
44T129 38L162 31L157 0H-28L-23 31L8 38Q19 41 26 44T39 54T48 74T56 110L142 594Q148 628 143 639T123 654L89 663L94 693H278L441 204H445L512 584Q519 625 514 638T488 656L450 663L455 693H641L636 663L610 656Q598 653 590 650T577 639T568 619T560 584L456
-4L450 -38Q432 -142 389 -188T268 -234Z" />
<glyph unicode="&#x14b;" glyph-name="eng" d="M244 -228Q196 -228 169 -209T141 -160Q141 -137 156 -121T198 -105Q227 -105 239 -119T252 -156Q253 -178 257 -184T276 -191Q301 -191 317 -167T345 -77L421 352Q423 365 424 375T426 396Q426 431 408 444T349
458Q333 458 315 454T280 444T248 429T221 414L163 93Q158 64 161 55T179 41L213 30L208 0H-15L-10 30L26 40Q36 43 42 46T52 54T58 68T63 88L119 403Q124 428 121 437T101 457L69 476L74 502L229 523L238 517L221 452H225Q262 481 311 502T409 524Q470 524 499
499T529 419Q529 408 528 395T524 368L459 -2Q448 -63 427 -106T377 -176T314 -215T244 -228Z" />
<glyph unicode="&#x14c;" glyph-name="Omacron" d="M260 -12Q215 -12 176 3T106 50T59 132T41 252Q41 278 43 305T51 363Q67 454 97 519T168 625T254 686T349 705Q395 705 435 690T504 642T551 559T568 438Q568 412 566 385T558 327Q541 235 511 171T442 66T356
7T260 -12ZM267 37Q304 37 330 53T377 103T413 192T442 322Q450 367 455 410T461 493Q461 582 432 619T345 657Q308 657 281 640T232 588T195 499T166 368Q158 325 153 283T148 201Q148 122 174 80T267 37ZM256 842H529L518 777H245L256 842Z" />
<glyph unicode="&#x14d;" glyph-name="omacron" d="M258 -13Q221 -13 184 -1T116 38T68 106T49 207Q49 238 55 274Q66 336 93 383T156 461T234 509T320 525Q357 525 394 513T462 476T511 409T530 309Q530 279 524 243Q513 181 486 133T423 53T344 4T258 -13ZM153
172Q153 131 161 104T185 61T220 37T263 30Q320 30 357 80T415 238Q420 269 423 294T426 343Q426 383 418 410T394 453T359 476T315 483Q259 483 222 434T164 278Q159 247 156 221T153 172ZM229 693H502L491 628H218L229 693Z" />
<glyph unicode="&#x14e;" glyph-name="Obreve" d="M260 -12Q215 -12 176 3T106 50T59 132T41 252Q41 278 43 305T51 363Q67 454 97 519T168 625T254 686T349 705Q395 705 435 690T504 642T551 559T568 438Q568 412 566 385T558 327Q541 235 511 171T442 66T356
7T260 -12ZM267 37Q304 37 330 53T377 103T413 192T442 322Q450 367 455 410T461 493Q461 582 432 619T345 657Q308 657 281 640T232 588T195 499T166 368Q158 325 153 283T148 201Q148 122 174 80T267 37ZM264 887L293 893Q299 860 326 843T393 826Q434 826 463
846T507 893L535 883Q529 859 514 836T479 795T434 766T382 755Q332 755 298 787T264 875V887Z" />
<glyph unicode="&#x14f;" glyph-name="obreve" d="M258 -13Q221 -13 184 -1T116 38T68 106T49 207Q49 238 55 274Q66 336 93 383T156 461T234 509T320 525Q357 525 394 513T462 476T511 409T530 309Q530 279 524 243Q513 181 486 133T423 53T344 4T258 -13ZM153
172Q153 131 161 104T185 61T220 37T263 30Q320 30 357 80T415 238Q420 269 423 294T426 343Q426 383 418 410T394 453T359 476T315 483Q259 483 222 434T164 278Q159 247 156 221T153 172ZM237 722Q237 727 237 731T238 742L267 748Q272 706 297 685T364 664Q384
664 402 671T436 690T462 717T481 749L509 739Q502 710 487 684T452 637T406 606T354 594Q306 594 272 626T237 722Z" />
<glyph unicode="&#x150;" glyph-name="Ohungarumlaut" d="M260 -12Q215 -12 176 3T106 50T59 132T41 252Q41 278 43 305T51 363Q67 454 97 519T168 625T254 686T349 705Q395 705 435 690T504 642T551 559T568 438Q568 412 566 385T558 327Q541 235 511 171T442
66T356 7T260 -12ZM267 37Q304 37 330 53T377 103T413 192T442 322Q450 367 455 410T461 493Q461 582 432 619T345 657Q308 657 281 640T232 588T195 499T166 368Q158 325 153 283T148 201Q148 122 174 80T267 37ZM670 778L748 894Q760 913 770 920T795 927Q813
927 825 915T837 885Q837 867 808 845L687 758L670 778ZM494 778L572 894Q584 913 594 920T619 927Q637 927 649 915T661 885Q661 867 632 845L511 758L494 778Z" />
<glyph unicode="&#x151;" glyph-name="ohungarumlaut" d="M258 -13Q221 -13 184 -1T116 38T68 106T49 207Q49 238 55 274Q66 336 93 383T156 461T234 509T320 525Q357 525 394 513T462 476T511 409T530 309Q530 279 524 243Q513 181 486 133T423 53T344 4T258
-13ZM153 172Q153 131 161 104T185 61T220 37T263 30Q320 30 357 80T415 238Q420 269 423 294T426 343Q426 383 418 410T394 453T359 476T315 483Q259 483 222 434T164 278Q159 247 156 221T153 172ZM659 609L737 725Q749 744 759 751T784 758Q802 758 814 746T826
716Q826 698 797 676L676 589L659 609ZM483 609L561 725Q573 744 583 751T608 758Q626 758 638 746T650 716Q650 698 621 676L500 589L483 609Z" />
<glyph unicode="&#x152;" glyph-name="OE" d="M189 42Q203 42 212 45T229 58T240 83T250 125L328 568Q330 582 331 592T333 611Q333 651 292 651Q262 651 240 633T202 579T173 492T147 373Q136 316 132 275T127 196Q127 121 142 82T189 42ZM177 0Q100 0 62 58T23
247Q23 277 26 306T35 368Q67 533 139 613T309 693H618L605 516H574Q566 555 561 577T548 617Q540 636 530 642T493 649Q476 649 463 647T438 640L393 383H414Q439 383 448 387T466 407Q479 429 485 445T500 481H530L487 239H457Q457 249 457 257T456 273T454 289T451
309Q448 326 440 331T404 337H384L344 107Q341 87 341 74Q341 55 349 50T381 44Q401 44 413 45T433 50T446 63T460 85Q474 111 488 141T519 209H550L504 0H177Z" />
<glyph unicode="&#x153;" glyph-name="oe" d="M450 483Q436 483 423 475T396 448T370 395T348 313L478 319Q484 345 487 369T490 420Q490 452 482 467T450 483ZM142 30Q158 30 172 41T200 78T224 145T247 249Q257 306 262 345T267 411Q267 449 256 466T219 483Q202
483 188 472T160 436T136 368T113 265Q103 208 98 169T93 102Q93 63 105 47T142 30ZM389 -12Q344 -12 312 6T265 68Q239 26 206 7T137 -13Q114 -13 91 -6T49 21T18 74T6 159Q6 182 8 207T16 263Q28 333 50 382T101 463T162 510T226 525Q260 525 288 509T331 448Q357
487 390 506T459 525Q513 525 543 492T573 381Q573 351 570 325T562 270H340Q335 238 333 213T330 166Q330 129 337 107T358 72T388 56T424 52Q453 52 477 60T521 83L514 43Q497 23 464 6T389 -12Z" />
<glyph unicode="&#x154;" glyph-name="Racute" d="M280 359Q361 359 395 406T429 548Q429 578 424 597T406 628T374 644T323 649Q308 649 293 647T270 643L221 364Q234 362 246 361T280 359ZM-9 31L29 40Q39 42 45 45T55 54T63 71T69 100L156 594Q159 613 159
624T156 641T147 650T133 655L103 663L108 693H331Q445 693 492 655T540 536Q540 464 499 409T378 333V330Q386 297 397 261T421 191T447 127T472 74Q481 57 489 51T517 37L533 31L528 0H387Q352 69 325 148T278 313H212L175 100Q169 66 173 55T198 39L230 31L225
0H-14L-9 31ZM520 772L655 878Q668 888 679 894T705 900Q726 900 738 887T750 857Q750 824 709 809L535 748L520 772Z" />
<glyph unicode="&#x155;" glyph-name="racute" d="M45 30L81 37Q98 40 109 44T127 57T139 79T148 115L194 373Q198 397 199 411T196 434T183 449T158 462L124 476L129 502L309 523L318 515L298 440H302Q344 475 389 500T480 525Q519 525 537 509T555 465Q555 434
536 417T488 400Q442 400 433 440Q431 451 425 454T408 457Q386 457 356 438T296 393L248 115Q244 91 244 78T249 57T268 46T306 39L370 30L365 0H40L45 30ZM305 619L441 724Q454 734 465 740T491 746Q512 746 523 734T534 705Q534 672 493 657L320 595L305 619Z"
/>
<glyph unicode="&#x156;" glyph-name="uni0156" d="M280 359Q361 359 395 406T429 548Q429 578 424 597T406 628T374 644T323 649Q308 649 293 647T270 643L221 364Q234 362 246 361T280 359ZM-9 31L29 40Q39 42 45 45T55 54T63 71T69 100L156 594Q159 613 159
624T156 641T147 650T133 655L103 663L108 693H331Q445 693 492 655T540 536Q540 464 499 409T378 333V330Q386 297 397 261T421 191T447 127T472 74Q481 57 489 51T517 37L533 31L528 0H387Q352 69 325 148T278 313H212L175 100Q169 66 173 55T198 39L230 31L225
0H-14L-9 31ZM162 -129Q162 -103 182 -85T233 -67Q263 -67 283 -87T303 -140Q303 -168 291 -193T256 -237T202 -270T132 -286L124 -259Q179 -245 203 -223T233 -169Q230 -171 223 -173T208 -175Q188 -175 175 -163T162 -129Z" />
<glyph unicode="&#x157;" glyph-name="uni0157" d="M45 30L81 37Q98 40 109 44T127 57T139 79T148 115L194 373Q198 397 199 411T196 434T183 449T158 462L124 476L129 502L309 523L318 515L298 440H302Q344 475 389 500T480 525Q519 525 537 509T555 465Q555
434 536 417T488 400Q442 400 433 440Q431 451 425 454T408 457Q386 457 356 438T296 393L248 115Q244 91 244 78T249 57T268 46T306 39L370 30L365 0H40L45 30ZM343 -129Q343 -103 363 -85T414 -67Q444 -67 464 -87T484 -140Q484 -168 472 -193T437 -237T383 -270T313
-286L305 -259Q360 -245 384 -223T414 -169Q411 -171 404 -173T389 -175Q369 -175 356 -163T343 -129Z" />
<glyph unicode="&#x158;" glyph-name="Rcaron" d="M280 359Q361 359 395 406T429 548Q429 578 424 597T406 628T374 644T323 649Q308 649 293 647T270 643L221 364Q234 362 246 361T280 359ZM-9 31L29 40Q39 42 45 45T55 54T63 71T69 100L156 594Q159 613 159
624T156 641T147 650T133 655L103 663L108 693H331Q445 693 492 655T540 536Q540 464 499 409T378 333V330Q386 297 397 261T421 191T447 127T472 74Q481 57 489 51T517 37L533 31L528 0H387Q352 69 325 148T278 313H212L175 100Q169 66 173 55T198 39L230 31L225
0H-14L-9 31ZM475 886L495 909L623 839L777 909L792 883L636 758H585L475 886Z" />
<glyph unicode="&#x159;" glyph-name="rcaron" d="M45 30L81 37Q98 40 109 44T127 57T139 79T148 115L194 373Q198 397 199 411T196 434T183 449T158 462L124 476L129 502L309 523L318 515L298 440H302Q344 475 389 500T480 525Q519 525 537 509T555 465Q555 434
536 417T488 400Q442 400 433 440Q431 451 425 454T408 457Q386 457 356 438T296 393L248 115Q244 91 244 78T249 57T268 46T306 39L370 30L365 0H40L45 30ZM227 740L249 763L374 678L531 763L546 737L387 598H336L227 740Z" />
<glyph unicode="&#x15a;" glyph-name="Sacute" d="M251 -13Q216 -13 186 -7T131 7T85 24T52 42L55 225H92Q103 185 113 159T137 109Q157 74 184 55T261 36Q328 36 366 68T404 150Q404 191 372 229T263 315Q190 360 153 406T116 512Q116 551 131 586T176 647T249
690T348 706Q372 706 397 703T445 696T487 686T518 675L515 511H479Q468 546 459 568T439 608Q433 619 426 628T407 644T381 654T344 658Q281 658 244 627T206 547Q206 529 212 513T232 481T269 446T326 407Q419 349 461 297T503 189Q503 148 488 112T441 47T362
3T251 -13ZM285 772L420 878Q433 888 444 894T470 900Q491 900 503 887T515 857Q515 824 474 809L300 748L285 772Z" />
<glyph unicode="&#x15b;" glyph-name="sacute" d="M254 -12Q187 -12 134 4T50 37L71 185H101Q110 155 117 134T132 95Q139 81 149 69T174 49T211 36T263 31Q323 31 354 56T385 123Q385 139 379 151T357 175T317 198T255 221Q177 248 143 281T109 362Q109 397 126
427T172 478T241 512T325 525Q387 525 431 512T504 485L484 352H454Q440 402 425 430Q418 443 410 452T388 469T355 479T307 483Q253 483 225 457T197 395Q197 383 202 372T221 350T259 328T321 304Q406 276 443 241T480 160Q480 127 465 96T422 41T351 3T254 -12ZM267
619L403 724Q416 734 427 740T453 746Q474 746 485 734T496 705Q496 672 455 657L282 595L267 619Z" />
<glyph unicode="&#x15c;" glyph-name="Scircumflex" d="M251 -13Q216 -13 186 -7T131 7T85 24T52 42L55 225H92Q103 185 113 159T137 109Q157 74 184 55T261 36Q328 36 366 68T404 150Q404 191 372 229T263 315Q190 360 153 406T116 512Q116 551 131 586T176 647T249
690T348 706Q372 706 397 703T445 696T487 686T518 675L515 511H479Q468 546 459 568T439 608Q433 619 426 628T407 644T381 654T344 658Q281 658 244 627T206 547Q206 529 212 513T232 481T269 446T326 407Q419 349 461 297T503 189Q503 148 488 112T441 47T362
3T251 -13ZM776 770L756 747L627 816L474 745L459 771L614 897H665L776 770Z" />
<glyph unicode="&#x15d;" glyph-name="scircumflex" d="M254 -12Q187 -12 134 4T50 37L71 185H101Q110 155 117 134T132 95Q139 81 149 69T174 49T211 36T263 31Q323 31 354 56T385 123Q385 139 379 151T357 175T317 198T255 221Q177 248 143 281T109 362Q109
397 126 427T172 478T241 512T325 525Q387 525 431 512T504 485L484 352H454Q440 402 425 430Q418 443 410 452T388 469T355 479T307 483Q253 483 225 457T197 395Q197 383 202 372T221 350T259 328T321 304Q406 276 443 241T480 160Q480 127 465 96T422 41T351
3T254 -12ZM511 609L489 586L363 671L207 584L192 610L350 751H401L511 609Z" />
<glyph unicode="&#x15e;" glyph-name="uni015E" d="M105 -212Q175 -202 202 -184T229 -143Q229 -109 161 -103L153 -94L210 -11Q198 -9 186 -7Q156 -1 131 7T85 24T52 42L55 225H92Q103 185 113 159T137 109Q157 74 184 55T261 36Q328 36 366 68T404 150Q404 191
372 229T263 315Q190 360 153 406T116 512Q116 551 131 586T176 647T249 690T348 706Q372 706 397 703T445 696T487 686T518 675L515 511H479Q468 546 459 568T439 608Q433 619 426 628T407 644T381 654T344 658Q281 658 244 627T206 547Q206 529 212 513T232 481T269
446T326 407Q419 349 461 297T503 189Q503 148 488 112T441 47T362 3Q317 -12 257 -13L214 -59Q262 -64 285 -81T308 -125Q308 -145 295 -165T255 -201T190 -227T100 -239L105 -212Z" />
<glyph unicode="&#x15f;" glyph-name="uni015F" d="M101 -212Q171 -202 198 -184T225 -143Q225 -109 157 -103L149 -94L207 -10Q168 -6 134 4Q81 21 50 37L71 185H101Q110 155 117 134T132 95Q139 81 149 69T174 49T211 36T263 31Q323 31 354 56T385 123Q385 139
379 151T357 175T317 198T255 221Q177 248 143 281T109 362Q109 397 126 427T172 478T241 512T325 525Q387 525 431 512T504 485L484 352H454Q440 402 425 430Q418 443 410 452T388 469T355 479T307 483Q253 483 225 457T197 395Q197 383 202 372T221 350T259 328T321
304Q406 276 443 241T480 160Q480 127 465 96T422 41T351 3T254 -12L210 -59Q258 -64 281 -81T304 -125Q304 -145 291 -165T251 -201T186 -227T96 -239L101 -212Z" />
<glyph unicode="&#x160;" glyph-name="Scaron" d="M251 -13Q216 -13 186 -7T131 7T85 24T52 42L55 225H92Q103 185 113 159T137 109Q157 74 184 55T261 36Q328 36 366 68T404 150Q404 191 372 229T263 315Q190 360 153 406T116 512Q116 551 131 586T176 647T249
690T348 706Q372 706 397 703T445 696T487 686T518 675L515 511H479Q468 546 459 568T439 608Q433 619 426 628T407 644T381 654T344 658Q281 658 244 627T206 547Q206 529 212 513T232 481T269 446T326 407Q419 349 461 297T503 189Q503 148 488 112T441 47T362
3T251 -13ZM485 886L505 909L633 839L787 909L802 883L646 758H595L485 886Z" />
<glyph unicode="&#x161;" glyph-name="scaron" d="M254 -12Q187 -12 134 4T50 37L71 185H101Q110 155 117 134T132 95Q139 81 149 69T174 49T211 36T263 31Q323 31 354 56T385 123Q385 139 379 151T357 175T317 198T255 221Q177 248 143 281T109 362Q109 397 126
427T172 478T241 512T325 525Q387 525 431 512T504 485L484 352H454Q440 402 425 430Q418 443 410 452T388 469T355 479T307 483Q253 483 225 457T197 395Q197 383 202 372T221 350T259 328T321 304Q406 276 443 241T480 160Q480 127 465 96T422 41T351 3T254 -12ZM467
740L489 763L614 678L771 763L786 737L627 598H576L467 740Z" />
<glyph unicode="&#x162;" glyph-name="Tcommaaccent" d="M103 31L153 39Q167 41 176 44T190 53T199 71T205 100L300 651H287Q259 651 242 650T213 643T192 627T171 599Q162 585 155 573T140 548T125 518T107 481H74L120 693H611L583 481H550Q544 523 539 547T526
596Q520 614 514 625T496 641T468 649T421 651H408L313 100Q308 68 313 56T336 40L388 31L383 0H98L103 31ZM147 -129Q147 -103 167 -85T218 -67Q248 -67 268 -87T288 -140Q288 -168 276 -193T241 -237T187 -270T117 -286L109 -259Q164 -245 188 -223T218 -169Q215
-171 208 -173T193 -175Q173 -175 160 -163T147 -129Z" />
<glyph unicode="&#x163;" glyph-name="tcommaaccent" d="M313 -12Q234 -12 200 25T180 142L235 456H104L110 485Q156 492 189 504T247 533T290 575T324 632H363L342 509H543L520 456H332L279 153Q268 94 289 71T366 48Q402 48 430 54T482 69L477 37Q454 19 411
4T313 -12ZM189 -129Q189 -103 209 -85T260 -67Q290 -67 310 -87T330 -140Q330 -168 318 -193T283 -237T229 -270T159 -286L151 -259Q206 -245 230 -223T260 -169Q257 -171 250 -173T235 -175Q215 -175 202 -163T189 -129Z" />
<glyph unicode="&#x164;" glyph-name="Tcaron" d="M103 31L153 39Q167 41 176 44T190 53T199 71T205 100L300 651H287Q259 651 242 650T213 643T192 627T171 599Q162 585 155 573T140 548T125 518T107 481H74L120 693H611L583 481H550Q544 523 539 547T526 596Q520
614 514 625T496 641T468 649T421 651H408L313 100Q308 68 313 56T336 40L388 31L383 0H98L103 31ZM490 886L510 909L638 839L792 909L807 883L651 758H600L490 886Z" />
<glyph unicode="&#x165;" glyph-name="tcaron" d="M313 -12Q234 -12 200 25T180 142L235 456H104L110 485Q156 492 189 504T247 533T290 575T324 632H363L342 509H543L520 456H332L279 153Q268 94 289 71T366 48Q402 48 430 54T482 69L477 37Q454 19 411 4T313
-12ZM434 573L469 721Q474 741 484 753T514 765Q531 765 543 755T556 730Q556 713 542 692L458 565L434 573Z" />
<glyph unicode="&#x166;" glyph-name="Tbar" d="M127 404H504L496 359H119L127 404ZM103 31L153 39Q167 41 176 44T190 53T199 71T205 100L300 651H287Q259 651 242 650T213 643T192 627T171 599Q162 585 155 573T140 548T125 518T107 481H74L120 693H611L583
481H550Q544 523 539 547T526 596Q520 614 514 625T496 641T468 649T421 651H408L313 100Q308 68 313 56T336 40L388 31L383 0H98L103 31Z" />
<glyph unicode="&#x167;" glyph-name="tbar" d="M87 351H517L509 307H79L87 351ZM313 -12Q234 -12 200 25T180 142L235 456H104L110 485Q156 492 189 504T247 533T290 575T324 632H363L342 509H543L520 456H332L279 153Q268 94 289 71T366 48Q402 48 430 54T482
69L477 37Q454 19 411 4T313 -12Z" />
<glyph unicode="&#x168;" glyph-name="Utilde" d="M270 -12Q170 -12 115 34T60 175Q60 191 62 208T67 244L129 594Q135 628 130 639T110 655L85 663L90 693H318L313 663L276 654Q267 652 261 649T250 640T243 623T237 594L173 226Q170 208 168 192T166 161Q166
101 196 74T296 46Q363 46 399 82T452 209L519 584Q527 626 521 639T495 656L455 663L460 693H641L636 663L617 657Q604 653 596 649T583 638T575 619T567 584L499 199Q481 98 427 43T270 -12ZM241 779Q272 833 297 861T352 890Q368 890 388 884T427 870T464 856T491
850Q506 850 520 863T558 906L587 891Q557 836 532 808T477 780Q459 780 440 786T402 799T367 813T338 820Q323 820 309 807T273 763L241 779Z" />
<glyph unicode="&#x169;" glyph-name="utilde" d="M181 -12Q124 -12 96 14T68 96Q68 107 69 119T73 146L120 413Q123 427 123 435T122 447T115 454T102 461L67 479L72 506L224 523L237 513L176 161Q174 149 173 139T172 119Q172 84 188 69T241 53Q273 53 304 64T361
90L418 413Q420 427 420 435T420 447T413 454T400 461L366 479L371 506L524 523L535 513L465 115Q462 98 462 88T463 72T469 61T482 53L513 36L509 9L354 -12L344 -4L360 56H356Q320 30 277 9T181 -12ZM178 597Q206 660 230 690T286 721Q304 721 324 715T365 701T402
687T428 680Q446 680 462 695T499 746L531 733Q504 670 479 640T421 609Q404 609 384 615T345 629T308 643T281 650Q263 650 248 634T212 583L178 597Z" />
<glyph unicode="&#x16a;" glyph-name="Umacron" d="M270 -12Q170 -12 115 34T60 175Q60 191 62 208T67 244L129 594Q135 628 130 639T110 655L85 663L90 693H318L313 663L276 654Q267 652 261 649T250 640T243 623T237 594L173 226Q170 208 168 192T166 161Q166
101 196 74T296 46Q363 46 399 82T452 209L519 584Q527 626 521 639T495 656L455 663L460 693H641L636 663L617 657Q604 653 596 649T583 638T575 619T567 584L499 199Q481 98 427 43T270 -12ZM276 842H549L538 777H265L276 842Z" />
<glyph unicode="&#x16b;" glyph-name="umacron" d="M181 -12Q124 -12 96 14T68 96Q68 107 69 119T73 146L120 413Q123 427 123 435T122 447T115 454T102 461L67 479L72 506L224 523L237 513L176 161Q174 149 173 139T172 119Q172 84 188 69T241 53Q273 53 304
64T361 90L418 413Q420 427 420 435T420 447T413 454T400 461L366 479L371 506L524 523L535 513L465 115Q462 98 462 88T463 72T469 61T482 53L513 36L509 9L354 -12L344 -4L360 56H356Q320 30 277 9T181 -12ZM466 693H739L728 628H455L466 693Z" />
<glyph unicode="&#x16c;" glyph-name="Ubreve" d="M270 -12Q170 -12 115 34T60 175Q60 191 62 208T67 244L129 594Q135 628 130 639T110 655L85 663L90 693H318L313 663L276 654Q267 652 261 649T250 640T243 623T237 594L173 226Q170 208 168 192T166 161Q166
101 196 74T296 46Q363 46 399 82T452 209L519 584Q527 626 521 639T495 656L455 663L460 693H641L636 663L617 657Q604 653 596 649T583 638T575 619T567 584L499 199Q481 98 427 43T270 -12ZM287 887L316 893Q322 860 349 843T416 826Q457 826 486 846T530 893L558
883Q552 859 537 836T502 795T457 766T405 755Q355 755 321 787T287 875V887Z" />
<glyph unicode="&#x16d;" glyph-name="ubreve" d="M181 -12Q124 -12 96 14T68 96Q68 107 69 119T73 146L120 413Q123 427 123 435T122 447T115 454T102 461L67 479L72 506L224 523L237 513L176 161Q174 149 173 139T172 119Q172 84 188 69T241 53Q273 53 304 64T361
90L418 413Q420 427 420 435T420 447T413 454T400 461L366 479L371 506L524 523L535 513L465 115Q462 98 462 88T463 72T469 61T482 53L513 36L509 9L354 -12L344 -4L360 56H356Q320 30 277 9T181 -12ZM237 722Q237 727 237 731T238 742L267 748Q272 706 297 685T364
664Q384 664 402 671T436 690T462 717T481 749L509 739Q502 710 487 684T452 637T406 606T354 594Q306 594 272 626T237 722Z" />
<glyph unicode="&#x16e;" glyph-name="Uring" d="M270 -12Q170 -12 115 34T60 175Q60 191 62 208T67 244L129 594Q135 628 130 639T110 655L85 663L90 693H318L313 663L276 654Q267 652 261 649T250 640T243 623T237 594L173 226Q170 208 168 192T166 161Q166
101 196 74T296 46Q363 46 399 82T452 209L519 584Q527 626 521 639T495 656L455 663L460 693H641L636 663L617 657Q604 653 596 649T583 638T575 619T567 584L499 199Q481 98 427 43T270 -12ZM645 974Q623 974 605 982T573 1003T551 1034T543 1072Q543 1114 572
1142T645 1171Q689 1171 718 1143T747 1072Q747 1052 739 1035T718 1004T686 982T645 974ZM645 1012Q671 1012 687 1029T703 1072Q703 1098 687 1115T645 1133Q619 1133 603 1116T587 1072Q587 1046 603 1029T645 1012Z" />
<glyph unicode="&#x16f;" glyph-name="uring" d="M181 -12Q124 -12 96 14T68 96Q68 107 69 119T73 146L120 413Q123 427 123 435T122 447T115 454T102 461L67 479L72 506L224 523L237 513L176 161Q174 149 173 139T172 119Q172 84 188 69T241 53Q273 53 304 64T361
90L418 413Q420 427 420 435T420 447T413 454T400 461L366 479L371 506L524 523L535 513L465 115Q462 98 462 88T463 72T469 61T482 53L513 36L509 9L354 -12L344 -4L360 56H356Q320 30 277 9T181 -12ZM363 588Q341 588 323 596T291 617T269 648T261 686Q261 728
290 756T363 785Q407 785 436 757T465 686Q465 666 457 649T436 618T404 596T363 588ZM363 626Q389 626 405 643T421 686Q421 712 405 729T363 747Q337 747 321 730T305 686Q305 660 321 643T363 626Z" />
<glyph unicode="&#x170;" glyph-name="Uhungarumlaut" d="M270 -12Q170 -12 115 34T60 175Q60 191 62 208T67 244L129 594Q135 628 130 639T110 655L85 663L90 693H318L313 663L276 654Q267 652 261 649T250 640T243 623T237 594L173 226Q170 208 168 192T166
161Q166 101 196 74T296 46Q363 46 399 82T452 209L519 584Q527 626 521 639T495 656L455 663L460 693H641L636 663L617 657Q604 653 596 649T583 638T575 619T567 584L499 199Q481 98 427 43T270 -12ZM701 778L779 894Q791 913 801 920T826 927Q844 927 856 915T868
885Q868 867 839 845L718 758L701 778ZM525 778L603 894Q615 913 625 920T650 927Q668 927 680 915T692 885Q692 867 663 845L542 758L525 778Z" />
<glyph unicode="&#x171;" glyph-name="uhungarumlaut" d="M181 -12Q124 -12 96 14T68 96Q68 107 69 119T73 146L120 413Q123 427 123 435T122 447T115 454T102 461L67 479L72 506L224 523L237 513L176 161Q174 149 173 139T172 119Q172 84 188 69T241 53Q273 53
304 64T361 90L418 413Q420 427 420 435T420 447T413 454T400 461L366 479L371 506L524 523L535 513L465 115Q462 98 462 88T463 72T469 61T482 53L513 36L509 9L354 -12L344 -4L360 56H356Q320 30 277 9T181 -12ZM648 609L726 725Q738 744 748 751T773 758Q791
758 803 746T815 716Q815 698 786 676L665 589L648 609ZM472 609L550 725Q562 744 572 751T597 758Q615 758 627 746T639 716Q639 698 610 676L489 589L472 609Z" />
<glyph unicode="&#x172;" glyph-name="Uogonek" d="M252 -223Q214 -223 189 -204T164 -147Q164 -125 173 -106T197 -69T230 -38T269 -12Q169 -11 115 35T60 175Q60 191 62 208T67 244L129 594Q135 628 130 639T110 655L85 663L90 693H318L313 663L276 654Q267
652 261 649T250 640T243 623T237 594L173 226Q170 208 168 192T166 161Q166 101 196 74T296 46Q363 46 399 82T452 209L519 584Q527 626 521 639T495 656L455 663L460 693H641L636 663L617 657Q604 653 596 649T583 638T575 619T567 584L499 199Q490 149 472 109T423
40Q397 16 367 4T312 -28Q287 -48 270 -76T253 -131Q253 -154 268 -162T311 -171H339L334 -199Q322 -207 302 -215T252 -223Z" />
<glyph unicode="&#x173;" glyph-name="uogonek" d="M311 -223Q273 -223 248 -204T223 -147Q223 -127 232 -108T258 -71T297 -38T343 -9L360 56H356Q320 30 277 9T181 -12Q124 -12 96 14T68 96Q68 107 69 119T73 146L120 413Q123 427 123 435T122 447T115 454T102
461L67 479L72 506L224 523L237 513L176 161Q174 149 173 139T172 119Q172 84 188 69T241 53Q273 53 304 64T361 90L418 413Q420 427 420 435T420 447T413 454T400 461L366 479L371 506L524 523L535 513L465 115Q462 98 462 88T463 72T469 61T482 53L513 36L509
9L464 3Q433 -1 406 -13T357 -44T324 -84T312 -131Q312 -154 327 -162T370 -171H398L393 -199Q381 -207 361 -215T311 -223Z" />
<glyph unicode="&#x174;" glyph-name="Wcircumflex" d="M96 605Q96 631 94 642T81 659L74 663L80 693H254L248 663L227 657Q206 651 200 633T192 580L185 196H188L318 524L317 587Q316 625 312 639T292 658L278 663L284 693H474L468 663L446 657Q420 649 414 629T408
573L406 196H408L541 569Q549 589 553 604T558 631Q558 642 554 647T539 658L526 663L532 693H652L646 663L640 660Q633 657 629 653T620 640T610 619T596 585L375 0H321L325 430H323L151 0H97L96 605ZM548 770L528 747L399 816L246 745L231 771L386 897H437L548
770Z" />
<glyph unicode="&#x175;" glyph-name="wcircumflex" d="M90 405Q88 438 83 452T65 475L57 480L62 509H229L224 480L206 473Q190 467 187 449T184 389L190 150H194L293 383L291 417Q289 442 285 453T270 472L258 480L263 509H434L429 480L408 473Q382 465 382 426Q382
412 382 396T384 362L392 150H395L490 389Q509 437 509 453Q509 466 494 473L477 480L482 509H606L601 480L591 475Q577 468 566 452T537 395L368 0H313L302 319H300L167 0H111L90 405ZM521 609L499 586L373 671L217 584L202 610L360 751H411L521 609Z" />
<glyph unicode="&#x176;" glyph-name="Ycircumflex" d="M131 31L172 40Q182 42 188 45T199 54T206 71T212 100L243 280L162 574Q156 596 151 610T140 634T129 648T113 656L94 663L99 693H338L333 663L310 657Q285 650 277 641T268 618Q268 607 270 595T278 563L331
340H335L470 567Q484 590 489 603T494 628Q494 640 487 646T463 658L445 663L450 693H634L629 663L610 656Q596 651 586 645T567 629T547 602T519 558L354 288L321 100Q318 83 317 72T319 55T329 45T348 38L377 31L372 0H126L131 31ZM548 770L528 747L399 816L246
745L231 771L386 897H437L548 770Z" />
<glyph unicode="&#x177;" glyph-name="ycircumflex" d="M50 -226Q6 -226 -14 -208T-34 -163Q-34 -135 -19 -119T22 -103Q45 -103 57 -115T72 -147Q74 -158 77 -162T89 -166Q106 -166 126 -140T179 -61L217 0L131 405Q127 425 124 436T117 455T107 465T92 472L70
480L75 509H298L293 480L264 473Q242 468 235 459T228 437Q228 426 230 416T235 389L287 121H291L435 382Q449 407 454 421T460 448Q460 457 456 463T438 473L412 480L417 509H600L595 480L565 472Q555 469 549 466T536 454T521 431T500 395L234 -59Q213 -95 193
-125T151 -178T105 -213T50 -226ZM538 609L516 586L390 671L234 584L219 610L377 751H428L538 609Z" />
<glyph unicode="&#x178;" glyph-name="Ydieresis" d="M131 31L172 40Q182 42 188 45T199 54T206 71T212 100L243 280L162 574Q156 596 151 610T140 634T129 648T113 656L94 663L99 693H338L333 663L310 657Q285 650 277 641T268 618Q268 607 270 595T278 563L331
340H335L470 567Q484 590 489 603T494 628Q494 640 487 646T463 658L445 663L450 693H634L629 663L610 656Q596 651 586 645T567 629T547 602T519 558L354 288L321 100Q318 83 317 72T319 55T329 45T348 38L377 31L372 0H126L131 31ZM287 751Q259 751 241 769T222
813Q222 839 240 858T287 877Q315 877 334 858T353 813Q353 787 334 769T287 751ZM505 751Q477 751 459 769T440 813Q440 839 458 858T505 877Q533 877 552 858T571 813Q571 787 552 769T505 751Z" />
<glyph unicode="&#x179;" glyph-name="Zacute" d="M23 44L447 646L448 650H393Q343 650 313 648T265 641T237 627T215 604Q198 582 184 559T150 497H121L164 693H574L567 650L146 47V43H185Q238 43 271 44T324 50T356 63T379 85Q397 106 414 134T458 213H488L437
0H15L23 44ZM282 772L417 878Q430 888 441 894T467 900Q488 900 500 887T512 857Q512 824 471 809L297 748L282 772Z" />
<glyph unicode="&#x17a;" glyph-name="zacute" d="M37 33L417 466L418 470H341Q311 470 291 469T259 464T238 455T222 440Q202 417 187 396T151 342H120L157 509H550L544 478L162 43L161 39H226Q267 39 293 41T335 49T362 62T382 83Q405 109 420 131T451 179H483L439
0H31L37 33ZM284 619L420 724Q433 734 444 740T470 746Q491 746 502 734T513 705Q513 672 472 657L299 595L284 619Z" />
<glyph unicode="&#x17b;" glyph-name="Zdotaccent" d="M23 44L447 646L448 650H393Q343 650 313 648T265 641T237 627T215 604Q198 582 184 559T150 497H121L164 693H574L567 650L146 47V43H185Q238 43 271 44T324 50T356 63T379 85Q397 106 414 134T458 213H488L437
0H15L23 44ZM640 750Q611 750 592 769T573 814Q573 841 592 860T640 880Q669 880 688 861T708 814Q708 788 689 769T640 750Z" />
<glyph unicode="&#x17c;" glyph-name="zdotaccent" d="M37 33L417 466L418 470H341Q311 470 291 469T259 464T238 455T222 440Q202 417 187 396T151 342H120L157 509H550L544 478L162 43L161 39H226Q267 39 293 41T335 49T362 62T382 83Q405 109 420 131T451 179H483L439
0H31L37 33ZM366 614Q337 614 318 633T299 678Q299 705 318 724T366 744Q395 744 414 725T434 678Q434 652 415 633T366 614Z" />
<glyph unicode="&#x17d;" glyph-name="Zcaron" d="M23 44L447 646L448 650H393Q343 650 313 648T265 641T237 627T215 604Q198 582 184 559T150 497H121L164 693H574L567 650L146 47V43H185Q238 43 271 44T324 50T356 63T379 85Q397 106 414 134T458 213H488L437
0H15L23 44ZM497 886L517 909L645 839L799 909L814 883L658 758H607L497 886Z" />
<glyph unicode="&#x17e;" glyph-name="zcaron" d="M217 740L239 763L364 678L521 763L536 737L377 598H326L217 740ZM37 33L417 466L418 470H341Q311 470 291 469T259 464T238 455T222 440Q202 417 187 396T151 342H120L157 509H550L544 478L162 43L161 39H226Q267
39 293 41T335 49T362 62T382 83Q405 109 420 131T451 179H483L439 0H31L37 33Z" />
<glyph unicode="&#x192;" glyph-name="uni0192" d="M-2 -196Q-49 -196 -74 -182T-99 -138Q-99 -116 -86 -103T-49 -89Q-9 -89 -8 -132Q-7 -151 -3 -156T13 -162Q31 -162 45 -141T75 -77L227 349H134L141 394H243L282 505Q299 553 323 589T378 651T441 689T510
702Q564 702 592 683T620 635Q620 611 605 595T564 578Q542 578 529 591T517 628Q519 651 514 658T491 665Q468 665 446 638T401 551L344 394H470L463 349H327L205 13Q167 -91 113 -143T-2 -196Z" />
<glyph unicode="&#x1fa;" glyph-name="Aringacute" d="M186 278H343L310 532H306L186 278ZM140 0H-34L-29 31L-13 36Q-3 39 4 43T20 56T38 82T62 128L334 693H394L473 117Q476 94 479 80T488 58T499 45T514 36L525 31L520 0H300L305 31L331 38Q351 43 358 52T366
82Q366 93 365 105T361 134L348 233H165L114 126Q103 103 98 88T93 64Q93 52 99 47T120 38L145 31L140 0ZM638 738Q616 738 598 746T566 767T544 798T536 836Q536 878 565 906T638 935Q682 935 711 907T740 836Q740 816 732 799T711 768T679 746T638 738ZM638 776Q664
776 680 793T696 836Q696 862 680 879T638 897Q612 897 596 880T580 836Q580 810 596 793T638 776ZM282 975L417 1081Q430 1091 441 1097T467 1103Q488 1103 500 1090T512 1060Q512 1027 471 1012L297 951L282 975Z" />
<glyph unicode="&#x1fb;" glyph-name="aringacute" d="M33 110Q33 140 42 163T75 206T138 242T238 271L368 300L377 346Q380 363 382 376T384 402Q384 447 360 466T288 486Q272 486 263 484T247 476T237 461T229 439Q221 413 206 397T162 380Q138 380 125 390T111
422Q111 448 127 467T171 499T235 518T313 525Q391 525 436 495T482 401Q482 389 480 375T475 344L436 123Q433 108 432 101T431 85Q431 62 449 52T506 39L501 11Q488 3 464 -4T414 -12Q378 -12 356 4T329 55H324Q300 26 262 8T176 -11Q110 -11 72 22T33 110ZM222
42Q253 42 284 60T333 102L360 248L273 238Q233 233 207 222T166 195T144 158T138 116Q138 84 159 63T222 42ZM606 588Q584 588 566 596T534 617T512 648T504 686Q504 728 533 756T606 785Q650 785 679 757T708 686Q708 666 700 649T679 618T647 596T606 588ZM606
626Q632 626 648 643T664 686Q664 712 648 729T606 747Q580 747 564 730T548 686Q548 660 564 643T606 626ZM521 837L656 943Q669 953 680 959T706 965Q727 965 739 952T751 922Q751 889 710 874L536 813L521 837Z" />
<glyph unicode="&#x1fc;" glyph-name="AEacute" d="M322 591Q323 596 323 600T324 610H320L147 266H265L322 591ZM87 0H-46L-41 31L-36 33Q-28 36 -22 40T-10 53T6 79T30 126L297 652L245 663L250 693H618L605 516H574Q566 555 561 577T548 617Q540 637 529 643T488
649Q469 649 455 647T429 640L384 383H413Q438 383 447 387T465 407Q478 429 484 445T499 481H529L486 239H456Q456 249 456 257T455 273T453 289T450 309Q447 326 439 331T403 337H375L335 107Q332 87 332 74Q332 55 341 50T374 44Q396 44 409 45T430 50T445 62T459
85Q473 111 487 141T518 209H549L503 0H168L173 31L200 40Q209 43 214 46T223 55T230 71T236 100L257 221H125L80 132Q67 106 61 90T55 61Q55 42 76 36L92 31L87 0ZM360 772L495 878Q508 888 519 894T545 900Q566 900 578 887T590 857Q590 824 549 809L375 748L360
772Z" />
<glyph unicode="&#x1fd;" glyph-name="aeacute" d="M438 483Q421 483 405 470T374 433T347 377T326 308L464 313Q470 339 473 366T477 420Q477 452 469 467T438 483ZM498 43Q491 35 479 26T450 8T411 -6T365 -12Q322 -12 289 5T236 65H232Q215 29 185 9T115 -12Q61
-12 31 22T0 112Q0 142 7 171T31 224T75 266T144 291L238 307L251 376Q254 393 255 405T257 428Q257 453 242 469T198 486Q180 486 172 479T160 447Q155 415 143 401T108 386Q88 386 77 397T66 430Q66 452 78 470T110 500T157 518T212 525Q254 525 282 509T323
461Q375 525 444 525Q499 525 529 492T560 381Q560 351 557 322T548 264H317Q314 241 312 219T310 173Q310 137 316 114T334 77T364 58T406 52Q437 52 460 60T505 83L498 43ZM146 45Q172 45 190 66T222 119Q219 140 219 163Q219 204 228 257L183 254Q159 252 143
241T115 211T99 171T94 126Q94 89 106 67T146 45ZM265 619L401 724Q414 734 425 740T451 746Q472 746 483 734T494 705Q494 672 453 657L280 595L265 619Z" />
<glyph unicode="&#x1fe;" glyph-name="Oslashacute" d="M260 -12Q219 -12 183 0T117 39L53 -54H-5L85 76Q65 108 53 151T41 252Q41 278 43 305T51 363Q67 454 97 519T168 625T254 686T349 705Q389 705 424 694T488 657L532 720H591L521 620Q543 588 555 543T568
438Q568 412 566 385T558 327Q541 235 511 171T442 66T356 7T260 -12ZM267 37Q304 37 330 53T377 103T413 192T442 322Q450 367 455 410T461 493Q461 503 461 512T459 531L162 103Q175 71 200 54T267 37ZM148 201Q148 192 148 184T149 168L445 595Q431 628 407
642T345 657Q308 657 281 640T232 588T195 499T166 368Q158 325 153 283T148 201ZM275 772L410 878Q423 888 434 894T460 900Q481 900 493 887T505 857Q505 824 464 809L290 748L275 772Z" />
<glyph unicode="&#x1ff;" glyph-name="oslashacute" d="M155 177Q155 144 158 120L406 443Q383 483 319 483Q262 483 224 434T166 278Q161 249 158 224T155 177ZM259 30Q318 30 355 80T413 238Q418 267 421 291T424 338Q424 370 421 394L173 71Q196 30 259 30ZM258
-13Q227 -13 196 -5T136 24L77 -54H25L105 50Q79 77 64 115T49 207Q49 238 55 274Q66 336 93 383T156 461T234 509T320 525Q351 525 382 517T442 490L494 558H546L474 464Q499 438 514 400T530 309Q530 279 524 243Q513 181 486 133T423 53T344 4T258 -13ZM265
619L401 724Q414 734 425 740T451 746Q472 746 483 734T494 705Q494 672 453 657L280 595L265 619Z" />
<glyph unicode="&#x218;" glyph-name="uni0218" d="M169 -129Q169 -103 189 -85T240 -67Q270 -67 290 -87T310 -140Q310 -168 298 -193T263 -237T209 -270T139 -286L131 -259Q186 -245 210 -223T240 -169Q237 -171 230 -173T215 -175Q195 -175 182 -163T169 -129ZM251
-13Q216 -13 186 -7T131 7T85 24T52 42L55 225H92Q103 185 113 159T137 109Q157 74 184 55T261 36Q328 36 366 68T404 150Q404 191 372 229T263 315Q190 360 153 406T116 512Q116 551 131 586T176 647T249 690T348 706Q372 706 397 703T445 696T487 686T518 675L515
511H479Q468 546 459 568T439 608Q433 619 426 628T407 644T381 654T344 658Q281 658 244 627T206 547Q206 529 212 513T232 481T269 446T326 407Q419 349 461 297T503 189Q503 148 488 112T441 47T362 3T251 -13Z" />
<glyph unicode="&#x219;" glyph-name="uni0219" d="M254 -12Q187 -12 134 4T50 37L71 185H101Q110 155 117 134T132 95Q139 81 149 69T174 49T211 36T263 31Q323 31 354 56T385 123Q385 139 379 151T357 175T317 198T255 221Q177 248 143 281T109 362Q109 397
126 427T172 478T241 512T325 525Q387 525 431 512T504 485L484 352H454Q440 402 425 430Q418 443 410 452T388 469T355 479T307 483Q253 483 225 457T197 395Q197 383 202 372T221 350T259 328T321 304Q406 276 443 241T480 160Q480 127 465 96T422 41T351 3T254
-12ZM147 -129Q147 -103 167 -85T218 -67Q248 -67 268 -87T288 -140Q288 -168 276 -193T241 -237T187 -270T117 -286L109 -259Q164 -245 188 -223T218 -169Q215 -171 208 -173T193 -175Q173 -175 160 -163T147 -129Z" />
<glyph unicode="&#x21a;" glyph-name="uni021A" d="M103 31L153 39Q167 41 176 44T190 53T199 71T205 100L300 651H287Q259 651 242 650T213 643T192 627T171 599Q162 585 155 573T140 548T125 518T107 481H74L120 693H611L583 481H550Q544 523 539 547T526 596Q520
614 514 625T496 641T468 649T421 651H408L313 100Q308 68 313 56T336 40L388 31L383 0H98L103 31ZM147 -129Q147 -103 167 -85T218 -67Q248 -67 268 -87T288 -140Q288 -168 276 -193T241 -237T187 -270T117 -286L109 -259Q164 -245 188 -223T218 -169Q215 -171
208 -173T193 -175Q173 -175 160 -163T147 -129Z" />
<glyph unicode="&#x21b;" glyph-name="uni021B" d="M313 -12Q234 -12 200 25T180 142L235 456H104L110 485Q156 492 189 504T247 533T290 575T324 632H363L342 509H543L520 456H332L279 153Q268 94 289 71T366 48Q402 48 430 54T482 69L477 37Q454 19 411 4T313
-12ZM189 -129Q189 -103 209 -85T260 -67Q290 -67 310 -87T330 -140Q330 -168 318 -193T283 -237T229 -270T159 -286L151 -259Q206 -245 230 -223T260 -169Q257 -171 250 -173T235 -175Q215 -175 202 -163T189 -129Z" />
<glyph unicode="&#x237;" glyph-name="uni0237" d="M85 -228Q32 -228 2 -207T-28 -155Q-28 -131 -13 -116T29 -101Q58 -101 70 -114T83 -152Q84 -175 89 -183T112 -191Q142 -191 164 -168T197 -89L277 369Q280 389 280 402T278 425T268 439T247 448L182 467L187
493L400 523L409 517Q404 505 400 487Q396 472 392 451T382 400L307 -27Q298 -81 276 -119T224 -182T158 -217T85 -228Z" />
<glyph unicode="&#x2c6;" glyph-name="circumflex" d="M511 609L489 586L363 671L207 584L192 610L350 751H401L511 609Z" />
<glyph unicode="&#x2c7;" glyph-name="caron" d="M215 740L237 763L362 678L519 763L534 737L375 598H324L215 740Z" />
<glyph unicode="&#x2d8;" glyph-name="breve" d="M237 722Q237 727 237 731T238 742L267 748Q272 706 297 685T364 664Q384 664 402 671T436 690T462 717T481 749L509 739Q502 710 487 684T452 637T406 606T354 594Q306 594 272 626T237 722Z" />
<glyph unicode="&#x2d9;" glyph-name="dotaccent" d="M362 614Q333 614 314 633T295 678Q295 705 314 724T362 744Q391 744 410 725T430 678Q430 652 411 633T362 614Z" />
<glyph unicode="&#x2da;" glyph-name="ring" d="M363 588Q341 588 323 596T291 617T269 648T261 686Q261 728 290 756T363 785Q407 785 436 757T465 686Q465 666 457 649T436 618T404 596T363 588ZM363 626Q389 626 405 643T421 686Q421 712 405 729T363 747Q337
747 321 730T305 686Q305 660 321 643T363 626Z" />
<glyph unicode="&#x2db;" glyph-name="ogonek" d="M109 -147Q109 -121 121 -99T152 -59T194 -25T239 3L283 0Q245 -31 222 -65T198 -131Q198 -154 213 -162T256 -171H284L279 -199Q267 -207 247 -215T197 -223Q159 -223 134 -204T109 -147Z" />
<glyph unicode="&#x2dc;" glyph-name="tilde" d="M178 597Q206 660 230 690T286 721Q304 721 324 715T365 701T402 687T428 680Q446 680 462 695T499 746L531 733Q504 670 479 640T421 609Q404 609 384 615T345 629T308 643T281 650Q263 650 248 634T212 583L178 597Z" />
<glyph unicode="&#x2dd;" glyph-name="hungarumlaut" d="M415 609L493 725Q505 744 515 751T540 758Q558 758 570 746T582 716Q582 698 553 676L432 589L415 609ZM239 609L317 725Q329 744 339 751T364 758Q382 758 394 746T406 716Q406 698 377 676L256 589L239 609Z" />
</font>
</defs>
</svg>
